<svg width="86" height="86" viewBox="0 0 86 86" fill="none" xmlns="http://www.w3.org/2000/svg">
<path fill-rule="evenodd" clip-rule="evenodd" d="M43 86C66.7482 86 86 66.7482 86 43C86 19.2518 66.7482 0 43 0C19.2518 0 0 19.2518 0 43C0 66.7482 19.2518 86 43 86ZM34.725 48.425C33.975 49.3417 33.65 49.8667 33.75 50C33.85 50.1333 34.4333 49.925 35.5 49.375C36.5667 48.825 37.7333 48.2 39 47.5C40.4333 46.6667 42.0667 45.7 43.9 44.6C44.5333 44.3 44.9 43.8083 45 43.125C45.1 42.4417 44.95 41.8333 44.55 41.3C44.0833 40.7667 43.5 40.5 42.8 40.5C42.1 40.5 41.55 40.8 41.15 41.4C39.6833 42.9 38.4 44.2667 37.3 45.5C36.3333 46.5333 35.475 47.5083 34.725 48.425ZM40 63.9C40.1667 63.9667 40.3333 64 40.5 64C41.4 63.9333 42.1333 63.8 42.7 63.6C43.2667 63.4 43.7333 63.1667 44.1 62.9C44.3667 62.7333 44.5083 62.4917 44.525 62.175C44.5417 61.8583 44.4167 61.5833 44.15 61.35C43.7833 61.05 43.3917 60.6667 42.975 60.2C42.5583 59.7333 42.2667 59.2333 42.1 58.7C42.0333 58.5 41.9167 58.3333 41.75 58.2C41.5833 58.0667 41.3833 58 41.15 58H40C39.4333 58 38.9583 57.8083 38.575 57.425C38.1917 57.0417 38 56.5667 38 56L38.1 55.5C38.8667 55.6667 39.6583 55.7917 40.475 55.875C41.2917 55.9583 42.1333 56 43 56C43.5667 56 44.1 55.9833 44.6 55.95C45.1 55.9167 45.6 55.8667 46.1 55.8C46.2667 56.5667 46.625 57.2333 47.175 57.8C47.725 58.3667 48.4 58.7333 49.2 58.9C49.1333 59.1667 49.0833 59.425 49.05 59.675C49.0167 59.925 49 60.2 49 60.5C49 60.9667 49.0667 61.375 49.2 61.725C49.3333 62.075 49.4667 62.35 49.6 62.55C49.7 62.7167 49.8333 62.8333 50 62.9C50.1667 62.9667 50.3333 63 50.5 63C51.4 62.9333 52.1333 62.8 52.7 62.6C53.2667 62.4 53.7333 62.1667 54.1 61.9C54.3667 61.7333 54.5083 61.4917 54.525 61.175C54.5417 60.8583 54.4167 60.5833 54.15 60.35C53.7833 60.05 53.3917 59.6667 52.975 59.2C52.5583 58.7333 52.2667 58.2333 52.1 57.7C52.0333 57.5 51.9167 57.3333 51.75 57.2C51.5833 57.0667 51.3833 57 51.15 57H50C49.5333 57 49.125 56.8583 48.775 56.575C48.425 56.2917 48.2 55.9167 48.1 55.45C51.1 54.7833 53.5083 53.4583 55.325 51.475C57.1417 49.4917 58.2833 46.8333 58.75 43.5C58.9167 43.6667 59.1083 43.7917 59.325 43.875C59.5417 43.9583 59.7667 44 60 44C60.5 44 61.125 43.625 61.875 42.875C62.625 42.125 63 40.5 63 38C63 35.7 62.325 33.625 60.975 31.775C59.625 29.925 58.3 29 57 29C56.5667 29 56.2917 29.1917 56.175 29.575C56.0583 29.9583 56 30.3333 56 30.7C54.9333 29.2 53.6333 27.9167 52.1 26.85C50.5667 25.7833 48.9 25.0167 47.1 24.55C47.2 24.1167 47.4167 23.75 47.75 23.45C48.0833 23.15 48.5 23 49 23C48.8667 22.8 48.7 22.6333 48.5 22.5C48.3333 22.3667 48.125 22.25 47.875 22.15C47.625 22.05 47.3333 22 47 22C46.6667 22 46.375 22.05 46.125 22.15C45.875 22.25 45.6667 22.3667 45.5 22.5C45.3 22.6333 45.1333 22.8 45 23V21C44.1333 21 43.3167 21.275 42.55 21.825C41.7833 22.375 41.3 23.1333 41.1 24.1C38.8 24.3667 36.6917 25.0833 34.775 26.25C32.8583 27.4167 31.2667 28.9 30 30.7C30 30.3333 29.9417 29.9583 29.825 29.575C29.7083 29.1917 29.4333 29 29 29C27.7 29 26.375 29.925 25.025 31.775C23.675 33.625 23 35.7 23 38C23 40.5 23.375 42.125 24.125 42.875C24.875 43.625 25.5 44 26 44C26.2667 44 26.5 43.95 26.7 43.85C26.9 43.75 27.0833 43.6167 27.25 43.45C27.6833 46.45 28.6583 48.9 30.175 50.8C31.6917 52.7 33.6833 54.0833 36.15 54.95C36.05 55.5167 36 55.8667 36 56C36 56.9667 36.3083 57.8167 36.925 58.55C37.5417 59.2833 38.3 59.7333 39.2 59.9C39.1333 60.1667 39.0833 60.425 39.05 60.675C39.0167 60.925 39 61.2 39 61.5C39 61.9667 39.0667 62.375 39.2 62.725C39.3333 63.075 39.4667 63.35 39.6 63.55C39.7 63.7167 39.8333 63.8333 40 63.9ZM56.875 42.35C56.7917 43.0833 56.6667 43.7833 56.5 44.45C56.3333 43.75 56.1 43.075 55.8 42.425C55.5 41.775 55.1667 41.1667 54.8 40.6C55.0333 40.1333 55.2083 39.6417 55.325 39.125C55.4417 38.6083 55.5 38.0667 55.5 37.5C55.5 35.4 54.775 33.625 53.325 32.175C51.875 30.725 50.1 30 48 30C47.0333 30 46.125 30.175 45.275 30.525C44.425 30.875 43.6667 31.35 43 31.95C42.3333 31.35 41.575 30.875 40.725 30.525C39.875 30.175 38.9667 30 38 30C35.9 30 34.125 30.725 32.675 32.175C31.225 33.625 30.5 35.4 30.5 37.5C30.5 38.0667 30.5583 38.6083 30.675 39.125C30.7917 39.6417 30.95 40.1333 31.15 40.6C30.7833 41.1667 30.4583 41.775 30.175 42.425C29.8917 43.075 29.6667 43.7333 29.5 44.4C29.3333 43.7333 29.2083 43.0333 29.125 42.3C29.0417 41.5667 29 40.8 29 40C29 36.1333 30.3667 32.8333 33.1 30.1C35.8333 27.3667 39.1333 26 43 26C46.8667 26 50.1667 27.3667 52.9 30.1C55.6333 32.8333 57 36.1333 57 40C57 40.8333 56.9583 41.6167 56.875 42.35ZM50.325 52.65C48.3417 53.55 45.9 54 43 54C40.1333 54 37.7 53.5333 35.7 52.6C33.7 51.6667 32.1333 50.3 31 48.5V48C31 47 31.1167 46.0333 31.35 45.1C31.5833 44.1667 31.9333 43.2833 32.4 42.45C32.8 42.9167 33.2583 43.325 33.775 43.675C34.2917 44.025 34.85 44.3167 35.45 44.55L36.95 42.9C35.6833 42.6333 34.625 42.0083 33.775 41.025C32.925 40.0417 32.5 38.8667 32.5 37.5C32.5 35.9667 33.0333 34.6667 34.1 33.6C35.1667 32.5333 36.4667 32 38 32C38.6667 32 39.3167 32.125 39.95 32.375C40.5833 32.625 41.15 32.9833 41.65 33.45L43 34.65L44.35 33.45C44.85 32.9833 45.4167 32.625 46.05 32.375C46.6833 32.125 47.3333 32 48 32C49.5333 32 50.8333 32.5333 51.9 33.6C52.9667 34.6667 53.5 35.9667 53.5 37.5C53.5 39.0333 52.9667 40.3333 51.9 41.4C50.8333 42.4667 49.5333 43 48 43C47.8333 43 47.6667 42.9917 47.5 42.975C47.3333 42.9583 47.1667 42.9333 47 42.9V43.1C47 43.1667 46.9833 43.2333 46.95 43.3C46.9167 43.5667 46.8583 43.825 46.775 44.075C46.6917 44.325 46.5667 44.5667 46.4 44.8C46.6667 44.8667 46.9333 44.9167 47.2 44.95C47.4667 44.9833 47.7333 45 48 45C49.1333 45 50.175 44.7667 51.125 44.3C52.075 43.8333 52.9 43.2167 53.6 42.45C54.0667 43.2833 54.4167 44.1667 54.65 45.1C54.8833 46.0333 55 47 55 48C55 48.1 54.9917 48.2 54.975 48.3C54.9583 48.4 54.95 48.5 54.95 48.6C53.85 50.4 52.3083 51.75 50.325 52.65ZM45.875 39.975C46.4583 40.6583 47.1667 41 48 41C48.8333 41 49.5417 40.6583 50.125 39.975C50.7083 39.2917 51 38.4667 51 37.5C51 36.5333 50.7083 35.7083 50.125 35.025C49.5417 34.3417 48.8333 34 48 34C47.1667 34 46.4583 34.3417 45.875 35.025C45.2917 35.7083 45 36.5333 45 37.5C45 38.4667 45.2917 39.2917 45.875 39.975ZM49.3 36.275C49.1667 36.425 48.9833 36.5 48.75 36.5C48.55 36.5 48.375 36.4333 48.225 36.3C48.075 36.1667 48 35.9833 48 35.75C48 35.55 48.0667 35.375 48.2 35.225C48.3333 35.075 48.5167 35 48.75 35C48.95 35 49.125 35.075 49.275 35.225C49.425 35.375 49.5 35.55 49.5 35.75C49.5 35.95 49.4333 36.125 49.3 36.275ZM35.875 39.975C36.4583 40.6583 37.1667 41 38 41C38.8333 41 39.5417 40.6583 40.125 39.975C40.7083 39.2917 41 38.4667 41 37.5C41 36.5333 40.7083 35.7083 40.125 35.025C39.5417 34.3417 38.8333 34 38 34C37.1667 34 36.4583 34.3417 35.875 35.025C35.2917 35.7083 35 36.5333 35 37.5C35 38.4667 35.2917 39.2917 35.875 39.975ZM39.3 36.275C39.1667 36.425 38.9833 36.5 38.75 36.5C38.55 36.5 38.375 36.4333 38.225 36.3C38.075 36.1667 38 35.9833 38 35.75C38 35.55 38.0667 35.375 38.2 35.225C38.3333 35.075 38.5167 35 38.75 35C38.95 35 39.125 35.075 39.275 35.225C39.425 35.375 39.5 35.55 39.5 35.75C39.5 35.95 39.4333 36.125 39.3 36.275Z" fill="white"/>
</svg>
