<svg width="86" height="86" viewBox="0 0 86 86" fill="none" xmlns="http://www.w3.org/2000/svg">
<path fill-rule="evenodd" clip-rule="evenodd" d="M43 86C66.7482 86 86 66.7482 86 43C86 19.2518 66.7482 0 43 0C19.2518 0 0 19.2518 0 43C0 66.7482 19.2518 86 43 86ZM45.8971 27V41H39.8971V27C39.8971 26.15 40.1846 25.4375 40.7596 24.8625C41.3346 24.2875 42.0471 24 42.8971 24C43.7471 24 44.4596 24.2917 45.0346 24.875C45.6096 25.4583 45.8971 26.1667 45.8971 27ZM57.8971 44V50H27.8971V44H57.8971ZM31.3971 62H24.6971L27.1971 52H58.5971L61.0971 62H54.3971V57.5C54.3971 57.075 54.2554 56.7188 53.9721 56.4313C53.6887 56.1437 53.3333 56 52.9058 56C52.4783 56 52.12 56.1437 51.8308 56.4313C51.5416 56.7188 51.3971 57.075 51.3971 57.5V62H44.3971V57.5C44.3971 57.075 44.2554 56.7188 43.9721 56.4313C43.6887 56.1437 43.3333 56 42.9058 56C42.4783 56 42.12 56.1437 41.8308 56.4313C41.5416 56.7188 41.3971 57.075 41.3971 57.5V62H34.3971V57.5C34.3971 57.075 34.2554 56.7188 33.9721 56.4313C33.6887 56.1437 33.3333 56 32.9058 56C32.4783 56 32.12 56.1437 31.8308 56.4313C31.5416 56.7188 31.3971 57.075 31.3971 57.5V62ZM25.9971 65H59.7971C61.0971 65 62.1471 64.4833 62.9471 63.45C63.7471 62.4167 63.9804 61.2667 63.6471 60L60.8971 49V45C60.8971 43.9 60.5054 42.9583 59.7221 42.175C58.9387 41.3917 57.9971 41 56.8971 41H48.8971V27C48.8971 25.3333 48.3137 23.9167 47.1471 22.75C45.9804 21.5833 44.5637 21 42.8971 21C41.2304 21 39.8137 21.5833 38.6471 22.75C37.4804 23.9167 36.8971 25.3333 36.8971 27V41H28.8971C27.7971 41 26.8554 41.3917 26.0721 42.175C25.2887 42.9583 24.8971 43.9 24.8971 45V49L22.1471 60C21.8137 61.2667 22.0471 62.4167 22.8471 63.45C23.6471 64.4833 24.6971 65 25.9971 65Z" fill="white"/>
</svg>
