<svg width="86" height="86" viewBox="0 0 86 86" fill="none" xmlns="http://www.w3.org/2000/svg">
<path fill-rule="evenodd" clip-rule="evenodd" d="M43 86C66.7482 86 86 66.7482 86 43C86 19.2518 66.7482 0 43 0C19.2518 0 0 19.2518 0 43C0 66.7482 19.2518 86 43 86ZM49.25 50.35H29.25L33.95 44.1L37.5 48.6L42.8 41.6L49.25 50.35ZM23.9 58.1C24.5 58.7 25.2 59 26 59H52C52.8 59 53.5 58.7 54.1 58.1C54.7 57.5 55 56.8 55 56V45.25L63 53.25V32.75L55 40.75V30C55 29.2 54.7 28.5 54.1 27.9C53.5 27.3 52.8 27 52 27H26C25.2 27 24.5 27.3 23.9 27.9C23.3 28.5 23 29.2 23 30V56C23 56.8 23.3 57.5 23.9 58.1ZM52 56H26V30H52V56Z" fill="white"/>
</svg>
