<svg width="86" height="86" viewBox="0 0 86 86" fill="none" xmlns="http://www.w3.org/2000/svg">
<path fill-rule="evenodd" clip-rule="evenodd" d="M43 86C66.7482 86 86 66.7482 86 43C86 19.2518 66.7482 0 43 0C19.2518 0 0 19.2518 0 43C0 66.7482 19.2518 86 43 86ZM42.075 43.55C41.7917 43.85 41.4333 44 41 44C40.6 44 40.25 43.85 39.95 43.55C39.65 43.25 39.5 42.9 39.5 42.5C39.5 42.0667 39.65 41.7083 39.95 41.425C40.25 41.1417 40.6 41 41 41C41.4333 41 41.7917 41.1417 42.075 41.425C42.3583 41.7083 42.5 42.0667 42.5 42.5C42.5 42.9 42.3583 43.25 42.075 43.55ZM32 60.5H25V57.5H29V28C29 27.1333 29.2917 26.4167 29.875 25.85C30.4583 25.2833 31.1667 25 32 25H54C54.8667 25 55.5833 25.2833 56.15 25.85C56.7167 26.4167 57 27.1333 57 28V57.5H61V60.5H32ZM47.0441 27.9842C47.3742 28.2122 47.6761 28.4924 47.95 28.825C48.65 29.675 49 30.6333 49 31.7V57.5H54V28L47.0441 27.9842ZM32 57.5L46 55.05V31.75C46 31.2833 45.875 30.875 45.625 30.525C45.375 30.175 45.0333 29.9667 44.6 29.9L32 27.95V57.5Z" fill="white"/>
</svg>
