<svg width="251" height="74" viewBox="0 0 251 74" fill="none" xmlns="http://www.w3.org/2000/svg">
<g clip-path="url(#clip0_142_58)">
<path d="M103.437 28.448C109.965 34.72 114.595 39.4347 117.325 42.592C118.733 44.1707 119.437 45.5147 119.437 46.624C119.437 47.6907 118.584 48.9707 116.877 50.464C115.171 51.9147 113.763 52.64 112.653 52.64C111.587 52.64 110.285 51.744 108.749 49.952L94.6693 33.888V46.368C94.6693 47.392 94.6266 48.1387 94.5413 48.608C94.4986 49.0773 94.3066 49.632 93.9653 50.272C93.3679 51.424 91.7039 52 88.9733 52C85.9866 52 84.2373 51.1893 83.7253 49.568C83.4693 48.8853 83.3413 47.7973 83.3413 46.304V10.72C83.3413 9.73866 83.3626 9.01333 83.4053 8.544C83.4906 8.032 83.7039 7.456 84.0453 6.816C84.6426 5.664 86.3066 5.088 89.0373 5.088C92.0239 5.088 93.7946 5.87733 94.3493 7.456C94.5626 8.18133 94.6693 9.29066 94.6693 10.784V23.008C100.472 16.48 105.165 11.1253 108.749 6.944C110.243 5.19466 111.544 4.32 112.653 4.32C113.763 4.32 115.171 5.06666 116.877 6.56C118.584 8.01066 119.437 9.29066 119.437 10.4C119.437 11.4667 118.797 12.7467 117.517 14.24C115.043 17.0987 111.203 21.024 105.997 26.016L103.437 28.448ZM122.591 23.904C122.591 22.9227 122.613 22.1973 122.655 21.728C122.741 21.216 122.933 20.64 123.231 20C123.829 18.8907 125.493 18.336 128.223 18.336C130.271 18.336 131.722 18.6987 132.575 19.424C133.301 20.0213 133.685 20.9387 133.727 22.176C133.77 22.6027 133.791 23.2213 133.791 24.032V46.432C133.791 47.4133 133.749 48.16 133.663 48.672C133.621 49.1413 133.429 49.696 133.087 50.336C132.533 51.4453 130.89 52 128.159 52C125.471 52 123.829 51.424 123.231 50.272C122.933 49.632 122.741 49.0773 122.655 48.608C122.613 48.1387 122.591 47.392 122.591 46.368V23.904ZM133.087 12.064C132.789 12.6613 132.234 13.088 131.423 13.344C130.613 13.6 129.525 13.728 128.159 13.728C126.837 13.728 125.77 13.6 124.959 13.344C124.149 13.088 123.573 12.64 123.231 12C122.933 11.36 122.741 10.8053 122.655 10.336C122.613 9.824 122.591 9.07733 122.591 8.096C122.591 7.11466 122.613 6.38933 122.655 5.92C122.741 5.408 122.933 4.85333 123.231 4.256C123.829 3.104 125.493 2.528 128.223 2.528C130.911 2.528 132.533 3.104 133.087 4.256C133.429 4.896 133.621 5.472 133.663 5.984C133.749 6.45333 133.791 7.17867 133.791 8.16C133.791 9.14133 133.749 9.888 133.663 10.4C133.621 10.8693 133.429 11.424 133.087 12.064ZM158.488 29.6L154.328 29.344V38.176C154.328 39.328 154.498 40.16 154.84 40.672C155.224 41.184 155.906 41.44 156.888 41.44C157.912 41.44 158.68 41.4827 159.192 41.568C159.746 41.6107 160.322 41.8027 160.92 42.144C161.901 42.6987 162.392 44.128 162.392 46.432C162.392 49.12 161.794 50.7627 160.6 51.36C159.96 51.6587 159.384 51.8507 158.872 51.936C158.402 51.9787 157.698 52 156.76 52C152.322 52 148.952 50.9973 146.648 48.992C144.344 46.9867 143.192 43.5947 143.192 38.816V29.344C142.381 29.472 141.506 29.536 140.568 29.536C139.629 29.536 138.84 29.1733 138.2 28.448C137.602 27.7227 137.304 26.4853 137.304 24.736C137.304 22.9867 137.41 21.728 137.624 20.96C137.837 20.1493 138.136 19.5733 138.52 19.232C139.202 18.6773 140.056 18.4 141.08 18.4L143.192 18.656V12.064C143.192 11.0827 143.213 10.3573 143.256 9.888C143.341 9.41866 143.554 8.90666 143.896 8.352C144.45 7.28533 146.093 6.752 148.824 6.752C151.725 6.752 153.453 7.54133 154.008 9.12C154.221 9.80266 154.328 10.8907 154.328 12.384V18.656C156.205 18.4853 157.613 18.4 158.552 18.4C159.533 18.4 160.258 18.4427 160.728 18.528C161.24 18.5707 161.816 18.7627 162.456 19.104C163.565 19.6587 164.12 21.3013 164.12 24.032C164.12 26.72 163.544 28.3627 162.392 28.96C161.752 29.2587 161.176 29.4507 160.664 29.536C160.194 29.5787 159.469 29.6 158.488 29.6Z" fill="#FF9100"/>
<path d="M187.238 29.6L183.078 29.344V38.176C183.078 39.328 183.248 40.16 183.59 40.672C183.974 41.184 184.656 41.44 185.638 41.44C186.662 41.44 187.43 41.4827 187.942 41.568C188.496 41.6107 189.072 41.8027 189.67 42.144C190.651 42.6987 191.142 44.128 191.142 46.432C191.142 49.12 190.544 50.7627 189.35 51.36C188.71 51.6587 188.134 51.8507 187.622 51.936C187.152 51.9787 186.448 52 185.51 52C181.072 52 177.702 50.9973 175.398 48.992C173.094 46.9867 171.942 43.5947 171.942 38.816V29.344C171.131 29.472 170.256 29.536 169.318 29.536C168.379 29.536 167.59 29.1733 166.95 28.448C166.352 27.7227 166.054 26.4853 166.054 24.736C166.054 22.9867 166.16 21.728 166.374 20.96C166.587 20.1493 166.886 19.5733 167.27 19.232C167.952 18.6773 168.806 18.4 169.83 18.4L171.942 18.656V12.064C171.942 11.0827 171.963 10.3573 172.006 9.888C172.091 9.41866 172.304 8.90666 172.646 8.352C173.2 7.28533 174.843 6.752 177.574 6.752C180.475 6.752 182.203 7.54133 182.758 9.12C182.971 9.80266 183.078 10.8907 183.078 12.384V18.656C184.955 18.4853 186.363 18.4 187.302 18.4C188.283 18.4 189.008 18.4427 189.478 18.528C189.99 18.5707 190.566 18.7627 191.206 19.104C192.315 19.6587 192.87 21.3013 192.87 24.032C192.87 26.72 192.294 28.3627 191.142 28.96C190.502 29.2587 189.926 29.4507 189.414 29.536C188.944 29.5787 188.219 29.6 187.238 29.6ZM227.666 31.136C227.666 33.7387 227.004 35.68 225.682 36.96C224.402 38.1973 222.972 38.816 221.394 38.816H206.226C206.226 40.0107 206.93 41.0133 208.338 41.824C209.746 42.6347 211.154 43.04 212.562 43.04C215.036 43.04 216.978 42.784 218.386 42.272L219.09 42.016C220.114 41.5467 220.967 41.312 221.65 41.312C223.015 41.312 224.188 42.272 225.17 44.192C225.724 45.344 226.002 46.3253 226.002 47.136C226.002 50.9333 221.458 52.832 212.37 52.832C209.212 52.832 206.396 52.2987 203.922 51.232C201.49 50.1227 199.591 48.672 198.226 46.88C195.538 43.424 194.194 39.5627 194.194 35.296C194.194 29.92 195.922 25.632 199.378 22.432C202.876 19.1893 207.228 17.568 212.434 17.568C218.364 17.568 222.716 19.6587 225.49 23.84C226.94 26.0587 227.666 28.4907 227.666 31.136ZM214.162 32.992C215.783 32.992 216.594 32.3093 216.594 30.944C216.594 29.9627 216.21 29.1733 215.442 28.576C214.716 27.9787 213.65 27.68 212.242 27.68C210.876 27.68 209.511 28.256 208.146 29.408C206.78 30.5173 206.098 31.712 206.098 32.992H214.162ZM231.841 8.032C231.841 7.05066 231.863 6.32533 231.905 5.856C231.991 5.344 232.183 4.768 232.481 4.128C233.079 2.976 234.743 2.4 237.473 2.4C240.076 2.4 241.697 2.976 242.337 4.128C242.679 4.768 242.871 5.344 242.913 5.856C242.999 6.368 243.041 7.11466 243.041 8.096V37.728C243.041 39.264 243.169 40.2453 243.425 40.672C243.681 41.056 244.236 41.248 245.089 41.248C245.985 41.248 246.583 41.2907 246.881 41.376C247.18 41.4187 247.543 41.5893 247.969 41.888C248.823 42.4427 249.249 43.9573 249.249 46.432C249.249 49.12 248.823 50.7627 247.969 51.36C246.86 52.128 244.215 52.256 240.033 51.744C236.748 51.3173 234.615 50.2293 233.633 48.48C232.439 46.3893 231.841 43.0613 231.841 38.496V8.032Z" fill="#B7957E"/>
<path d="M56.5159 18.4189C54.8665 18.4189 54.2154 19.3747 54.0418 19.7657C53.9984 19.8091 53.955 19.8091 53.9116 19.7657C53.6945 19.3747 53.0435 18.4189 51.4374 18.4189C49.3974 18.4189 48.6595 20.2001 48.6595 21.5903C48.6595 22.9804 49.0935 23.8493 53.955 27.7591C53.9984 27.8026 54.0418 27.8026 54.0418 27.7591C58.8598 23.8493 59.3373 22.937 59.3373 21.5903C59.2939 20.2435 58.556 18.4189 56.5159 18.4189Z" fill="#FF7D94"/>
<path d="M4.42907 51.9998H74.5292C74.9633 51.9998 75.2671 51.6522 75.2671 51.2612V45.0055C75.2671 44.7883 75.1803 44.6145 75.0501 44.4842L62.6361 32.0162C62.3322 31.7121 61.8548 31.7121 61.5509 32.0162L49.8314 43.7457C49.7012 43.876 49.4842 43.9629 49.3105 43.9629H4.42907C3.99501 43.9629 3.69117 44.3104 3.69117 44.7014V51.1744C3.64777 51.6522 3.99501 51.9998 4.42907 51.9998Z" fill="#B7957E"/>
<path d="M61.8982 26.3689L55.8214 32.4508C55.6044 32.6681 55.3005 32.4943 55.3005 32.2336V31.973C55.3005 31.7992 55.4307 31.6689 55.6044 31.6689H55.6478C55.8214 31.6689 55.9516 31.5385 55.9516 31.3648V29.9746C55.9516 29.8008 55.8214 29.6705 55.6478 29.6705H51.9583C51.7847 29.6705 51.6544 29.8008 51.6544 29.9746V31.3648C51.6544 31.5385 51.7847 31.6689 51.9583 31.6689H52.0017C52.1753 31.6689 52.3055 31.7992 52.3055 31.973V35.8394C52.3055 35.9263 52.2621 36.0131 52.2187 36.0566L49.0935 39.1844C49.0501 39.2279 48.9633 39.2713 48.8765 39.2713H5.12357C4.81973 39.2713 4.55929 39.4017 4.34227 39.5754L1.69452 42.7467C1.69452 42.9205 1.86814 43.0943 2.04176 43.0943H49.0501C49.1369 43.0943 49.2237 43.0508 49.2671 43.0074L62.0284 30.2353C62.1586 30.1049 62.3322 30.1049 62.4625 30.2353L75.571 43.3549C75.6144 43.3984 75.7012 43.4418 75.788 43.4418H78.7396C79 43.4418 79.1737 43.0943 78.9566 42.9205L62.3322 26.3689C62.202 26.282 62.0284 26.282 61.8982 26.3689Z" fill="#B7957E"/>
<path d="M48.7884 37.4591C48.1257 37.0372 46.6673 37.1922 45.8787 36.8942C45.0898 36.6379 38.2342 34.9582 36.8198 34.8219C35.4471 34.6859 35.0388 33.6827 35.0388 33.6827C35.0388 33.6827 34.1626 33.9257 33.1649 33.751C32.1668 33.6181 31.9223 32.9495 31.9223 32.9495C32.7079 33.6224 33.6244 33.5464 34.7094 33.2217C35.7528 32.8967 36.7119 32.696 37.6304 32.37C38.5489 32.044 38.5552 31.2524 38.6401 31.0448C38.725 30.8371 39.1027 30.4651 38.6471 30.1698C37.4036 29.4932 36.6623 28.4873 35.8344 27.8974C34.9642 27.3904 34.3814 27.3858 34.3814 27.3858L34.3178 24.927L32.8448 26.9152C32.9661 27.3745 33.6294 27.7131 33.6294 27.7131C32.5071 27.4958 32.0999 26.3676 32.0592 26.2422C32.0186 26.1169 31.8158 25.4486 31.4828 25.446C31.3579 25.445 30.8111 26.1489 30.5932 27.3555C30.3754 28.5621 31.1571 29.735 31.1571 29.735C30.453 29.2711 30.2512 28.4778 30.2512 28.4778C30.2512 28.4778 23.703 30.0088 20.7274 27.2767C17.7518 24.5447 17.2872 20.166 13.9407 16.9726C11.4207 14.5358 9.09351 14.0172 7.26221 13.9609C5.39727 12.9044 5.35266 8.0707 5.98874 6.61746C7.55996 2.75502 12.2303 1.79233 16.5153 2.15988C20.6755 2.52644 23.9092 4.21892 25.7678 6.06709C27.9977 8.33489 26.3562 10.5718 25.3914 11.4807C24.0906 12.762 22.1657 13.9966 24.411 14.3479C26.6563 14.6991 27.7083 13.2909 28.2561 12.4619C28.8882 11.5087 30.1184 8.64349 27.9794 5.41809C26.7455 3.53325 23.2225 1.58845 19.7307 0.935569C16.8211 0.370667 8.54039 -0.112131 5.6324 4.32296C3.56731 7.47312 3.5976 14.0983 3.88167 15.0173C3.79608 15.3082 3.75212 15.5996 3.58361 15.8482C3.12004 16.5528 2.90157 17.8427 2.97484 19.0933C3.0481 20.3439 3.6602 21.8905 3.98656 22.7264C4.31259 23.604 5.10052 23.9853 4.96398 25.4425C4.82744 26.8998 4.93 29.6922 5.05289 29.9432C5.17578 30.1942 5.37592 31.1958 5.24771 31.6114C5.11949 32.0271 7.86227 37.8406 8.10705 38.4676C8.35215 39.0528 8.97691 39.0162 8.97691 39.0162C8.97691 39.0162 10.5581 39.1121 10.8911 39.1148C11.2242 39.1174 11.5588 38.9118 11.2315 38.2008C10.9041 37.4899 9.65295 37.7716 9.65295 37.7716C9.65295 37.7716 7.89325 33.9659 7.81399 33.4652C7.73507 32.9229 8.87002 31.557 9.2147 30.1014C9.55939 28.6459 9.58204 25.8127 9.58204 25.8127C9.82348 26.8563 9.63765 29.2715 9.63765 29.2715C9.71757 29.6888 13.5477 34.886 16.8689 36.0375C22.0988 37.996 27.3096 37.1209 27.3096 37.1209C26.1913 36.4037 24.8722 34.7681 24.8722 34.7681C24.8722 34.7681 26.4434 36.114 27.229 36.7869C28.0146 37.4599 29.2631 37.5115 30.9276 37.6081C32.592 37.7048 33.2934 38.502 34.6242 38.6793C35.9549 38.8566 45.196 38.9721 45.8205 38.9771C46.4033 38.9817 47.0283 38.9034 46.6993 38.4008C46.3706 37.8565 45.1228 37.7215 44.4567 37.7162C43.7907 37.7109 41.2987 36.9826 40.3019 36.683C39.3048 36.4251 36.3959 35.7768 34.815 35.6392C33.2341 35.5016 32.9501 34.5827 32.9501 34.5827C33.4842 35.4619 35.1074 35.5165 35.7734 35.5219C36.4395 35.5272 41.3869 36.3584 42.7157 36.7856C44.0444 37.2129 43.5882 37.0009 45.5427 37.2665C47.5389 37.5325 47.363 38.6977 47.363 38.6977C47.363 38.6977 48.2789 38.7051 48.6125 38.6244C48.9882 38.5024 49.4511 37.8811 48.7884 37.4591Z" fill="#FF9100"/>
<path d="M8.10477 38.759C7.89763 38.6324 5.23554 33.1528 5.03741 31.9013C4.95749 31.484 5.04842 30.5264 4.92587 30.2337C4.80333 29.9411 4.84829 29.5248 4.84829 29.5248C4.84829 29.5248 4.08831 30.852 4.00138 31.3097C3.91445 31.7673 4.44327 33.3132 4.77062 34.0241C5.09797 34.7351 5.74533 37.0735 5.98775 37.9921C6.23018 38.9107 6.68809 38.9144 7.02044 39.0004C7.3528 39.0863 8.22765 39.01 8.22765 39.01C8.22765 39.01 8.31191 38.8857 8.10477 38.759Z" fill="#FF9100"/>
<path d="M1.92899 68.3175C1.84733 67.2442 1.84149 65.8792 1.91149 64.2225C2.01649 61.7375 2.06899 60.4133 2.06899 60.25C2.06899 60.18 2.05149 59.97 2.01649 59.62C1.98149 59.2233 1.96983 58.9025 1.98149 58.6575C2.00483 57.5725 2.39566 56.9017 3.15399 56.645C3.35233 56.575 3.67899 56.5342 4.13399 56.5225C4.44899 56.5108 4.85149 56.5108 5.34149 56.5225C5.58649 56.5342 5.94816 56.5517 6.42649 56.575C6.90483 56.5867 7.20816 56.5925 7.33649 56.5925H7.68649C7.87316 56.5925 8.11233 56.5925 8.40399 56.5925C8.69566 56.5808 8.95816 56.575 9.19149 56.575C9.68149 56.5633 10.0723 56.5633 10.364 56.575C10.5507 56.575 10.7023 56.5808 10.819 56.5925C10.889 56.6042 10.9532 56.6158 11.0115 56.6275C11.1748 56.6625 11.3148 56.7208 11.4315 56.8025C11.6648 57.0008 11.8282 57.3042 11.9215 57.7125C11.9682 57.9458 12.0032 58.2317 12.0265 58.57V59.8125C12.0265 60.7575 12.0207 62.1808 12.009 64.0825C11.9973 65.9725 11.9915 67.355 11.9915 68.23C11.9915 68.4517 11.9098 68.6442 11.7465 68.8075C11.5948 68.9592 11.4082 69.035 11.1865 69.035C10.9648 69.035 10.7723 68.9592 10.609 68.8075C10.4573 68.6442 10.3815 68.4517 10.3815 68.23C10.3815 67.355 10.3873 65.9725 10.399 64.0825C10.4107 62.1808 10.4165 60.7575 10.4165 59.8125C10.4165 59.7892 10.4165 59.7017 10.4165 59.55C10.4282 59.3983 10.434 59.2642 10.434 59.1475C10.434 59.0192 10.4282 58.8558 10.4165 58.6575C10.4165 58.4708 10.4048 58.3133 10.3815 58.185L10.329 58.1675H9.20899C8.96399 58.1675 8.69566 58.1733 8.40399 58.185C8.12399 58.185 7.88483 58.1908 7.68649 58.2025C7.49983 58.2025 7.38316 58.2025 7.33649 58.2025C7.20816 58.2025 6.89316 58.1908 6.39149 58.1675C5.90149 58.1442 5.53399 58.1325 5.28899 58.1325C4.83399 58.1208 4.46649 58.115 4.18649 58.115C3.95316 58.1267 3.78399 58.1383 3.67899 58.15C3.62066 58.22 3.58566 58.4008 3.57399 58.6925C3.57399 58.8792 3.59149 59.1417 3.62649 59.48C3.66149 59.8767 3.67899 60.1333 3.67899 60.25C3.67899 60.565 3.62649 61.9125 3.52149 64.2925C3.45149 65.8792 3.45733 67.1742 3.53899 68.1775C3.55066 68.3992 3.48649 68.5975 3.34649 68.7725C3.20649 68.9358 3.02566 69.0233 2.80399 69.035C2.58233 69.0583 2.38399 69 2.20899 68.86C2.04566 68.72 1.95233 68.5392 1.92899 68.3175ZM14.3194 59.62C14.1211 59.5267 13.9811 59.375 13.8994 59.165C13.8294 58.955 13.8411 58.745 13.9344 58.535C14.3077 57.6367 14.7044 56.6508 15.1244 55.5775C15.2061 55.3792 15.3461 55.2392 15.5444 55.1575C15.7544 55.0642 15.9586 55.0583 16.1569 55.14C16.3552 55.21 16.5011 55.35 16.5944 55.56C16.6877 55.77 16.6936 55.9683 16.6119 56.155L15.3694 59.2C15.2877 59.3867 15.1419 59.5267 14.9319 59.62C14.7219 59.7017 14.5177 59.7017 14.3194 59.62ZM19.0369 68.4575C18.9669 68.6792 18.8211 68.8483 18.5994 68.965C18.3894 69.07 18.1677 69.0817 17.9344 69C17.7127 68.93 17.5436 68.79 17.4269 68.58C17.3219 68.3583 17.3102 68.1308 17.3919 67.8975C17.4036 67.8392 17.4386 67.7108 17.4969 67.5125C17.5669 67.3142 17.6194 67.1683 17.6544 67.075L17.7944 66.725C17.8644 66.5617 17.9227 66.4217 17.9694 66.305C18.0277 66.1883 18.0919 66.06 18.1619 65.92C18.2319 65.78 18.3077 65.6575 18.3894 65.5525C18.4944 65.4008 18.6052 65.2608 18.7219 65.1325C18.0919 64.7358 17.7127 64.1992 17.5844 63.5225C17.5027 63.0908 17.5436 62.6242 17.7069 62.1225C17.8702 61.6092 18.0919 61.2008 18.3719 60.8975C19.0836 60.1275 20.1861 59.7367 21.6794 59.725C22.5194 59.725 23.5461 59.8533 24.7594 60.11C25.0394 60.1683 25.2377 60.3317 25.3544 60.6C25.4594 60.7517 25.5119 60.9208 25.5119 61.1075C25.5002 61.5742 25.4419 62.7642 25.3369 64.6775C25.2552 66.1242 25.2261 67.2792 25.2494 68.1425C25.2611 68.3758 25.1794 68.58 25.0044 68.755C24.8411 68.93 24.6369 69.0233 24.3919 69.035C24.1586 69.0467 23.9544 68.9708 23.7794 68.8075C23.6044 68.6325 23.5111 68.4225 23.4994 68.1775C23.4761 67.5008 23.4877 66.7133 23.5344 65.815C22.7061 65.8733 21.9594 65.8792 21.2944 65.8325L21.1544 65.8675C20.5361 65.9258 20.0927 66.1475 19.8244 66.5325L19.6844 66.795L19.5619 67.0225C19.5269 67.0575 19.4802 67.1508 19.4219 67.3025C19.3752 67.4425 19.3402 67.5475 19.3169 67.6175L19.1944 68.0375C19.1244 68.2358 19.0719 68.3758 19.0369 68.4575ZM23.6219 64.0825C23.6919 63.0092 23.7327 62.21 23.7444 61.685C22.9627 61.545 22.2744 61.475 21.6794 61.475C20.6994 61.475 20.0286 61.6792 19.6669 62.0875C19.5502 62.2042 19.4511 62.385 19.3694 62.63C19.2994 62.875 19.2761 63.0558 19.2994 63.1725C19.3811 63.5808 19.8594 63.8608 20.7344 64.0125C21.4461 64.1292 22.3327 64.1467 23.3944 64.065C23.4761 64.065 23.5519 64.0708 23.6219 64.0825ZM31.3164 68.16C31.3164 68.405 31.2289 68.6092 31.0539 68.7725C30.8789 68.9358 30.6689 69.0175 30.4239 69.0175C30.1789 69.0175 29.9747 68.93 29.8114 68.755C29.6481 68.58 29.5664 68.37 29.5664 68.125C29.6247 65.0917 29.6247 62.8925 29.5664 61.5275C29.3797 61.5275 29.0472 61.5217 28.5689 61.51C28.1022 61.4983 27.7406 61.4925 27.4839 61.4925C27.2389 61.4925 27.0347 61.405 26.8714 61.23C26.7081 61.055 26.6264 60.845 26.6264 60.6C26.6264 60.355 26.7139 60.1508 26.8889 59.9875C27.0639 59.8242 27.2739 59.7425 27.5189 59.7425C30.6222 59.8008 32.6172 59.8125 33.5039 59.7775C33.7489 59.7658 33.9589 59.8417 34.1339 60.005C34.3089 60.1683 34.4022 60.3725 34.4139 60.6175C34.4256 60.8625 34.3497 61.0725 34.1864 61.2475C34.0231 61.4225 33.8189 61.5158 33.5739 61.5275C32.8972 61.5508 32.1447 61.5625 31.3164 61.5625C31.3747 62.9508 31.3747 65.15 31.3164 68.16ZM36.2312 68.9125C35.9162 68.7025 35.7937 68.4108 35.8637 68.0375C35.852 68.0142 35.8462 67.9908 35.8462 67.9675C35.7878 67.4075 35.7528 66.7775 35.7412 66.0775C35.7295 65.3775 35.7295 64.8525 35.7412 64.5025C35.7528 64.1525 35.782 63.435 35.8287 62.35C35.887 61.265 35.922 60.6525 35.9337 60.5125C35.9453 60.2792 36.0387 60.0808 36.2137 59.9175C36.4003 59.7542 36.6103 59.6783 36.8437 59.69C37.0887 59.7017 37.2928 59.8008 37.4562 59.9875C37.6195 60.1625 37.6953 60.3725 37.6837 60.6175C37.672 60.8625 37.6428 61.4167 37.5962 62.28C37.5495 63.1433 37.5145 63.8142 37.4912 64.2925C37.4795 64.7592 37.4737 65.22 37.4737 65.675L38.7162 64.0825C39.8128 62.6475 40.647 61.3467 41.2187 60.18C41.3703 59.935 41.592 59.795 41.8837 59.76C41.977 59.725 42.0762 59.7017 42.1812 59.69C42.4262 59.6783 42.6362 59.7542 42.8112 59.9175C42.9978 60.0692 43.097 60.2675 43.1087 60.5125C43.1553 61.6558 43.1728 62.9975 43.1612 64.5375C43.1262 66.1942 43.1262 67.39 43.1612 68.125C43.1728 68.37 43.097 68.58 42.9337 68.755C42.7703 68.93 42.5662 69.0233 42.3212 69.035C42.0762 69.0467 41.8662 68.9708 41.6912 68.8075C41.5162 68.6442 41.4228 68.44 41.4112 68.195C41.3762 67.4483 41.3762 66.2233 41.4112 64.52V63.3825L40.0987 65.15C38.7337 66.9233 37.847 68.1017 37.4387 68.685C37.2987 68.8833 37.112 69.0058 36.8787 69.0525C36.6453 69.0992 36.4295 69.0525 36.2312 68.9125ZM48.422 69.175C47.827 69.175 47.2611 69.0525 46.7245 68.8075C46.1995 68.5625 45.7736 68.2533 45.447 67.88C45.1203 67.495 44.957 67.1158 44.957 66.7425C44.957 66.4975 45.0503 66.2933 45.237 66.13C45.4236 65.955 45.6395 65.8675 45.8845 65.8675C46.1878 65.8675 46.4095 65.9842 46.5495 66.2175C46.7711 66.6142 47.0278 66.9117 47.3195 67.11C47.6228 67.3083 48.0311 67.4075 48.5445 67.4075C49.1161 67.4075 49.5711 67.2908 49.9095 67.0575C50.2478 66.8242 50.417 66.5325 50.417 66.1825C50.417 65.8558 50.277 65.605 49.997 65.43C49.7286 65.255 49.227 65.1325 48.492 65.0625C48.177 65.0392 47.9436 64.9458 47.792 64.7825C47.652 64.6192 47.582 64.4267 47.582 64.205C47.582 63.96 47.6636 63.75 47.827 63.575C48.002 63.4 48.2411 63.3125 48.5445 63.3125C48.9878 63.3125 49.3436 63.2192 49.612 63.0325C49.8803 62.8342 50.0145 62.5717 50.0145 62.245C50.0145 62 49.8861 61.7958 49.6295 61.6325C49.3845 61.4692 49.052 61.3875 48.632 61.3875C48.1186 61.3875 47.7395 61.4983 47.4945 61.72C47.2495 61.9417 47.0745 62.2742 46.9695 62.7175C46.9228 62.9275 46.812 63.0908 46.637 63.2075C46.4736 63.3125 46.2928 63.365 46.0945 63.365C45.8728 63.365 45.6745 63.2892 45.4995 63.1375C45.3245 62.9742 45.237 62.7758 45.237 62.5425C45.237 61.9942 45.3945 61.51 45.7095 61.09C46.0245 60.6583 46.4445 60.3258 46.9695 60.0925C47.5061 59.8475 48.0836 59.725 48.702 59.725C49.227 59.725 49.7228 59.83 50.1895 60.04C50.6561 60.2383 51.0353 60.53 51.327 60.915C51.6186 61.3 51.7645 61.7433 51.7645 62.245C51.7645 62.7467 51.6361 63.1842 51.3795 63.5575C51.1228 63.9192 50.7495 64.1583 50.2595 64.275V63.9425C50.8428 64.0708 51.3036 64.3567 51.642 64.8C51.992 65.2317 52.167 65.7275 52.167 66.2875C52.167 66.8008 51.9978 67.2792 51.6595 67.7225C51.3211 68.1658 50.8603 68.5217 50.277 68.79C49.7053 69.0467 49.087 69.175 48.422 69.175ZM54.1873 68.16C54.1873 67.6 54.1464 66.4275 54.0648 64.6425C53.9948 62.7642 53.9714 61.3758 53.9948 60.4775C54.0064 60.2442 54.0998 60.0458 54.2748 59.8825C54.4498 59.7075 54.6539 59.6258 54.8873 59.6375C55.1323 59.6492 55.3364 59.7425 55.4998 59.9175C55.6748 60.0925 55.7564 60.3025 55.7448 60.5475C55.7214 61.3875 55.7448 62.7233 55.8148 64.555C55.8964 66.2817 55.9373 67.4833 55.9373 68.16C55.9373 68.405 55.8498 68.615 55.6748 68.79C55.5114 68.9533 55.3073 69.035 55.0623 69.035C54.8173 69.035 54.6073 68.9533 54.4323 68.79C54.2689 68.615 54.1873 68.405 54.1873 68.16ZM55.4298 56.785C55.6048 56.9483 55.6923 57.1525 55.6923 57.3975C55.6923 57.6425 55.6048 57.8525 55.4298 58.0275C55.2664 58.1908 55.0623 58.2725 54.8173 58.2725C54.5723 58.2725 54.3623 58.1908 54.1873 58.0275C54.0239 57.8525 53.9423 57.6425 53.9423 57.3975C53.9423 57.1525 54.0239 56.9483 54.1873 56.785C54.3623 56.61 54.5723 56.5225 54.8173 56.5225C55.0623 56.5225 55.2664 56.61 55.4298 56.785ZM58.5814 71.6775C58.5347 70.8842 58.4997 70.085 58.4764 69.28C58.4531 68.475 58.4356 67.5067 58.4239 66.375C58.4122 65.2317 58.4006 64.4442 58.3889 64.0125C58.2139 63.8842 58.1031 63.7092 58.0564 63.4875C58.0097 63.2542 58.0447 63.0442 58.1614 62.8575L58.3539 62.56C58.3306 62.0117 58.3072 61.4925 58.2839 61.0025C58.2722 60.7575 58.3481 60.5475 58.5114 60.3725C58.6747 60.1858 58.8731 60.0867 59.1064 60.075C59.3164 60.0633 59.5031 60.1217 59.6664 60.25C59.8414 60.3783 59.9581 60.5417 60.0164 60.74C60.1331 60.6467 60.2556 60.5592 60.3839 60.4775C61.1072 59.9875 61.8189 59.7308 62.5189 59.7075C63.2306 59.6725 63.8606 59.8475 64.4089 60.2325C64.9106 60.5708 65.3247 61.0258 65.6514 61.5975C65.9781 62.1575 66.2056 62.7758 66.3339 63.4525C66.6256 64.9108 66.4739 66.1767 65.8789 67.25C65.5289 67.88 65.0506 68.3642 64.4439 68.7025C63.8489 69.0408 63.1431 69.1808 62.3264 69.1225C61.8597 69.0875 61.4922 69.035 61.2239 68.965C60.9672 68.8833 60.6406 68.7258 60.2439 68.4925L60.2089 68.475C60.2322 69.6183 60.2731 70.6508 60.3314 71.5725C60.3431 71.8175 60.2672 72.0275 60.1039 72.2025C59.9522 72.3892 59.7539 72.4883 59.5089 72.5C59.2639 72.5117 59.0481 72.4358 58.8614 72.2725C58.6864 72.1208 58.5931 71.9225 58.5814 71.6775ZM62.4314 67.3725C63.3181 67.4308 63.9539 67.11 64.3389 66.41C64.7239 65.6983 64.8172 64.8292 64.6189 63.8025C64.5256 63.3242 64.3681 62.8983 64.1464 62.525C63.9364 62.1517 63.6972 61.8717 63.4289 61.685C62.8572 61.3 62.1689 61.3758 61.3639 61.9125C60.8856 62.2392 60.4714 62.6358 60.1214 63.1025L60.1739 66.1125C60.4072 66.4275 60.5297 66.5908 60.5414 66.6025C60.5997 66.6725 60.7922 66.8008 61.1189 66.9875C61.3989 67.1392 61.6031 67.2383 61.7314 67.285C61.8714 67.32 62.1047 67.3492 62.4314 67.3725ZM74.5318 68.72C73.3068 67.3433 72.2743 66.06 71.4343 64.87L69.9643 66.41L69.9468 66.445C69.9935 66.9817 70.0518 67.5242 70.1218 68.0725C70.1568 68.3058 70.1043 68.5217 69.9643 68.72C69.8243 68.9067 69.6318 69.0175 69.3868 69.0525C69.1535 69.0875 68.9377 69.035 68.7393 68.895C68.5527 68.755 68.4418 68.5625 68.4068 68.3175C68.3135 67.6642 68.2435 66.9992 68.1968 66.3225C68.1502 65.6225 68.121 65.0917 68.1093 64.73C68.1093 64.3567 68.1093 63.6392 68.1093 62.5775C68.121 61.5042 68.1268 60.8333 68.1268 60.565C68.1268 60.32 68.2085 60.1158 68.3718 59.9525C68.5468 59.7775 68.7568 59.69 69.0018 59.69C69.2468 59.69 69.451 59.7775 69.6143 59.9525C69.7893 60.1158 69.8768 60.32 69.8768 60.565C69.8768 60.9267 69.871 61.5275 69.8593 62.3675C69.8593 63.1958 69.8593 63.7733 69.8593 64.1C72.251 61.86 73.6277 60.565 73.9893 60.215C74.1527 60.04 74.3568 59.9525 74.6018 59.9525C74.8468 59.9525 75.051 60.04 75.2143 60.215C75.3893 60.3783 75.4768 60.5825 75.4768 60.8275C75.4768 61.0725 75.3893 61.2767 75.2143 61.44C74.6543 62.0117 73.8377 62.7642 72.7643 63.6975C73.581 64.8875 74.6018 66.1767 75.8268 67.565C75.9902 67.74 76.066 67.95 76.0543 68.195C76.0427 68.4283 75.9435 68.6267 75.7568 68.79C75.5818 68.9533 75.3718 69.0292 75.1268 69.0175C74.8935 69.0058 74.6952 68.9067 74.5318 68.72ZM79.7753 68.965C79.1803 68.8483 78.6553 68.6267 78.2003 68.3C77.7453 67.9617 77.3894 67.5708 77.1328 67.1275C76.8878 66.6842 76.7069 66.2175 76.5903 65.7275C76.4853 65.2375 76.4503 64.7358 76.4853 64.2225C76.5203 63.5575 76.6544 62.9217 76.8878 62.315C77.1328 61.6967 77.5061 61.1483 78.0078 60.67C78.5211 60.1917 79.1161 59.9058 79.7928 59.8125C79.8978 59.7892 80.0145 59.7775 80.1428 59.7775C80.3411 59.6608 80.5511 59.62 80.7728 59.655L80.8778 59.6725C80.9361 59.6725 81.0061 59.6783 81.0878 59.69C81.1695 59.69 81.257 59.7017 81.3503 59.725C81.4553 59.7367 81.5603 59.7542 81.6653 59.7775C81.7703 59.8008 81.8636 59.83 81.9453 59.865C82.6336 60.145 83.1936 60.6 83.6253 61.23C84.0686 61.86 84.3603 62.5308 84.5003 63.2425C84.6403 63.9542 84.6636 64.66 84.5703 65.36C84.3953 66.55 83.9228 67.4892 83.1528 68.1775C82.2428 68.9825 81.117 69.245 79.7753 68.965ZM80.1253 67.25C80.907 67.4133 81.5311 67.285 81.9978 66.865C82.4411 66.4683 82.7211 65.885 82.8378 65.115C82.9428 64.3333 82.8553 63.5983 82.5753 62.91C82.2953 62.2217 81.8928 61.755 81.3678 61.51C81.1928 61.6267 81.0061 61.6733 80.8078 61.65C80.7845 61.65 80.6036 61.615 80.2653 61.545C80.1603 61.5333 80.0845 61.5275 80.0378 61.5275C79.5711 61.5975 79.1628 61.895 78.8128 62.42C78.4628 62.9333 78.2703 63.5633 78.2353 64.31C78.1886 65.0683 78.3344 65.7158 78.6728 66.2525C78.9995 66.7892 79.4836 67.1217 80.1253 67.25ZM87.9033 69.28C87.67 69.35 87.4483 69.3208 87.2383 69.1925C87.0283 69.0758 86.8942 68.9008 86.8358 68.6675C86.8008 68.5392 86.7717 68.4167 86.7483 68.3C86.725 68.2417 86.7075 68.1833 86.6958 68.125C86.5558 67.425 86.4508 66.7075 86.3808 65.9725C86.3108 65.2258 86.2583 64.3333 86.2233 63.295C86.1883 62.2567 86.1592 61.545 86.1358 61.16C86.1008 61.09 86.0717 61.0142 86.0483 60.9325C86.0133 60.7692 86.025 60.6058 86.0833 60.4425C86.1067 60.2442 86.1883 60.0692 86.3283 59.9175C86.48 59.7658 86.6608 59.6783 86.8708 59.655C87.0692 59.6433 87.25 59.6842 87.4133 59.7775C88.3467 59.6258 89.2042 59.5617 89.9859 59.585C90.7442 59.5967 91.38 59.7017 91.8934 59.9C92.6633 60.1917 93.1417 60.6642 93.3283 61.3175C93.5733 62.2625 93.4275 63.0442 92.8909 63.6625C92.8092 63.7675 92.7158 63.8667 92.6109 63.96C92.6808 63.995 92.745 64.0417 92.8033 64.1C93.2817 64.4383 93.6025 64.8467 93.7658 65.325C93.9292 65.7917 93.9292 66.2642 93.7658 66.7425C93.6375 67.1625 93.4042 67.5417 93.0659 67.88C92.7392 68.2067 92.3542 68.4575 91.9108 68.6325C91.1408 68.9242 89.9683 69.0292 88.3933 68.9475C88.265 69.1225 88.1017 69.2333 87.9033 69.28ZM88.3058 67.18C88.8192 67.2267 89.35 67.2442 89.8983 67.2325C90.4583 67.2092 90.9192 67.1275 91.2809 66.9875C91.4908 66.9058 91.6658 66.795 91.8059 66.655C91.9575 66.515 92.0567 66.3692 92.1033 66.2175C92.185 65.9608 92.08 65.7217 91.7883 65.5C91.4033 65.22 90.8025 65.0975 89.9859 65.1325C89.5075 65.1558 88.8775 65.2433 88.0958 65.395C88.1425 66.06 88.2125 66.655 88.3058 67.18ZM87.9908 63.505C89.1108 63.4233 89.9917 63.2717 90.6334 63.05C91.0883 62.8983 91.3975 62.7233 91.5609 62.525C91.6892 62.385 91.7242 62.1983 91.6658 61.965C91.6308 61.7667 91.5025 61.6208 91.2809 61.5275C90.9542 61.4108 90.505 61.3467 89.9333 61.335C89.3383 61.3233 88.6617 61.37 87.9033 61.475C87.9267 61.9883 87.9558 62.665 87.9908 63.505ZM95.926 68.9125C95.611 68.7025 95.4885 68.4108 95.5585 68.0375C95.5468 68.0142 95.541 67.9908 95.541 67.9675C95.4827 67.4075 95.4477 66.7775 95.436 66.0775C95.4243 65.3775 95.4243 64.8525 95.436 64.5025C95.4477 64.1525 95.4768 63.435 95.5235 62.35C95.5818 61.265 95.6168 60.6525 95.6285 60.5125C95.6402 60.2792 95.7335 60.0808 95.9085 59.9175C96.0952 59.7542 96.3052 59.6783 96.5385 59.69C96.7835 59.7017 96.9877 59.8008 97.151 59.9875C97.3143 60.1625 97.3902 60.3725 97.3785 60.6175C97.3668 60.8625 97.3377 61.4167 97.291 62.28C97.2443 63.1433 97.2093 63.8142 97.186 64.2925C97.1743 64.7592 97.1685 65.22 97.1685 65.675L98.411 64.0825C99.5077 62.6475 100.342 61.3467 100.914 60.18C101.065 59.935 101.287 59.795 101.579 59.76C101.672 59.725 101.771 59.7017 101.876 59.69C102.121 59.6783 102.331 59.7542 102.506 59.9175C102.693 60.0692 102.792 60.2675 102.804 60.5125C102.85 61.6558 102.868 62.9975 102.856 64.5375C102.821 66.1942 102.821 67.39 102.856 68.125C102.868 68.37 102.792 68.58 102.629 68.755C102.465 68.93 102.261 69.0233 102.016 69.035C101.771 69.0467 101.561 68.9708 101.386 68.8075C101.211 68.6442 101.118 68.44 101.106 68.195C101.071 67.4483 101.071 66.2233 101.106 64.52V63.3825L99.7935 65.15C98.4285 66.9233 97.5418 68.1017 97.1335 68.685C96.9935 68.8833 96.8068 69.0058 96.5735 69.0525C96.3402 69.0992 96.1243 69.0525 95.926 68.9125ZM106.524 69C106.279 69.0117 106.063 68.9417 105.877 68.79C105.702 68.6267 105.608 68.4225 105.597 68.1775C105.573 67.7225 105.521 66.9117 105.439 65.745C105.369 64.5667 105.311 63.5925 105.264 62.8225C105.229 62.0408 105.206 61.2883 105.194 60.565C105.194 60.32 105.276 60.11 105.439 59.935C105.603 59.76 105.807 59.6725 106.052 59.6725C106.297 59.6725 106.507 59.7542 106.682 59.9175C106.857 60.0808 106.944 60.285 106.944 60.53C106.968 61.65 107.049 63.4058 107.189 65.7975L111.057 60.1275L111.092 60.0925C111.243 59.7542 111.506 59.585 111.879 59.585C112.113 59.585 112.317 59.6725 112.492 59.8475C112.667 60.0108 112.754 60.215 112.754 60.46C112.766 61.4283 112.783 62.8925 112.807 64.8525C112.83 66.8125 112.842 67.915 112.842 68.16C112.842 68.3933 112.754 68.5975 112.579 68.7725C112.404 68.9358 112.194 69.0175 111.949 69.0175C111.716 69.0175 111.512 68.93 111.337 68.755C111.173 68.58 111.092 68.37 111.092 68.125C111.103 67.5533 111.068 65.8967 110.987 63.155C109.272 65.7917 108.093 67.5125 107.452 68.3175C107.393 68.3875 107.329 68.4458 107.259 68.4925C107.119 68.8075 106.874 68.9767 106.524 69ZM111.442 58.15C110.543 58.9783 109.657 59.375 108.782 59.34C107.907 59.2933 107.061 58.815 106.244 57.905C106.081 57.73 106.005 57.5258 106.017 57.2925C106.028 57.0475 106.122 56.8433 106.297 56.68C106.483 56.5167 106.693 56.4408 106.927 56.4525C107.172 56.4642 107.376 56.5633 107.539 56.75C108.029 57.2867 108.467 57.5667 108.852 57.59C109.248 57.6017 109.715 57.3567 110.252 56.855C110.427 56.6917 110.637 56.6158 110.882 56.6275C111.127 56.6392 111.331 56.7325 111.494 56.9075C111.658 57.0825 111.733 57.2925 111.722 57.5375C111.71 57.7825 111.617 57.9867 111.442 58.15ZM120.136 68.3C120.043 67.5533 119.984 66.7483 119.961 65.885C119.938 65.01 119.938 63.995 119.961 62.84C119.984 61.685 119.996 60.9558 119.996 60.6525C119.996 60.5358 120.019 60.425 120.066 60.32C120.113 60.1333 120.212 59.9817 120.364 59.865C120.527 59.7367 120.708 59.6725 120.906 59.6725H124.441C124.686 59.6725 124.89 59.76 125.054 59.935C125.229 60.0983 125.316 60.3025 125.316 60.5475C125.316 60.7925 125.229 61.0025 125.054 61.1775C124.89 61.3408 124.686 61.4225 124.441 61.4225H121.746C121.746 61.6092 121.734 62.1283 121.711 62.98C121.699 63.8317 121.694 64.4267 121.694 64.765C121.694 65.0917 121.705 65.605 121.729 66.305C121.764 66.9933 121.816 67.5767 121.886 68.055C121.909 68.3 121.845 68.5217 121.694 68.72C121.554 68.9067 121.361 69.0117 121.116 69.035C120.883 69.07 120.667 69.0175 120.469 68.8775C120.282 68.7258 120.171 68.5333 120.136 68.3ZM128.943 68.965C128.348 68.8483 127.823 68.6267 127.368 68.3C126.913 67.9617 126.557 67.5708 126.3 67.1275C126.055 66.6842 125.874 66.2175 125.758 65.7275C125.653 65.2375 125.618 64.7358 125.653 64.2225C125.688 63.5575 125.822 62.9217 126.055 62.315C126.3 61.6967 126.674 61.1483 127.175 60.67C127.689 60.1917 128.284 59.9058 128.96 59.8125C129.065 59.7892 129.182 59.7775 129.31 59.7775C129.509 59.6608 129.719 59.62 129.94 59.655L130.045 59.6725C130.104 59.6725 130.174 59.6783 130.255 59.69C130.337 59.69 130.424 59.7017 130.518 59.725C130.623 59.7367 130.728 59.7542 130.833 59.7775C130.938 59.8008 131.031 59.83 131.113 59.865C131.801 60.145 132.361 60.6 132.793 61.23C133.236 61.86 133.528 62.5308 133.668 63.2425C133.808 63.9542 133.831 64.66 133.738 65.36C133.563 66.55 133.09 67.4892 132.32 68.1775C131.41 68.9825 130.284 69.245 128.943 68.965ZM129.293 67.25C130.074 67.4133 130.699 67.285 131.165 66.865C131.609 66.4683 131.889 65.885 132.005 65.115C132.11 64.3333 132.023 63.5983 131.743 62.91C131.463 62.2217 131.06 61.755 130.535 61.51C130.36 61.6267 130.174 61.6733 129.975 61.65C129.952 61.65 129.771 61.615 129.433 61.545C129.328 61.5333 129.252 61.5275 129.205 61.5275C128.739 61.5975 128.33 61.895 127.98 62.42C127.63 62.9333 127.438 63.5633 127.403 64.31C127.356 65.0683 127.502 65.7158 127.84 66.2525C128.167 66.7892 128.651 67.1217 129.293 67.25ZM138.812 68.16C138.812 68.405 138.724 68.6092 138.549 68.7725C138.374 68.9358 138.164 69.0175 137.919 69.0175C137.674 69.0175 137.47 68.93 137.307 68.755C137.143 68.58 137.062 68.37 137.062 68.125C137.12 65.0917 137.12 62.8925 137.062 61.5275C136.875 61.5275 136.542 61.5217 136.064 61.51C135.597 61.4983 135.236 61.4925 134.979 61.4925C134.734 61.4925 134.53 61.405 134.367 61.23C134.203 61.055 134.122 60.845 134.122 60.6C134.122 60.355 134.209 60.1508 134.384 59.9875C134.559 59.8242 134.769 59.7425 135.014 59.7425C138.117 59.8008 140.112 59.8125 140.999 59.7775C141.244 59.7658 141.454 59.8417 141.629 60.005C141.804 60.1683 141.897 60.3725 141.909 60.6175C141.921 60.8625 141.845 61.0725 141.682 61.2475C141.518 61.4225 141.314 61.5158 141.069 61.5275C140.392 61.5508 139.64 61.5625 138.812 61.5625C138.87 62.9508 138.87 65.15 138.812 68.16ZM150.341 67.6175C149.945 68.0258 149.495 68.3525 148.994 68.5975C148.504 68.8308 148.02 68.965 147.541 69C147.063 69.0467 146.573 69.0233 146.071 68.93C145.581 68.8367 145.132 68.6675 144.724 68.4225C144.327 68.1658 143.96 67.8625 143.621 67.5125C143.283 67.1508 143.026 66.7367 142.851 66.27C142.688 65.7917 142.595 65.29 142.571 64.765C142.56 64.2283 142.67 63.6508 142.904 63.0325C143.324 61.8658 143.989 60.985 144.899 60.39C145.809 59.795 146.765 59.5558 147.769 59.6725C148.807 59.8008 149.665 60.285 150.341 61.125C151.03 61.9533 151.374 63.0208 151.374 64.3275C151.374 64.6542 151.234 64.905 150.954 65.08C150.779 65.2083 150.58 65.2608 150.359 65.2375C148.912 65.0858 146.946 65.0742 144.461 65.2025H144.426C144.52 65.6808 144.735 66.1008 145.074 66.4625C145.424 66.8125 145.815 67.0575 146.246 67.1975C146.69 67.3375 147.168 67.3492 147.681 67.2325C148.206 67.1042 148.673 66.8242 149.081 66.3925C149.256 66.2175 149.46 66.13 149.694 66.13C149.939 66.13 150.149 66.2175 150.324 66.3925C150.499 66.5558 150.586 66.76 150.586 67.005C150.586 67.2383 150.505 67.4425 150.341 67.6175ZM144.619 63.435C146.614 63.3417 148.253 63.3358 149.536 63.4175C149.408 62.8108 149.157 62.3383 148.784 62C148.422 61.6617 148.014 61.4692 147.559 61.4225C146.999 61.3525 146.445 61.4867 145.896 61.825C145.348 62.1633 144.922 62.7 144.619 63.435ZM153.31 69.07C153.088 69.1633 152.867 69.1633 152.645 69.07C152.423 68.9767 152.266 68.8192 152.173 68.5975C152.079 68.3758 152.079 68.1542 152.173 67.9325C152.266 67.7108 152.423 67.5533 152.645 67.46C152.727 67.425 152.82 67.39 152.925 67.355C152.937 67.355 152.966 67.3492 153.013 67.3375C153.071 67.3142 153.112 67.2967 153.135 67.285L153.258 67.2325C153.433 67.0925 153.584 66.7892 153.713 66.3225C153.853 65.8558 153.946 65.2492 153.993 64.5025C154.039 63.7558 154.028 62.5367 153.958 60.845C153.958 60.775 153.963 60.6992 153.975 60.6175C153.987 60.4075 154.068 60.2267 154.22 60.075C154.372 59.9233 154.558 59.8358 154.78 59.8125C155.632 59.7425 157.259 59.7075 159.663 59.7075C159.744 59.7075 159.826 59.7192 159.908 59.7425C160.153 59.7542 160.357 59.8475 160.52 60.0225C160.683 60.1975 160.759 60.4075 160.748 60.6525C160.736 61.0025 160.695 61.4867 160.625 62.105C160.543 62.7233 160.497 63.1608 160.485 63.4175C160.427 64.3625 160.398 65.9375 160.398 68.1425C160.398 68.3875 160.31 68.5975 160.135 68.7725C159.972 68.9358 159.768 69.0175 159.523 69.0175C159.278 69.0175 159.068 68.9358 158.893 68.7725C158.729 68.5975 158.648 68.3875 158.648 68.1425C158.648 65.9025 158.677 64.2925 158.735 63.3125C158.758 63.0208 158.805 62.5483 158.875 61.895L158.928 61.4575C157.493 61.4458 156.431 61.4633 155.743 61.51C155.789 62.7467 155.783 63.7792 155.725 64.6075C155.678 65.4708 155.573 66.2 155.41 66.795C155.177 67.6233 154.833 68.2242 154.378 68.5975C154.191 68.7375 153.963 68.8542 153.695 68.9475C153.683 68.9475 153.602 68.9708 153.45 69.0175C153.392 69.0408 153.345 69.0583 153.31 69.07ZM164.079 69.035C163.834 69.0467 163.624 68.9708 163.449 68.8075C163.274 68.6442 163.18 68.44 163.169 68.195C163.145 67.6117 163.116 66.8242 163.081 65.8325C163.058 64.8408 163.029 63.9017 162.994 63.015C162.97 62.1167 162.935 61.3 162.889 60.565C162.877 60.32 162.947 60.11 163.099 59.935C163.262 59.7483 163.466 59.6492 163.711 59.6375C163.956 59.6258 164.166 59.7017 164.341 59.865C164.528 60.0167 164.627 60.215 164.639 60.46C164.685 61.2183 164.726 62.1458 164.761 63.2425C165.298 63.1608 165.73 63.1025 166.056 63.0675C167.036 62.9975 167.824 63.1025 168.419 63.3825C168.979 63.6508 169.399 64.065 169.679 64.625C169.97 65.185 170.07 65.78 169.976 66.41C169.895 67.0283 169.62 67.5592 169.154 68.0025C168.162 68.9242 166.645 69.1983 164.604 68.825C164.452 68.9533 164.277 69.0233 164.079 69.035ZM164.884 67.0925C166.365 67.3725 167.392 67.2442 167.964 66.7075C168.209 66.4858 168.296 66.1767 168.226 65.78C168.168 65.3833 167.975 65.1092 167.649 64.9575C167.345 64.8175 166.861 64.7708 166.196 64.8175C165.87 64.8408 165.409 64.905 164.814 65.01C164.849 66.165 164.872 66.8592 164.884 67.0925ZM183.673 69H183.235C182.652 69.0117 181.818 69.0233 180.733 69.035C180.231 69.035 179.56 69.0408 178.72 69.0525C177.88 69.0642 177.408 69.0758 177.303 69.0875C177.291 69.1925 177.285 69.6067 177.285 70.33C177.285 70.575 177.198 70.7792 177.023 70.9425C176.859 71.1175 176.655 71.205 176.41 71.205C176.165 71.205 175.955 71.1175 175.78 70.9425C175.617 70.7792 175.535 70.575 175.535 70.33C175.535 69.6067 175.553 68.9183 175.588 68.265C175.599 68.09 175.658 67.9267 175.763 67.775C175.926 67.495 176.177 67.3492 176.515 67.3375C177.717 64.9692 178.318 62.7175 178.318 60.5825C178.318 60.3375 178.399 60.1333 178.563 59.97C178.738 59.795 178.948 59.7075 179.193 59.7075C179.274 59.7075 179.356 59.7192 179.438 59.7425H179.455C179.607 59.7308 180.342 59.7133 181.66 59.69C182.243 59.6783 182.681 59.6725 182.973 59.6725H183.655C183.69 59.6725 183.725 59.6783 183.76 59.69C183.795 59.7017 183.836 59.7133 183.883 59.725C184.046 59.7833 184.18 59.8825 184.285 60.0225C184.367 60.1275 184.425 60.25 184.46 60.39C184.46 60.4367 184.466 60.4892 184.478 60.5475C184.489 60.6292 184.495 60.7283 184.495 60.845V61.5975C184.483 62.0408 184.46 62.8167 184.425 63.925C184.355 65.9083 184.32 67.0225 184.32 67.2675H184.373C184.419 67.2792 184.46 67.285 184.495 67.285C184.6 67.2967 184.705 67.3258 184.81 67.3725C185.02 67.4775 185.172 67.6467 185.265 67.88C185.3 67.95 185.323 68.0317 185.335 68.125C185.358 68.23 185.376 68.3642 185.388 68.5275C185.411 68.7725 185.423 69.0992 185.423 69.5075V71.065C185.423 71.31 185.335 71.5142 185.16 71.6775C184.997 71.8525 184.793 71.94 184.548 71.94C184.303 71.94 184.093 71.8525 183.918 71.6775C183.754 71.5142 183.673 71.31 183.673 71.065V69ZM178.475 67.32C179.42 67.2967 180.167 67.285 180.715 67.285C181.45 67.2733 182.068 67.2675 182.57 67.2675C182.57 66.9292 182.605 65.7917 182.675 63.855C182.71 62.77 182.733 62.0058 182.745 61.5625V61.4225C182.442 61.4225 182.092 61.4283 181.695 61.44C181.018 61.4517 180.464 61.4633 180.033 61.475C179.904 63.3883 179.385 65.3367 178.475 67.32ZM187.285 69.07C187.063 69.1633 186.841 69.1633 186.62 69.07C186.398 68.9767 186.24 68.8192 186.147 68.5975C186.054 68.3758 186.054 68.1542 186.147 67.9325C186.24 67.7108 186.398 67.5533 186.62 67.46C186.701 67.425 186.795 67.39 186.9 67.355C186.911 67.355 186.94 67.3492 186.987 67.3375C187.045 67.3142 187.086 67.2967 187.11 67.285L187.232 67.2325C187.407 67.0925 187.559 66.7892 187.687 66.3225C187.827 65.8558 187.92 65.2492 187.967 64.5025C188.014 63.7558 188.002 62.5367 187.932 60.845C187.932 60.775 187.938 60.6992 187.95 60.6175C187.961 60.4075 188.043 60.2267 188.195 60.075C188.346 59.9233 188.533 59.8358 188.755 59.8125C189.606 59.7425 191.234 59.7075 193.637 59.7075C193.719 59.7075 193.8 59.7192 193.882 59.7425C194.127 59.7542 194.331 59.8475 194.495 60.0225C194.658 60.1975 194.734 60.4075 194.722 60.6525C194.71 61.0025 194.67 61.4867 194.6 62.105C194.518 62.7233 194.471 63.1608 194.46 63.4175C194.401 64.3625 194.372 65.9375 194.372 68.1425C194.372 68.3875 194.285 68.5975 194.11 68.7725C193.946 68.9358 193.742 69.0175 193.497 69.0175C193.252 69.0175 193.042 68.9358 192.867 68.7725C192.704 68.5975 192.622 68.3875 192.622 68.1425C192.622 65.9025 192.651 64.2925 192.71 63.3125C192.733 63.0208 192.78 62.5483 192.85 61.895L192.902 61.4575C191.467 61.4458 190.405 61.4633 189.717 61.51C189.764 62.7467 189.758 63.7792 189.7 64.6075C189.653 65.4708 189.548 66.2 189.385 66.795C189.151 67.6233 188.807 68.2242 188.352 68.5975C188.165 68.7375 187.938 68.8542 187.67 68.9475C187.658 68.9475 187.576 68.9708 187.425 69.0175C187.366 69.0408 187.32 69.0583 187.285 69.07ZM198.036 68.4575C197.966 68.6792 197.82 68.8483 197.598 68.965C197.388 69.07 197.167 69.0817 196.933 69C196.712 68.93 196.543 68.79 196.426 68.58C196.321 68.3583 196.309 68.1308 196.391 67.8975C196.403 67.8392 196.438 67.7108 196.496 67.5125C196.566 67.3142 196.618 67.1683 196.653 67.075L196.793 66.725C196.863 66.5617 196.922 66.4217 196.968 66.305C197.027 66.1883 197.091 66.06 197.161 65.92C197.231 65.78 197.307 65.6575 197.388 65.5525C197.493 65.4008 197.604 65.2608 197.721 65.1325C197.091 64.7358 196.712 64.1992 196.583 63.5225C196.502 63.0908 196.543 62.6242 196.706 62.1225C196.869 61.6092 197.091 61.2008 197.371 60.8975C198.083 60.1275 199.185 59.7367 200.678 59.725C201.518 59.725 202.545 59.8533 203.758 60.11C204.038 60.1683 204.237 60.3317 204.353 60.6C204.458 60.7517 204.511 60.9208 204.511 61.1075C204.499 61.5742 204.441 62.7642 204.336 64.6775C204.254 66.1242 204.225 67.2792 204.248 68.1425C204.26 68.3758 204.178 68.58 204.003 68.755C203.84 68.93 203.636 69.0233 203.391 69.035C203.158 69.0467 202.953 68.9708 202.778 68.8075C202.603 68.6325 202.51 68.4225 202.498 68.1775C202.475 67.5008 202.487 66.7133 202.533 65.815C201.705 65.8733 200.958 65.8792 200.293 65.8325L200.153 65.8675C199.535 65.9258 199.092 66.1475 198.823 66.5325L198.683 66.795L198.561 67.0225C198.526 67.0575 198.479 67.1508 198.421 67.3025C198.374 67.4425 198.339 67.5475 198.316 67.6175L198.193 68.0375C198.123 68.2358 198.071 68.3758 198.036 68.4575ZM202.621 64.0825C202.691 63.0092 202.732 62.21 202.743 61.685C201.962 61.545 201.273 61.475 200.678 61.475C199.698 61.475 199.028 61.6792 198.666 62.0875C198.549 62.2042 198.45 62.385 198.368 62.63C198.298 62.875 198.275 63.0558 198.298 63.1725C198.38 63.5808 198.858 63.8608 199.733 64.0125C200.445 64.1292 201.332 64.1467 202.393 64.065C202.475 64.065 202.551 64.0708 202.621 64.0825ZM217.745 68.72C216.52 67.3433 215.487 66.06 214.647 64.87L213.177 66.41L213.16 66.445C213.206 66.9817 213.265 67.5242 213.335 68.0725C213.37 68.3058 213.317 68.5217 213.177 68.72C213.037 68.9067 212.845 69.0175 212.6 69.0525C212.366 69.0875 212.151 69.035 211.952 68.895C211.766 68.755 211.655 68.5625 211.62 68.3175C211.526 67.6642 211.456 66.9992 211.41 66.3225C211.363 65.6225 211.334 65.0917 211.322 64.73C211.322 64.3567 211.322 63.6392 211.322 62.5775C211.334 61.5042 211.34 60.8333 211.34 60.565C211.34 60.32 211.421 60.1158 211.585 59.9525C211.76 59.7775 211.97 59.69 212.215 59.69C212.46 59.69 212.664 59.7775 212.827 59.9525C213.002 60.1158 213.09 60.32 213.09 60.565C213.09 60.9267 213.084 61.5275 213.072 62.3675C213.072 63.1958 213.072 63.7733 213.072 64.1C215.464 61.86 216.841 60.565 217.202 60.215C217.366 60.04 217.57 59.9525 217.815 59.9525C218.06 59.9525 218.264 60.04 218.427 60.215C218.602 60.3783 218.69 60.5825 218.69 60.8275C218.69 61.0725 218.602 61.2767 218.427 61.44C217.867 62.0117 217.051 62.7642 215.977 63.6975C216.794 64.8875 217.815 66.1767 219.04 67.565C219.203 67.74 219.279 67.95 219.267 68.195C219.256 68.4283 219.156 68.6267 218.97 68.79C218.795 68.9533 218.585 69.0292 218.34 69.0175C218.106 69.0058 217.908 68.9067 217.745 68.72ZM222.988 68.965C222.393 68.8483 221.868 68.6267 221.413 68.3C220.958 67.9617 220.602 67.5708 220.346 67.1275C220.101 66.6842 219.92 66.2175 219.803 65.7275C219.698 65.2375 219.663 64.7358 219.698 64.2225C219.733 63.5575 219.867 62.9217 220.101 62.315C220.346 61.6967 220.719 61.1483 221.221 60.67C221.734 60.1917 222.329 59.9058 223.006 59.8125C223.111 59.7892 223.227 59.7775 223.356 59.7775C223.554 59.6608 223.764 59.62 223.986 59.655L224.091 59.6725C224.149 59.6725 224.219 59.6783 224.301 59.69C224.382 59.69 224.47 59.7017 224.563 59.725C224.668 59.7367 224.773 59.7542 224.878 59.7775C224.983 59.8008 225.077 59.83 225.158 59.865C225.847 60.145 226.407 60.6 226.838 61.23C227.282 61.86 227.573 62.5308 227.713 63.2425C227.853 63.9542 227.877 64.66 227.783 65.36C227.608 66.55 227.136 67.4892 226.366 68.1775C225.456 68.9825 224.33 69.245 222.988 68.965ZM223.338 67.25C224.12 67.4133 224.744 67.285 225.211 66.865C225.654 66.4683 225.934 65.885 226.051 65.115C226.156 64.3333 226.068 63.5983 225.788 62.91C225.508 62.2217 225.106 61.755 224.581 61.51C224.406 61.6267 224.219 61.6733 224.021 61.65C223.997 61.65 223.817 61.615 223.478 61.545C223.373 61.5333 223.297 61.5275 223.251 61.5275C222.784 61.5975 222.376 61.895 222.026 62.42C221.676 62.9333 221.483 63.5633 221.448 64.31C221.402 65.0683 221.547 65.7158 221.886 66.2525C222.212 66.7892 222.697 67.1217 223.338 67.25ZM232.857 68.16C232.857 68.405 232.769 68.6092 232.594 68.7725C232.419 68.9358 232.209 69.0175 231.964 69.0175C231.719 69.0175 231.515 68.93 231.352 68.755C231.189 68.58 231.107 68.37 231.107 68.125C231.165 65.0917 231.165 62.8925 231.107 61.5275C230.92 61.5275 230.588 61.5217 230.109 61.51C229.643 61.4983 229.281 61.4925 229.024 61.4925C228.779 61.4925 228.575 61.405 228.412 61.23C228.249 61.055 228.167 60.845 228.167 60.6C228.167 60.355 228.254 60.1508 228.429 59.9875C228.604 59.8242 228.814 59.7425 229.059 59.7425C232.163 59.8008 234.158 59.8125 235.044 59.7775C235.289 59.7658 235.499 59.8417 235.674 60.005C235.849 60.1683 235.943 60.3725 235.954 60.6175C235.966 60.8625 235.89 61.0725 235.727 61.2475C235.564 61.4225 235.359 61.5158 235.114 61.5275C234.438 61.5508 233.685 61.5625 232.857 61.5625C232.915 62.9508 232.915 65.15 232.857 68.16ZM237.544 68.16C237.544 67.6 237.503 66.4275 237.422 64.6425C237.352 62.7642 237.328 61.3758 237.352 60.4775C237.363 60.2442 237.457 60.0458 237.632 59.8825C237.807 59.7075 238.011 59.6258 238.244 59.6375C238.489 59.6492 238.693 59.7425 238.857 59.9175C239.032 60.0925 239.113 60.3025 239.102 60.5475C239.078 61.3875 239.102 62.7233 239.172 64.555C239.253 66.2817 239.294 67.4833 239.294 68.16C239.294 68.405 239.207 68.615 239.032 68.79C238.868 68.9533 238.664 69.035 238.419 69.035C238.174 69.035 237.964 68.9533 237.789 68.79C237.626 68.615 237.544 68.405 237.544 68.16ZM238.787 56.785C238.962 56.9483 239.049 57.1525 239.049 57.3975C239.049 57.6425 238.962 57.8525 238.787 58.0275C238.623 58.1908 238.419 58.2725 238.174 58.2725C237.929 58.2725 237.719 58.1908 237.544 58.0275C237.381 57.8525 237.299 57.6425 237.299 57.3975C237.299 57.1525 237.381 56.9483 237.544 56.785C237.719 56.61 237.929 56.5225 238.174 56.5225C238.419 56.5225 238.623 56.61 238.787 56.785ZM243.216 69.28C242.983 69.35 242.761 69.3208 242.551 69.1925C242.341 69.0758 242.207 68.9008 242.148 68.6675C242.113 68.5392 242.084 68.4167 242.061 68.3C242.038 68.2417 242.02 68.1833 242.008 68.125C241.868 67.425 241.763 66.7075 241.693 65.9725C241.623 65.2258 241.571 64.3333 241.536 63.295C241.501 62.2567 241.472 61.545 241.448 61.16C241.413 61.09 241.384 61.0142 241.361 60.9325C241.326 60.7692 241.338 60.6058 241.396 60.4425C241.419 60.2442 241.501 60.0692 241.641 59.9175C241.793 59.7658 241.973 59.6783 242.183 59.655C242.382 59.6433 242.563 59.6842 242.726 59.7775C243.659 59.6258 244.517 59.5617 245.298 59.585C246.057 59.5967 246.693 59.7017 247.206 59.9C247.976 60.1917 248.454 60.6642 248.641 61.3175C248.886 62.2625 248.74 63.0442 248.203 63.6625C248.122 63.7675 248.028 63.8667 247.923 63.96C247.993 63.995 248.058 64.0417 248.116 64.1C248.594 64.4383 248.915 64.8467 249.078 65.325C249.242 65.7917 249.242 66.2642 249.078 66.7425C248.95 67.1625 248.717 67.5417 248.378 67.88C248.052 68.2067 247.667 68.4575 247.223 68.6325C246.453 68.9242 245.281 69.0292 243.706 68.9475C243.578 69.1225 243.414 69.2333 243.216 69.28ZM243.618 67.18C244.132 67.2267 244.663 67.2442 245.211 67.2325C245.771 67.2092 246.232 67.1275 246.593 66.9875C246.803 66.9058 246.978 66.795 247.118 66.655C247.27 66.515 247.369 66.3692 247.416 66.2175C247.498 65.9608 247.393 65.7217 247.101 65.5C246.716 65.22 246.115 65.0975 245.298 65.1325C244.82 65.1558 244.19 65.2433 243.408 65.395C243.455 66.06 243.525 66.655 243.618 67.18ZM243.303 63.505C244.423 63.4233 245.304 63.2717 245.946 63.05C246.401 62.8983 246.71 62.7233 246.873 62.525C247.002 62.385 247.037 62.1983 246.978 61.965C246.943 61.7667 246.815 61.6208 246.593 61.5275C246.267 61.4108 245.818 61.3467 245.246 61.335C244.651 61.3233 243.974 61.37 243.216 61.475C243.239 61.9883 243.268 62.665 243.303 63.505Z" fill="#FF9100"/>
</g>
<defs>
<clipPath id="clip0_142_58">
<rect width="251" height="74" fill="white"/>
</clipPath>
</defs>
</svg>
