<svg width="86" height="86" viewBox="0 0 86 86" fill="none" xmlns="http://www.w3.org/2000/svg">
<path fill-rule="evenodd" clip-rule="evenodd" d="M43 86C66.7482 86 86 66.7482 86 43C86 19.2518 66.7482 0 43 0C19.2518 0 0 19.2518 0 43C0 66.7482 19.2518 86 43 86ZM23 56V59H43C43 54.5333 41.45 50.75 38.35 47.65C35.25 44.55 31.4667 43 27 43C26.3 43 25.625 43.0417 24.975 43.125C24.325 43.2083 23.6667 43.3333 23 43.5C25.8333 44.2333 28.375 45.7417 30.625 48.025C32.875 50.3083 34.3333 52.9667 35 56H23ZM45.6 55.325C45.8667 56.375 46 57.6 46 59H63V56H51C51.5667 53.0333 53 50.3917 55.3 48.075C57.6 45.7583 60.1667 44.2333 63 43.5C62.3333 43.3333 61.675 43.2083 61.025 43.125C60.375 43.0417 59.7 43 59 43C56.0667 43 53.2667 43.8 50.6 45.4C47.9333 47 45.9333 49.2667 44.6 52.2C45 53.2333 45.3333 54.275 45.6 55.325ZM43.75 42.25C43.0167 44.45 42.8 46.8167 43.1 49.35C43.8667 47.85 44.85 46.475 46.05 45.225C47.25 43.975 48.5833 43 50.05 42.3C50.4833 40 51.525 37.8417 53.175 35.825C54.825 33.8083 56.5833 32.2167 58.45 31.05C56.2167 31.1167 54.1 31.6333 52.1 32.6C50.1 33.5667 48.3917 34.8667 46.975 36.5C45.5583 38.1333 44.4833 40.05 43.75 42.25ZM38.3 44.05C38.9333 44.55 39.5167 45.05 40.05 45.55C40.1833 44.3167 40.4583 43.075 40.875 41.825C41.2917 40.575 41.8 39.4167 42.4 38.35C41.6667 35.75 40.4 33.4417 38.6 31.425C36.8 29.4083 34.7333 27.9333 32.4 27C33.8667 28.8667 35 30.9333 35.8 33.2C36.6 35.4667 37 37.8667 37 40.4C37 40.7 36.975 41.0917 36.925 41.575C36.875 42.0583 36.8 42.5 36.7 42.9C37.1333 43.1667 37.6667 43.55 38.3 44.05Z" fill="white"/>
</svg>
