<svg id="Слой_1" data-name="Слой 1" xmlns="http://www.w3.org/2000/svg" viewBox="0 0 15.96 10.84"><path d="M11.4,6.56a.54.54,0,0,0-.51.27h0a.53.53,0,0,0-.51-.27.58.58,0,0,0-.57.64c0,.29.1.47,1.09,1.27h0c1-.8,1.08-1,1.08-1.27A.58.58,0,0,0,11.4,6.56Z" transform="translate(-0.04 -2.58)" style="fill:#ef7d95"/><path d="M.74,13.42H15.08a.16.16,0,0,0,.16-.15V12a.16.16,0,0,0-.05-.11L12.65,9.34a.14.14,0,0,0-.21,0L10,11.74a.12.12,0,0,1-.1,0H.74a.16.16,0,0,0-.16.16v1.33A.16.16,0,0,0,.74,13.42Z" transform="translate(-0.04 -2.58)" style="fill:#fff"/><path d="M12.5,8.18,11.26,9.42a.06.06,0,0,1-.11,0V9.33a.07.07,0,0,1,.06-.07h0a.06.06,0,0,0,.06-.06V8.92s0-.07-.06-.07h-.76a.07.07,0,0,0-.06.07V9.2a.06.06,0,0,0,.06.06h0s.06,0,.06.07v.79a.09.09,0,0,1,0,.05l-.65.64,0,0H.88a.23.23,0,0,0-.17.07l-.54.64a.07.07,0,0,0,.07.07H9.86a.06.06,0,0,0,.05,0L12.52,9a.07.07,0,0,1,.09,0l2.68,2.68,0,0h.61a.06.06,0,0,0,0-.11L12.59,8.18A.07.07,0,0,0,12.5,8.18Z" transform="translate(-0.04 -2.58)" style="fill:#fff"/><path d="M9.85,10.39a3.8,3.8,0,0,0-.62-.11c-.17-.06-1.64-.4-1.94-.43a.44.44,0,0,1-.38-.24,1.13,1.13,0,0,1-.4,0,.31.31,0,0,1-.27-.16.59.59,0,0,0,.59,0c.23-.07.43-.11.62-.18a.34.34,0,0,0,.22-.28c0-.05.1-.13,0-.19a4.19,4.19,0,0,1-.61-.48.59.59,0,0,0-.31-.13l0-.52-.31.43c0,.09.17.17.17.17A.52.52,0,0,1,6.25,8s0-.17-.12-.17a.69.69,0,0,0-.19.41.81.81,0,0,0,.13.51.48.48,0,0,1-.2-.27s-1.4.34-2-.24S3.09,6.75,2.37,6.07A2.09,2.09,0,0,0,.93,5.44C.53,5.22.52,4.19.65,3.88a2.1,2.1,0,0,1,2.25-1,3.19,3.19,0,0,1,2,.82A.77.77,0,0,1,4.81,4.9c-.28.27-.68.54-.21.61a.78.78,0,0,0,.82-.41,1.34,1.34,0,0,0-.07-1.5,2.9,2.9,0,0,0-1.77-1C3,2.54,1.19,2.44.58,3.4A4.16,4.16,0,0,0,.23,5.68a.56.56,0,0,1-.07.18,1.34,1.34,0,0,0-.12.7,2.69,2.69,0,0,0,.22.77c.07.19.24.27.22.58a5.33,5.33,0,0,0,0,1,.83.83,0,0,1,.05.36,13.13,13.13,0,0,0,.62,1.45.17.17,0,0,0,.18.11l.41,0c.07,0,.14-.05.07-.2s-.34-.09-.34-.09a9.52,9.52,0,0,1-.39-.91c0-.12.22-.41.29-.72A5.74,5.74,0,0,0,1.46,8a3.14,3.14,0,0,1,0,.73A4,4,0,0,0,3,10.13a4.77,4.77,0,0,0,2.23.21,2.82,2.82,0,0,1-.52-.49l.51.42a1.33,1.33,0,0,0,.79.17c.36,0,.51.18.79.23s2.26,0,2.39,0,.25,0,.18-.13-.33-.14-.48-.14-.67-.16-.89-.21A7.52,7.52,0,0,0,6.86,10c-.34,0-.39-.23-.39-.23.11.18.46.2.6.2a14,14,0,0,1,1.49.25,2.29,2.29,0,0,0,.6.1c.43.06.39.3.39.3h.27A.13.13,0,0,0,9.85,10.39Z" transform="translate(-0.04 -2.58)" style="fill:#f28e3b"/><path d="M1.17,10.74A9.37,9.37,0,0,1,.5,9.28a3.49,3.49,0,0,0,0-.35.36.36,0,0,1,0-.16,2,2,0,0,0-.18.38,1.68,1.68,0,0,0,.17.58c.07.16.21.65.27.85s.15.2.22.21a1.08,1.08,0,0,0,.26,0S1.21,10.76,1.17,10.74Z" transform="translate(-0.04 -2.58)" style="fill:#f28e3b"/></svg>