<svg width="92" height="74" viewBox="0 0 92 74" fill="none" xmlns="http://www.w3.org/2000/svg">
<g clip-path="url(#clip0_206_119)">
<path d="M83.0279 15.3103H8.97214C3.98762 15.3103 0 11.8945 0 7.68567C0 3.47685 3.98762 0 8.97214 0H83.0279C87.9412 0 92 3.41585 92 7.68567C91.9288 11.8945 87.9412 15.3103 83.0279 15.3103Z" fill="white" stroke="white" stroke-miterlimit="10"/>
<path d="M85.3608 43.3792H40.6524C37.0587 43.3792 34.0741 40.4629 34.0741 36.8176V34.6304C34.0741 31.0459 36.9978 28.0688 40.6524 28.0688H85.4217C89.0154 28.0688 92 30.9851 92 34.6304V36.8176C91.9391 40.4629 89.0154 43.3792 85.3608 43.3792Z" fill="white" stroke="white" stroke-width="0.8578" stroke-miterlimit="10"/>
<path d="M84.3571 73.9998H21.2726C17.0872 73.9998 13.6296 70.5975 13.6296 66.3446C13.6296 62.1525 17.0265 58.6895 21.2726 58.6895H84.3571C88.5425 58.6895 92 62.0918 92 66.3446C91.9393 70.5975 88.5425 73.9998 84.3571 73.9998Z" fill="white" stroke="white" stroke-miterlimit="10"/>
</g>
<defs>
<clipPath id="clip0_206_119">
<rect width="92" height="74" fill="white"/>
</clipPath>
</defs>
</svg>
