<svg width="86" height="86" viewBox="0 0 86 86" fill="none" xmlns="http://www.w3.org/2000/svg">
<path fill-rule="evenodd" clip-rule="evenodd" d="M43 86C66.7482 86 86 66.7482 86 43C86 19.2518 66.7482 0 43 0C19.2518 0 0 19.2518 0 43C0 66.7482 19.2518 86 43 86ZM34.241 62.35L43.241 53.4L52.191 62.35C52.7577 62.9167 53.4327 63.2417 54.216 63.325C54.9994 63.4083 55.6744 63.1667 56.241 62.6L62.441 56.4C63.041 55.8 63.341 55.0798 63.341 54.2393C63.341 53.3989 63.041 52.6858 62.441 52.1L53.491 43.15L62.441 34.15C63.041 33.55 63.3327 32.8333 63.316 32C63.2994 31.1667 63.0077 30.45 62.441 29.85L56.491 23.9C55.891 23.3333 55.1744 23.0417 54.341 23.025C53.5077 23.0083 52.791 23.3 52.191 23.9L43.241 32.9L34.241 23.9C33.641 23.3 32.9208 23 32.0803 23C31.2399 23 30.5268 23.3 29.941 23.9L23.741 30.1C23.1744 30.6667 22.9327 31.3417 23.016 32.125C23.0994 32.9083 23.4244 33.5833 23.991 34.15L32.891 43.15L23.991 52.1C23.391 52.7 23.0827 53.425 23.066 54.275C23.0494 55.125 23.3577 55.8333 23.991 56.4L29.941 62.35C30.5077 62.9833 31.2244 63.3 32.091 63.3C32.9577 63.3 33.6744 62.9833 34.241 62.35ZM44.6304 40.8393C44.2567 41.2131 43.7935 41.4 43.241 41.4C42.6885 41.4 42.2254 41.2131 41.8516 40.8393C41.4779 40.4656 41.291 40.0025 41.291 39.45C41.291 38.8975 41.4779 38.4344 41.8516 38.0606C42.2254 37.6869 42.6885 37.5 43.241 37.5C43.7935 37.5 44.2567 37.6869 44.6304 38.0606C45.0042 38.4344 45.191 38.8975 45.191 39.45C45.191 40.0025 45.0042 40.4656 44.6304 40.8393ZM41.191 34.9L34.841 41.2L25.991 32.15L32.191 25.95L41.191 34.9ZM40.9304 44.4893C40.5567 44.8631 40.0935 45.05 39.541 45.05C38.9885 45.05 38.5254 44.8631 38.1516 44.4893C37.7779 44.1156 37.591 43.6525 37.591 43.1C37.591 42.5475 37.7779 42.0844 38.1516 41.7107C38.5254 41.3369 38.9885 41.15 39.541 41.15C40.0935 41.15 40.5567 41.3369 40.9304 41.7107C41.3042 42.0844 41.491 42.5475 41.491 43.1C41.491 43.6525 41.3042 44.1156 40.9304 44.4893ZM44.6304 48.1894C44.2567 48.5631 43.7935 48.75 43.241 48.75C42.6885 48.75 42.2254 48.5631 41.8516 48.1894C41.4779 47.8156 41.291 47.3525 41.291 46.8C41.291 46.2475 41.4779 45.7844 41.8516 45.4107C42.2254 45.0369 42.6885 44.85 43.241 44.85C43.7935 44.85 44.2567 45.0369 44.6304 45.4107C45.0042 45.7844 45.191 46.2475 45.191 46.8C45.191 47.3525 45.0042 47.8156 44.6304 48.1894ZM48.2804 44.4893C47.9066 44.8631 47.4435 45.05 46.891 45.05C46.3385 45.05 45.8754 44.8631 45.5017 44.4893C45.1279 44.1156 44.941 43.6525 44.941 43.1C44.941 42.5475 45.1279 42.0844 45.5017 41.7107C45.8754 41.3369 46.3385 41.15 46.891 41.15C47.4435 41.15 47.9066 41.3369 48.2804 41.7107C48.6541 42.0844 48.841 42.5475 48.841 43.1C48.841 43.6525 48.6541 44.1156 48.2804 44.4893ZM54.191 60.35L45.191 51.35L51.441 45.2L60.391 54.15L54.191 60.35Z" fill="white"/>
</svg>
