<svg width="62" height="1087" viewBox="0 0 62 1087" fill="none" xmlns="http://www.w3.org/2000/svg">
<g clip-path="url(#clip0_142_1100)">
<path d="M0.887301 8.88954C0.887301 8.88954 0.354921 8.88954 0 9.15534V20.496C1.46405 21.6035 2.70627 26.0334 4.39214 29.1343C6.21111 32.5011 6.07801 39.7662 6.07801 39.7662C5.01325 39.7662 4.08159 39.7662 3.32738 39.8105C9.22793 39.7662 26.974 39.5004 26.974 39.5004C26.974 39.5004 28.1718 39.5004 28.7929 41.0066C29.414 42.5128 31.8541 47.6958 36.7343 49.2463C41.6144 50.7524 46.4946 49.2463 47.6925 46.1896C48.8903 43.1329 47.3819 41.6268 48.8903 40.6965C50.3987 39.7662 54.7021 41.3167 57.4084 38.26C60.159 35.2034 60.7801 31.5708 58.3401 28.2041C57.4084 27.2738 56.8317 25.7676 58.0295 25.1474C59.2274 24.5272 62.2886 22.4008 61.978 18.1481C61.6674 13.8954 58.6063 10.8387 54.3472 10.5286C50.0882 10.2185 50.9755 9.02243 50.9755 8.09214C50.9755 7.16185 51.5966 3.8394 49.1565 1.71303C46.7164 -0.413335 41.5257 -0.723431 37.5772 1.71303C33.6287 4.1495 32.564 7.64916 30.1239 9.15534C28.3049 10.0856 25.2437 9.77553 25.2437 9.77553L17.1249 9.50973H17.1693C16.9918 11.9462 16.4594 17.838 14.7736 20.0087C12.644 22.7552 13.8419 25.8119 10.8251 25.1917C7.76389 24.5715 6.56603 22.1351 8.07444 18.1924C9.49413 14.4713 10.1152 11.5918 9.18357 9.19963L0.887301 8.88954ZM54.4803 23.1096C51.8184 24.35 48.8459 23.5083 47.8256 21.3377C46.8052 19.1227 48.1361 16.3318 50.798 15.1358C53.4599 13.8954 56.4324 14.7371 57.4528 16.9077C58.4732 19.1227 57.1422 21.9136 54.4803 23.1096ZM46.7608 30.3304C47.515 28.2041 49.9994 27.1852 52.3508 27.9826C54.7021 28.8243 55.9887 31.1721 55.2345 33.2985C54.4803 35.4249 51.9959 36.4437 49.6445 35.6464C47.2932 34.849 46.0066 32.4568 46.7608 30.3304ZM41.5701 12.3892C39.7955 11.2374 39.5736 8.44654 41.0821 6.23158C42.5905 4.01661 45.208 3.08632 46.9826 4.2381C48.7572 5.38989 48.979 8.18075 47.4706 10.3957C45.9622 12.655 43.3447 13.541 41.5701 12.3892ZM38.3314 35.5578C40.6384 35.0262 43.0785 37.0196 43.7883 40.0763C44.4982 43.1329 43.2116 46.0124 40.949 46.544C38.6863 47.0756 36.2019 45.0821 35.4921 42.0255C34.7379 38.9688 36.0244 36.0893 38.3314 35.5578ZM30.1682 24.7487C30.1682 24.7487 27.4176 22.3122 27.4176 18.9455C27.4176 14.6484 29.8577 12.8765 32.2978 12.8765C35.359 12.8765 36.2019 17.9266 42.3686 20.1859C45.7404 21.382 45.4298 26.8751 42.9898 28.1155C41.0377 29.09 39.0413 30.862 36.9117 33.9187C34.7822 36.9753 29.2809 37.2854 28.3936 32.7226C27.4176 28.0712 30.1682 24.7487 30.1682 24.7487Z" fill="white"/>
<path d="M38.3315 35.5577C40.6384 35.0261 43.0785 37.0196 43.7884 40.0763C44.4982 43.1329 43.2116 46.0124 40.949 46.544C38.6864 47.0756 36.2019 45.0821 35.4921 42.0255C34.7379 38.9688 36.0245 36.0893 38.3315 35.5577Z" fill="#FEC7DC"/>
<path d="M52.3508 27.9826C54.7022 28.8242 55.9888 31.1721 55.2345 33.2985C54.4803 35.4249 51.9959 36.4437 49.6445 35.6463C47.2932 34.8047 46.0066 32.4568 46.7608 30.3304C47.515 28.204 49.9995 27.1852 52.3508 27.9826Z" fill="#FEC7DC"/>
<path d="M47.8255 21.3377C46.8051 19.1227 48.1361 16.3318 50.798 15.1357C53.4599 13.8954 56.4323 14.737 57.4527 16.9077C58.4731 19.1227 57.1422 21.9135 54.4803 23.1096C51.8184 24.35 48.8459 23.5526 47.8255 21.3377Z" fill="#FEC7DC"/>
<path d="M41.5701 12.3892C39.7955 11.2374 39.5736 8.44654 41.0821 6.23157C42.5905 4.0166 45.208 3.08631 46.9826 4.2381C48.7572 5.38988 48.979 8.18074 47.4706 10.3957C45.9622 12.655 43.3447 13.541 41.5701 12.3892Z" fill="#FEC7DC"/>
<path d="M27.4177 18.9455C27.4177 14.6485 29.8578 12.8765 32.2979 12.8765C35.3591 12.8765 36.202 17.9266 42.3688 20.1859C45.7405 21.382 45.4299 26.8751 42.9899 28.1155C41.0378 29.0901 39.0414 30.862 36.9118 33.9187C34.7823 36.9754 29.2811 37.2854 28.3938 32.7226C27.4621 28.1598 30.2127 24.793 30.2127 24.793C30.2127 24.793 27.4177 22.3123 27.4177 18.9455Z" fill="#FEC7DC"/>
<path d="M4.39221 29.1344C6.21118 32.5011 6.07808 39.7662 6.07808 39.7662C5.01332 39.7662 4.08166 39.7662 3.32745 39.8105C3.28308 39.8105 3.23872 39.8105 3.19435 39.8105C3.14999 39.8105 3.10562 39.8105 3.06126 39.8105C3.01689 39.8105 2.97253 39.8105 2.92816 39.8105C2.8838 39.8105 2.79507 39.8105 2.7507 39.8105C2.70634 39.8105 2.70634 39.8105 2.66197 39.8105C2.61761 39.8105 2.52888 39.8105 2.48451 39.8105H2.44015C2.39578 39.8105 2.35142 39.8105 2.30705 39.8105C2.26269 39.8105 2.21832 39.8105 2.17396 39.8105H2.12959C2.08523 39.8105 2.04086 39.8105 2.04086 39.8105C1.95213 39.8105 1.8634 39.8105 1.81904 39.8105C1.77467 39.8105 1.73031 39.8105 1.68594 39.8105C0.843005 39.8105 0.354989 39.6333 0.0444336 39.4118V20.5403C1.46412 21.6478 2.70634 26.0777 4.39221 29.1344Z" fill="#DDDDDD"/>
<path d="M14.7736 20.0087C12.644 22.7552 13.8419 25.8119 10.8251 25.1917C7.76387 24.5715 6.56602 22.135 8.07443 18.1924C9.49411 14.4712 10.1152 11.5918 9.18356 9.19962L17.1249 9.50972H17.1693C16.9918 11.9462 16.4594 17.838 14.7736 20.0087Z" fill="#DDDDDD"/>
<path d="M0.887301 313.89C0.887301 313.89 0.354921 313.89 0 314.155V325.496C1.46405 326.603 2.70627 331.033 4.39214 334.134C6.21111 337.501 6.07801 344.766 6.07801 344.766C5.94492 344.766 5.81182 344.766 5.63436 344.766C12.8659 344.678 26.9296 344.5 26.9296 344.5C26.9296 344.5 28.1275 344.5 28.7486 346.007C29.3697 347.513 31.8098 352.696 36.6899 354.246C41.5701 355.752 46.4502 354.246 47.6481 351.19C48.8459 348.133 47.3375 346.627 48.8459 345.696C50.3544 344.766 54.6578 346.317 57.364 343.26C60.0703 340.203 60.7358 336.571 58.2957 333.204C57.364 332.274 56.7873 330.768 57.9851 330.147C59.183 329.527 62.2442 327.401 61.9336 323.148C61.6231 318.895 58.5619 315.839 54.3028 315.529C50.0438 315.219 50.9311 314.022 50.9311 313.092C50.9311 312.162 51.5522 308.839 49.1121 306.713C46.6721 304.587 41.4813 304.277 37.5329 306.713C33.5844 309.15 32.6083 312.693 30.1682 314.2C28.3493 315.13 25.2881 314.82 25.2881 314.82L9.53849 314.244L17.1693 314.51C16.9918 316.946 16.4594 322.838 14.7736 325.009C12.644 327.755 13.8419 330.812 10.8251 330.192C7.80825 329.572 6.56603 327.135 8.07444 323.192C9.49413 319.471 10.1152 316.592 9.18357 314.2L0.887301 313.89ZM54.4803 328.11C51.8184 329.35 48.8459 328.508 47.8256 326.338C46.8052 324.167 48.1361 321.332 50.798 320.136C53.4599 318.895 56.4324 319.737 57.4528 321.908C58.4732 324.078 57.1422 326.914 54.4803 328.11ZM46.7608 335.33C47.515 333.204 49.9994 332.185 52.3508 332.983C54.7021 333.824 55.9887 336.172 55.2345 338.298C54.4803 340.425 51.9959 341.444 49.6445 340.646C47.2932 339.849 46.0066 337.457 46.7608 335.33ZM41.5701 317.389C39.7955 316.237 39.5736 313.447 41.0821 311.232C42.5461 308.972 45.208 308.086 46.9826 309.238C48.7572 310.39 48.979 313.181 47.4706 315.396C45.9622 317.655 43.3447 318.541 41.5701 317.389ZM38.3314 340.513C40.6384 339.982 43.0785 341.975 43.7883 345.032C44.4982 348.089 43.2116 350.968 40.949 351.5C38.6863 352.031 36.2019 350.038 35.4921 346.981C34.7379 343.969 36.0244 341.089 38.3314 340.513ZM30.1682 329.704C30.1682 329.704 27.4176 327.268 27.4176 323.901C27.4176 319.604 29.8577 317.832 32.2978 317.832C35.359 317.832 36.2019 322.882 42.3686 325.142C45.7404 326.338 45.4298 331.831 42.9898 333.071C41.0377 334.046 39.0413 335.818 36.9117 338.874C34.7822 341.931 29.2809 342.241 28.3936 337.678C27.5063 333.115 30.1682 329.704 30.1682 329.704Z" fill="#C4C4C4"/>
<path d="M38.3315 340.513C40.6384 339.982 43.0785 341.975 43.7884 345.032C44.4982 348.089 43.2116 350.968 40.949 351.5C38.6864 352.031 36.2019 350.038 35.4921 346.981C34.7379 343.969 36.0245 341.089 38.3315 340.513Z" fill="#E891B4"/>
<path d="M52.3508 332.983C54.7022 333.824 55.9888 336.172 55.2345 338.299C54.4803 340.425 51.9959 341.444 49.6445 340.646C47.2932 339.849 46.0066 337.457 46.7608 335.33C47.515 333.204 49.9995 332.141 52.3508 332.983Z" fill="#E891B4"/>
<path d="M54.4884 328.136C57.1362 326.917 58.451 324.128 57.4251 321.906C56.3992 319.685 53.4211 318.872 50.7733 320.091C48.1255 321.31 46.8107 324.099 47.8366 326.321C48.8625 328.543 51.8406 329.355 54.4884 328.136Z" fill="#E891B4"/>
<path d="M41.5701 317.389C39.7955 316.237 39.5736 313.447 41.0821 311.232C42.5461 308.972 45.208 308.086 46.9826 309.238C48.7572 310.39 48.979 313.181 47.4706 315.396C45.9622 317.655 43.3447 318.541 41.5701 317.389Z" fill="#E891B4"/>
<path d="M27.4177 323.945C27.4177 319.648 29.8578 317.876 32.2979 317.876C35.3591 317.876 36.202 322.927 42.3688 325.186C45.7405 326.382 45.4299 331.875 42.9899 333.115C41.0378 334.09 39.0414 335.862 36.9118 338.919C34.7823 341.975 29.2811 342.285 28.3938 337.723C27.5065 333.16 30.2127 329.793 30.2127 329.793C30.2127 329.793 27.4177 327.268 27.4177 323.945Z" fill="#E891B4"/>
<path d="M4.39221 334.134C6.21118 337.501 6.07808 344.766 6.07808 344.766C5.94499 344.766 5.81189 344.766 5.63443 344.766C5.41261 344.766 5.19078 344.766 5.01332 344.766C4.7915 344.766 4.56967 344.766 4.39221 344.766C4.21475 344.766 3.99292 344.766 3.81546 344.766C3.7711 344.766 3.7711 344.766 3.72673 344.766C3.638 344.766 3.54927 344.766 3.46054 344.766H3.41618C3.32745 344.766 3.28308 344.766 3.19435 344.766C3.14999 344.766 3.10562 344.766 3.06126 344.766C3.01689 344.766 2.97253 344.766 2.92816 344.766C2.8838 344.766 2.79507 344.766 2.7507 344.766C2.70634 344.766 2.70634 344.766 2.66197 344.766C2.61761 344.766 2.52888 344.766 2.48451 344.766H2.44015C2.39578 344.766 2.35142 344.766 2.30705 344.766C2.26269 344.766 2.21832 344.766 2.17396 344.766H2.12959C2.08523 344.766 2.04086 344.766 2.04086 344.766C1.95213 344.766 1.8634 344.766 1.81904 344.766C1.77467 344.766 1.73031 344.766 1.68594 344.766C0.843005 344.766 0.354989 344.589 0.0444336 344.367V325.496C1.46412 326.648 2.70634 331.033 4.39221 334.134Z" fill="#8E8E8E"/>
<path d="M14.7736 325.009C12.6441 327.755 13.842 330.812 10.8252 330.192C7.80833 329.571 6.56611 327.135 8.07452 323.192C9.4942 319.471 10.1153 316.592 9.18365 314.2H9.53857L17.1694 314.465C16.9919 316.946 16.4595 322.838 14.7736 325.009Z" fill="#8E8E8E"/>
<path d="M0.887301 374.89C0.887301 374.89 0.354921 374.89 0 375.155V386.496C1.46405 387.603 2.70627 392.033 4.39214 395.134C6.21111 398.501 6.07801 405.766 6.07801 405.766C5.01325 405.766 4.08159 405.766 3.32738 405.81C9.22793 405.766 26.974 405.5 26.974 405.5C26.974 405.5 28.1718 405.5 28.7929 407.007C29.414 408.513 31.8541 413.696 36.7343 415.246C41.6144 416.752 46.4946 415.246 47.6925 412.19C48.8903 409.133 47.3819 407.627 48.8903 406.696C50.3987 405.766 54.7021 407.317 57.4084 404.26C60.159 401.203 60.7801 397.571 58.3401 394.204C57.4084 393.274 56.8317 391.768 58.0295 391.147C59.2274 390.527 62.2886 388.401 61.978 384.148C61.6674 379.895 58.6063 376.839 54.3472 376.529C50.0882 376.218 50.9755 375.022 50.9755 374.092C50.9755 373.162 51.5966 369.839 49.1565 367.713C46.7164 365.587 41.5257 365.277 37.5772 367.713C33.6287 370.149 32.564 373.649 30.1239 375.155C28.3049 376.086 25.2437 375.775 25.2437 375.775L17.1249 375.51H17.1693C16.9918 377.946 16.4594 383.838 14.7736 386.009C12.644 388.755 13.8419 391.812 10.8251 391.192C7.76389 390.572 6.56603 388.135 8.07444 384.192C9.49413 380.471 10.1152 377.592 9.18357 375.2L0.887301 374.89ZM54.4803 389.11C51.8184 390.35 48.8459 389.508 47.8256 387.338C46.8052 385.123 48.1361 382.332 50.798 381.136C53.4599 379.895 56.4324 380.737 57.4528 382.908C58.4732 385.123 57.1422 387.914 54.4803 389.11ZM46.7608 396.33C47.515 394.204 49.9994 393.185 52.3508 393.983C54.7021 394.824 55.9887 397.172 55.2345 399.298C54.4803 401.425 51.9959 402.444 49.6445 401.646C47.2932 400.849 46.0066 398.457 46.7608 396.33ZM41.5701 378.389C39.7955 377.237 39.5736 374.447 41.0821 372.232C42.5905 370.017 45.208 369.086 46.9826 370.238C48.7572 371.39 48.979 374.181 47.4706 376.396C45.9622 378.655 43.3447 379.541 41.5701 378.389ZM38.3314 401.558C40.6384 401.026 43.0785 403.02 43.7883 406.076C44.4982 409.133 43.2116 412.012 40.949 412.544C38.6863 413.076 36.2019 411.082 35.4921 408.025C34.7379 404.969 36.0244 402.089 38.3314 401.558ZM30.1682 390.749C30.1682 390.749 27.4176 388.312 27.4176 384.945C27.4176 380.648 29.8577 378.876 32.2978 378.876C35.359 378.876 36.2019 383.927 42.3686 386.186C45.7404 387.382 45.4298 392.875 42.9898 394.115C41.0377 395.09 39.0413 396.862 36.9117 399.919C34.7822 402.975 29.2809 403.285 28.3936 398.723C27.4176 394.071 30.1682 390.749 30.1682 390.749Z" fill="white"/>
<path d="M38.3315 401.558C40.6384 401.026 43.0785 403.02 43.7884 406.076C44.4982 409.133 43.2116 412.012 40.949 412.544C38.6864 413.076 36.2019 411.082 35.4921 408.025C34.7379 404.969 36.0245 402.089 38.3315 401.558Z" fill="#FEC7DC"/>
<path d="M52.3508 393.982C54.7022 394.824 55.9888 397.172 55.2345 399.298C54.4803 401.425 51.9959 402.444 49.6445 401.646C47.2932 400.805 46.0066 398.457 46.7608 396.33C47.515 394.204 49.9995 393.185 52.3508 393.982Z" fill="#FEC7DC"/>
<path d="M47.8255 387.338C46.8051 385.123 48.1361 382.332 50.798 381.136C53.4599 379.895 56.4323 380.737 57.4527 382.908C58.4731 385.123 57.1422 387.914 54.4803 389.11C51.8184 390.35 48.8459 389.553 47.8255 387.338Z" fill="#FEC7DC"/>
<path d="M41.5701 378.389C39.7955 377.237 39.5736 374.447 41.0821 372.232C42.5905 370.017 45.208 369.086 46.9826 370.238C48.7572 371.39 48.979 374.181 47.4706 376.396C45.9622 378.655 43.3447 379.541 41.5701 378.389Z" fill="#FEC7DC"/>
<path d="M27.4177 384.945C27.4177 380.648 29.8578 378.876 32.2979 378.876C35.3591 378.876 36.202 383.927 42.3688 386.186C45.7405 387.382 45.4299 392.875 42.9899 394.115C41.0378 395.09 39.0414 396.862 36.9118 399.919C34.7823 402.975 29.2811 403.285 28.3938 398.723C27.4621 394.16 30.2127 390.793 30.2127 390.793C30.2127 390.793 27.4177 388.312 27.4177 384.945Z" fill="#FEC7DC"/>
<path d="M4.39221 395.134C6.21118 398.501 6.07808 405.766 6.07808 405.766C5.01332 405.766 4.08166 405.766 3.32745 405.811C3.28308 405.811 3.23872 405.811 3.19435 405.811C3.14999 405.811 3.10562 405.811 3.06126 405.811C3.01689 405.811 2.97253 405.811 2.92816 405.811C2.8838 405.811 2.79507 405.811 2.7507 405.811C2.70634 405.811 2.70634 405.811 2.66197 405.811C2.61761 405.811 2.52888 405.811 2.48451 405.811H2.44015C2.39578 405.811 2.35142 405.811 2.30705 405.811C2.26269 405.811 2.21832 405.811 2.17396 405.811H2.12959C2.08523 405.811 2.04086 405.811 2.04086 405.811C1.95213 405.811 1.8634 405.811 1.81904 405.811C1.77467 405.811 1.73031 405.811 1.68594 405.811C0.843005 405.811 0.354989 405.633 0.0444336 405.412V386.54C1.46412 387.648 2.70634 392.078 4.39221 395.134Z" fill="#DDDDDD"/>
<path d="M14.7736 386.009C12.644 388.755 13.8419 391.812 10.8251 391.192C7.76387 390.571 6.56602 388.135 8.07443 384.192C9.49411 380.471 10.1152 377.592 9.18356 375.2L17.1249 375.51H17.1693C16.9918 377.946 16.4594 383.838 14.7736 386.009Z" fill="#DDDDDD"/>
<path d="M0.887301 252.89C0.887301 252.89 0.354921 252.89 0 253.155V264.496C1.46405 265.603 2.70627 270.033 4.39214 273.134C6.21111 276.501 6.07801 283.766 6.07801 283.766C5.94492 283.766 5.81182 283.766 5.63436 283.766C12.8659 283.678 26.9296 283.5 26.9296 283.5C26.9296 283.5 28.1275 283.5 28.7486 285.007C29.3697 286.513 31.8098 291.696 36.6899 293.246C41.5701 294.752 46.4502 293.246 47.6481 290.19C48.8459 287.133 47.3375 285.627 48.8459 284.696C50.3544 283.766 54.6578 285.317 57.364 282.26C60.1147 279.203 60.7358 275.571 58.2957 272.204C57.364 271.274 56.7873 269.768 57.9851 269.147C59.183 268.527 62.2442 266.401 61.9336 262.148C61.6231 257.895 58.5619 254.839 54.3028 254.529C50.0438 254.219 50.9311 253.022 50.9311 252.092C50.9311 251.162 51.5522 247.839 49.1121 245.713C46.6721 243.587 41.4813 243.277 37.5329 245.713C33.5844 248.15 32.6083 251.693 30.1682 253.2C28.3493 254.13 25.2881 253.82 25.2881 253.82L9.53849 253.244L17.1693 253.51C16.9918 255.946 16.4594 261.838 14.7736 264.009C12.644 266.755 13.8419 269.812 10.8251 269.192C7.80825 268.572 6.56603 266.135 8.07444 262.192C9.49413 258.471 10.1152 255.592 9.18357 253.2L0.887301 252.89ZM54.4803 267.11C51.8184 268.35 48.8459 267.508 47.8256 265.338C46.8052 263.167 48.1361 260.332 50.798 259.136C53.4599 257.895 56.4324 258.737 57.4528 260.908C58.4732 263.078 57.1422 265.914 54.4803 267.11ZM46.7608 274.33C47.515 272.204 49.9994 271.185 52.3508 271.983C54.7021 272.824 55.9887 275.172 55.2345 277.299C54.4803 279.425 51.9959 280.444 49.6445 279.646C47.2932 278.849 46.0066 276.457 46.7608 274.33ZM41.5701 256.389C39.7955 255.237 39.5736 252.447 41.0821 250.232C42.5461 247.972 45.208 247.086 46.9826 248.238C48.7572 249.39 48.979 252.181 47.4706 254.396C45.9622 256.655 43.3447 257.541 41.5701 256.389ZM38.3314 279.513C40.6384 278.982 43.0785 280.975 43.7883 284.032C44.4982 287.089 43.2116 289.968 40.949 290.5C38.6863 291.031 36.2019 289.038 35.4921 285.981C34.7379 282.969 36.0244 280.089 38.3314 279.513ZM30.1682 268.704C30.1682 268.704 27.4176 266.268 27.4176 262.901C27.4176 258.604 29.8577 256.832 32.2978 256.832C35.359 256.832 36.2019 261.882 42.3686 264.142C45.7404 265.338 45.4298 270.831 42.9898 272.071C41.0377 273.046 39.0413 274.818 36.9117 277.874C34.7822 280.931 29.2809 281.241 28.3936 276.678C27.5063 272.115 30.1682 268.704 30.1682 268.704Z" fill="#B7957E"/>
<path d="M38.3315 279.513C40.6384 278.982 43.0785 280.975 43.7884 284.032C44.4982 287.089 43.2116 289.968 40.949 290.5C38.6864 291.031 36.2019 289.038 35.4921 285.981C34.7379 282.969 36.0245 280.089 38.3315 279.513Z" fill="#FF7D94"/>
<path d="M52.3508 271.983C54.7022 272.824 55.9888 275.172 55.2345 277.299C54.4803 279.425 51.9959 280.444 49.6445 279.646C47.2932 278.849 46.0066 276.457 46.7608 274.33C47.515 272.204 49.9995 271.185 52.3508 271.983Z" fill="#FF7D94"/>
<path d="M54.4847 267.14C57.1325 265.921 58.4473 263.131 57.4214 260.91C56.3955 258.688 53.4174 257.875 50.7696 259.094C48.1218 260.313 46.807 263.102 47.8329 265.324C48.8588 267.546 51.8369 268.359 54.4847 267.14Z" fill="#FF7D94"/>
<path d="M41.5701 256.389C39.7955 255.237 39.5736 252.447 41.0821 250.232C42.5461 247.972 45.208 247.086 46.9826 248.238C48.7572 249.39 48.979 252.181 47.4706 254.396C45.9622 256.655 43.3447 257.541 41.5701 256.389Z" fill="#FF7D94"/>
<path d="M27.4177 262.945C27.4177 258.648 29.8578 256.876 32.2979 256.876C35.3591 256.876 36.202 261.927 42.3688 264.186C45.7405 265.382 45.4299 270.875 42.9899 272.115C41.0378 273.09 39.0414 274.862 36.9118 277.919C34.7823 280.975 29.2811 281.285 28.3938 276.723C27.5065 272.16 30.2127 268.793 30.2127 268.793C30.2127 268.793 27.4177 266.268 27.4177 262.945Z" fill="#FF7D94"/>
<path d="M4.39221 273.134C6.21118 276.501 6.07808 283.766 6.07808 283.766C5.94499 283.766 5.81189 283.766 5.63443 283.766C5.41261 283.766 5.19078 283.766 5.01332 283.766C4.7915 283.766 4.56967 283.766 4.39221 283.766C4.21475 283.766 3.99292 283.766 3.81546 283.766C3.7711 283.766 3.7711 283.766 3.72673 283.766C3.638 283.766 3.54927 283.766 3.46054 283.766H3.41618C3.32745 283.766 3.28308 283.766 3.19435 283.766C3.14999 283.766 3.10562 283.766 3.06126 283.766C3.01689 283.766 2.97253 283.766 2.92816 283.766C2.8838 283.766 2.79507 283.766 2.7507 283.766C2.70634 283.766 2.70634 283.766 2.66197 283.766C2.61761 283.766 2.52888 283.766 2.48451 283.766H2.44015C2.39578 283.766 2.35142 283.766 2.30705 283.766C2.26269 283.766 2.21832 283.766 2.17396 283.766H2.12959C2.08523 283.766 2.04086 283.766 2.04086 283.766C1.95213 283.766 1.8634 283.766 1.81904 283.766C1.77467 283.766 1.73031 283.766 1.68594 283.766C0.843005 283.766 0.354989 283.589 0.0444336 283.367V264.496C1.46412 265.648 2.70634 270.033 4.39221 273.134Z" fill="#927763"/>
<path d="M14.7736 264.009C12.6441 266.755 13.842 269.812 10.8252 269.192C7.80833 268.572 6.56611 266.135 8.07452 262.192C9.4942 258.471 10.1153 255.592 9.18365 253.2H9.53857L17.1694 253.465C16.9919 255.946 16.4595 261.838 14.7736 264.009Z" fill="#927763"/>
<path d="M0.887301 130.89C0.887301 130.89 0.354921 130.89 0 131.155V142.496C1.46405 143.603 2.70627 148.033 4.39214 151.134C6.21111 154.501 6.07801 161.766 6.07801 161.766C5.94492 161.766 5.81182 161.766 5.63436 161.766C12.8659 161.678 26.9296 161.5 26.9296 161.5C26.9296 161.5 28.1275 161.5 28.7486 163.007C29.3697 164.513 31.8098 169.696 36.6899 171.246C41.5701 172.752 46.4502 171.246 47.6481 168.19C48.8459 165.133 47.3375 163.627 48.8459 162.696C50.3544 161.766 54.6578 163.317 57.364 160.26C60.0703 157.203 60.7358 153.571 58.2957 150.204C57.364 149.274 56.7873 147.768 57.9851 147.147C59.183 146.527 62.2442 144.401 61.9336 140.148C61.6231 135.895 58.5619 132.839 54.3028 132.529C50.0438 132.219 50.9311 131.022 50.9311 130.092C50.9311 129.162 51.5522 125.839 49.1121 123.713C46.6721 121.587 41.4813 121.277 37.5329 123.713C33.5844 126.15 32.6083 129.693 30.1682 131.2C28.3493 132.13 25.2881 131.82 25.2881 131.82L9.53849 131.244L17.1693 131.51C16.9918 133.946 16.4594 139.838 14.7736 142.009C12.644 144.755 13.8419 147.812 10.8251 147.192C7.80825 146.572 6.56603 144.135 8.07444 140.192C9.49413 136.471 10.1152 133.592 9.18357 131.2L0.887301 130.89ZM54.4803 145.11C51.8184 146.35 48.8459 145.508 47.8256 143.338C46.8052 141.167 48.1361 138.332 50.798 137.136C53.4599 135.895 56.4324 136.737 57.4528 138.908C58.4732 141.078 57.1422 143.914 54.4803 145.11ZM46.7608 152.33C47.515 150.204 49.9994 149.185 52.3508 149.983C54.7021 150.824 55.9887 153.172 55.2345 155.298C54.4803 157.425 51.9959 158.444 49.6445 157.646C47.2932 156.849 46.0066 154.457 46.7608 152.33ZM41.5701 134.389C39.7955 133.237 39.5736 130.447 41.0821 128.232C42.5461 125.972 45.208 125.086 46.9826 126.238C48.7572 127.39 48.979 130.181 47.4706 132.396C45.9622 134.655 43.3447 135.541 41.5701 134.389ZM38.3314 157.513C40.6384 156.982 43.0785 158.975 43.7883 162.032C44.4982 165.089 43.2116 167.968 40.949 168.5C38.6863 169.031 36.2019 167.038 35.4921 163.981C34.7379 160.969 36.0244 158.089 38.3314 157.513ZM30.1682 146.704C30.1682 146.704 27.4176 144.268 27.4176 140.901C27.4176 136.604 29.8577 134.832 32.2978 134.832C35.359 134.832 36.2019 139.882 42.3686 142.142C45.7404 143.338 45.4298 148.831 42.9898 150.071C41.0377 151.046 39.0413 152.818 36.9117 155.874C34.7822 158.931 29.2809 159.241 28.3936 154.678C27.5063 150.115 30.1682 146.704 30.1682 146.704Z" fill="#C4C4C4"/>
<path d="M38.3315 157.513C40.6384 156.982 43.0785 158.975 43.7884 162.032C44.4982 165.089 43.2116 167.968 40.949 168.5C38.6864 169.031 36.2019 167.038 35.4921 163.981C34.7379 160.969 36.0245 158.089 38.3315 157.513Z" fill="#E891B4"/>
<path d="M52.3508 149.983C54.7022 150.824 55.9888 153.172 55.2345 155.298C54.4803 157.425 51.9959 158.444 49.6445 157.646C47.2932 156.849 46.0066 154.457 46.7608 152.33C47.515 150.204 49.9995 149.141 52.3508 149.983Z" fill="#E891B4"/>
<path d="M54.4884 145.136C57.1362 143.917 58.451 141.128 57.4251 138.906C56.3992 136.685 53.4211 135.872 50.7733 137.091C48.1255 138.31 46.8107 141.099 47.8366 143.321C48.8625 145.543 51.8406 146.355 54.4884 145.136Z" fill="#E891B4"/>
<path d="M41.5701 134.389C39.7955 133.237 39.5736 130.447 41.0821 128.232C42.5461 125.972 45.208 125.086 46.9826 126.238C48.7572 127.39 48.979 130.181 47.4706 132.396C45.9622 134.655 43.3447 135.541 41.5701 134.389Z" fill="#E891B4"/>
<path d="M27.4177 140.945C27.4177 136.648 29.8578 134.876 32.2979 134.876C35.3591 134.876 36.202 139.927 42.3688 142.186C45.7405 143.382 45.4299 148.875 42.9899 150.115C41.0378 151.09 39.0414 152.862 36.9118 155.919C34.7823 158.975 29.2811 159.285 28.3938 154.723C27.5065 150.16 30.2127 146.793 30.2127 146.793C30.2127 146.793 27.4177 144.268 27.4177 140.945Z" fill="#E891B4"/>
<path d="M4.39221 151.134C6.21118 154.501 6.07808 161.766 6.07808 161.766C5.94499 161.766 5.81189 161.766 5.63443 161.766C5.41261 161.766 5.19078 161.766 5.01332 161.766C4.7915 161.766 4.56967 161.766 4.39221 161.766C4.21475 161.766 3.99292 161.766 3.81546 161.766C3.7711 161.766 3.7711 161.766 3.72673 161.766C3.638 161.766 3.54927 161.766 3.46054 161.766H3.41618C3.32745 161.766 3.28308 161.766 3.19435 161.766C3.14999 161.766 3.10562 161.766 3.06126 161.766C3.01689 161.766 2.97253 161.766 2.92816 161.766C2.8838 161.766 2.79507 161.766 2.7507 161.766C2.70634 161.766 2.70634 161.766 2.66197 161.766C2.61761 161.766 2.52888 161.766 2.48451 161.766H2.44015C2.39578 161.766 2.35142 161.766 2.30705 161.766C2.26269 161.766 2.21832 161.766 2.17396 161.766H2.12959C2.08523 161.766 2.04086 161.766 2.04086 161.766C1.95213 161.766 1.8634 161.766 1.81904 161.766C1.77467 161.766 1.73031 161.766 1.68594 161.766C0.843005 161.766 0.354989 161.589 0.0444336 161.367V142.496C1.46412 143.648 2.70634 148.033 4.39221 151.134Z" fill="#8E8E8E"/>
<path d="M14.7736 142.009C12.6441 144.755 13.842 147.812 10.8252 147.192C7.80833 146.572 6.56611 144.135 8.07452 140.192C9.4942 136.471 10.1153 133.592 9.18365 131.2H9.53857L17.1694 131.465C16.9919 133.946 16.4595 139.838 14.7736 142.009Z" fill="#8E8E8E"/>
<path d="M0.887301 191.889C0.887301 191.889 0.354921 191.89 0 192.155V203.496C1.46405 204.603 2.70627 209.033 4.39214 212.134C6.21111 215.501 6.07801 222.766 6.07801 222.766C5.01325 222.766 4.08159 222.766 3.32738 222.81C9.22793 222.766 26.974 222.5 26.974 222.5C26.974 222.5 28.1718 222.5 28.7929 224.007C29.414 225.513 31.8541 230.696 36.7343 232.246C41.6144 233.752 46.4946 232.246 47.6925 229.19C48.8903 226.133 47.3819 224.627 48.8903 223.696C50.3987 222.766 54.7021 224.317 57.4084 221.26C60.159 218.203 60.7801 214.571 58.3401 211.204C57.4084 210.274 56.8317 208.768 58.0295 208.147C59.2274 207.527 62.2886 205.401 61.978 201.148C61.6674 196.895 58.6063 193.839 54.3472 193.529C50.0882 193.218 50.9755 192.022 50.9755 191.092C50.9755 190.162 51.5966 186.839 49.1565 184.713C46.7164 182.587 41.5257 182.277 37.5772 184.713C33.6287 187.149 32.564 190.649 30.1239 192.155C28.3049 193.086 25.2437 192.775 25.2437 192.775L17.1249 192.51H17.1693C16.9918 194.946 16.4594 200.838 14.7736 203.009C12.644 205.755 13.8419 208.812 10.8251 208.192C7.76389 207.571 6.56603 205.135 8.07444 201.192C9.49413 197.471 10.1152 194.592 9.18357 192.2L0.887301 191.889ZM54.4803 206.11C51.8184 207.35 48.8459 206.508 47.8256 204.338C46.8052 202.123 48.1361 199.332 50.798 198.136C53.4599 196.895 56.4324 197.737 57.4528 199.908C58.4732 202.123 57.1422 204.914 54.4803 206.11ZM46.7608 213.33C47.515 211.204 49.9994 210.185 52.3508 210.983C54.7021 211.824 55.9887 214.172 55.2345 216.298C54.4803 218.425 51.9959 219.444 49.6445 218.646C47.2932 217.849 46.0066 215.457 46.7608 213.33ZM41.5701 195.389C39.7955 194.237 39.5736 191.447 41.0821 189.232C42.5905 187.017 45.208 186.086 46.9826 187.238C48.7572 188.39 48.979 191.181 47.4706 193.396C45.9622 195.655 43.3447 196.541 41.5701 195.389ZM38.3314 218.558C40.6384 218.026 43.0785 220.02 43.7883 223.076C44.4982 226.133 43.2116 229.012 40.949 229.544C38.6863 230.076 36.2019 228.082 35.4921 225.025C34.7379 221.969 36.0244 219.089 38.3314 218.558ZM30.1682 207.749C30.1682 207.749 27.4176 205.312 27.4176 201.945C27.4176 197.648 29.8577 195.876 32.2978 195.876C35.359 195.876 36.2019 200.927 42.3686 203.186C45.7404 204.382 45.4298 209.875 42.9898 211.115C41.0377 212.09 39.0413 213.862 36.9117 216.919C34.7822 219.975 29.2809 220.285 28.3936 215.723C27.4176 211.071 30.1682 207.749 30.1682 207.749Z" fill="white"/>
<path d="M38.3315 218.558C40.6384 218.026 43.0785 220.02 43.7884 223.076C44.4982 226.133 43.2116 229.012 40.949 229.544C38.6864 230.076 36.2019 228.082 35.4921 225.025C34.7379 221.969 36.0245 219.089 38.3315 218.558Z" fill="#FEC7DC"/>
<path d="M52.3508 210.983C54.7022 211.824 55.9888 214.172 55.2345 216.299C54.4803 218.425 51.9959 219.444 49.6445 218.646C47.2932 217.805 46.0066 215.457 46.7608 213.33C47.515 211.204 49.9995 210.185 52.3508 210.983Z" fill="#FEC7DC"/>
<path d="M47.8255 204.338C46.8051 202.123 48.1361 199.332 50.798 198.136C53.4599 196.895 56.4323 197.737 57.4527 199.908C58.4731 202.123 57.1422 204.914 54.4803 206.11C51.8184 207.35 48.8459 206.553 47.8255 204.338Z" fill="#FEC7DC"/>
<path d="M41.5701 195.389C39.7955 194.237 39.5736 191.446 41.0821 189.232C42.5905 187.017 45.208 186.086 46.9826 187.238C48.7572 188.39 48.979 191.181 47.4706 193.396C45.9622 195.655 43.3447 196.541 41.5701 195.389Z" fill="#FEC7DC"/>
<path d="M27.4177 201.945C27.4177 197.648 29.8578 195.876 32.2979 195.876C35.3591 195.876 36.202 200.927 42.3688 203.186C45.7405 204.382 45.4299 209.875 42.9899 211.115C41.0378 212.09 39.0414 213.862 36.9118 216.919C34.7823 219.975 29.2811 220.285 28.3938 215.723C27.4621 211.16 30.2127 207.793 30.2127 207.793C30.2127 207.793 27.4177 205.312 27.4177 201.945Z" fill="#FEC7DC"/>
<path d="M4.39221 212.134C6.21118 215.501 6.07808 222.766 6.07808 222.766C5.01332 222.766 4.08166 222.766 3.32745 222.811C3.28308 222.811 3.23872 222.811 3.19435 222.811C3.14999 222.811 3.10562 222.811 3.06126 222.811C3.01689 222.811 2.97253 222.811 2.92816 222.811C2.8838 222.811 2.79507 222.811 2.7507 222.811C2.70634 222.811 2.70634 222.811 2.66197 222.811C2.61761 222.811 2.52888 222.811 2.48451 222.811H2.44015C2.39578 222.811 2.35142 222.811 2.30705 222.811C2.26269 222.811 2.21832 222.811 2.17396 222.811H2.12959C2.08523 222.811 2.04086 222.811 2.04086 222.811C1.95213 222.811 1.8634 222.811 1.81904 222.811C1.77467 222.811 1.73031 222.811 1.68594 222.811C0.843005 222.811 0.354989 222.633 0.0444336 222.412V203.54C1.46412 204.648 2.70634 209.078 4.39221 212.134Z" fill="#DDDDDD"/>
<path d="M14.7736 203.009C12.644 205.755 13.8419 208.812 10.8251 208.192C7.76387 207.571 6.56602 205.135 8.07443 201.192C9.49411 197.471 10.1152 194.592 9.18356 192.2L17.1249 192.51H17.1693C16.9918 194.946 16.4594 200.838 14.7736 203.009Z" fill="#DDDDDD"/>
<path d="M0.887301 69.8895C0.887301 69.8895 0.354921 69.8895 0 70.1553V81.496C1.46405 82.6035 2.70627 87.0334 4.39214 90.1344C6.21111 93.5011 6.07801 100.766 6.07801 100.766C5.94492 100.766 5.81182 100.766 5.63436 100.766C12.8659 100.678 26.9296 100.5 26.9296 100.5C26.9296 100.5 28.1275 100.5 28.7486 102.007C29.3697 103.513 31.8098 108.696 36.6899 110.246C41.5701 111.752 46.4502 110.246 47.6481 107.19C48.8459 104.133 47.3375 102.627 48.8459 101.696C50.3544 100.766 54.6578 102.317 57.364 99.26C60.1147 96.2034 60.7358 92.5708 58.2957 89.2041C57.364 88.2738 56.7873 86.7676 57.9851 86.1474C59.183 85.5272 62.2442 83.4009 61.9336 79.1481C61.6231 74.8954 58.5619 71.8387 54.3028 71.5286C50.0438 71.2185 50.9311 70.0224 50.9311 69.0922C50.9311 68.1619 51.5522 64.8394 49.1121 62.713C46.6721 60.5867 41.4813 60.2766 37.5329 62.713C33.5844 65.1495 32.6083 68.6935 30.1682 70.1996C28.3493 71.1299 25.2881 70.8198 25.2881 70.8198L9.53849 70.2439L17.1693 70.5097C16.9918 72.9462 16.4594 78.838 14.7736 81.0087C12.644 83.7553 13.8419 86.8119 10.8251 86.1917C7.80825 85.5715 6.56603 83.1351 8.07444 79.1924C9.49413 75.4713 10.1152 72.5918 9.18357 70.1996L0.887301 69.8895ZM54.4803 84.1096C51.8184 85.35 48.8459 84.5083 47.8256 82.3377C46.8052 80.167 48.1361 77.3318 50.798 76.1358C53.4599 74.8954 56.4324 75.7371 57.4528 77.9077C58.4732 80.0784 57.1422 82.9136 54.4803 84.1096ZM46.7608 91.3304C47.515 89.2041 49.9994 88.1852 52.3508 88.9826C54.7021 89.8243 55.9887 92.1721 55.2345 94.2985C54.4803 96.4249 51.9959 97.4438 49.6445 96.6464C47.2932 95.849 46.0066 93.4568 46.7608 91.3304ZM41.5701 73.3892C39.7955 72.2374 39.5736 69.4465 41.0821 67.2316C42.5461 64.9723 45.208 64.0863 46.9826 65.2381C48.7572 66.3899 48.979 69.1807 47.4706 71.3957C45.9622 73.655 43.3447 74.541 41.5701 73.3892ZM38.3314 96.5135C40.6384 95.9819 43.0785 97.9753 43.7883 101.032C44.4982 104.089 43.2116 106.968 40.949 107.5C38.6863 108.031 36.2019 106.038 35.4921 102.981C34.7379 99.9688 36.0244 97.0894 38.3314 96.5135ZM30.1682 85.7044C30.1682 85.7044 27.4176 83.268 27.4176 79.9012C27.4176 75.6042 29.8577 73.8322 32.2978 73.8322C35.359 73.8322 36.2019 78.8823 42.3686 81.1416C45.7404 82.3377 45.4298 87.8308 42.9898 89.0712C41.0377 90.0458 39.0413 91.8177 36.9117 94.8744C34.7822 97.931 29.2809 98.2411 28.3936 93.6783C27.5063 89.1155 30.1682 85.7044 30.1682 85.7044Z" fill="#B7957E"/>
<path d="M38.3315 96.5135C40.6384 95.9819 43.0785 97.9753 43.7884 101.032C44.4982 104.089 43.2116 106.968 40.949 107.5C38.6864 108.031 36.2019 106.038 35.4921 102.981C34.7379 99.9688 36.0245 97.0894 38.3315 96.5135Z" fill="#FF7D94"/>
<path d="M52.3508 88.9826C54.7022 89.8243 55.9888 92.1721 55.2345 94.2985C54.4803 96.4249 51.9959 97.4437 49.6445 96.6463C47.2932 95.849 46.0066 93.4568 46.7608 91.3304C47.515 89.2041 49.9995 88.1852 52.3508 88.9826Z" fill="#FF7D94"/>
<path d="M54.4847 84.1396C57.1325 82.9206 58.4473 80.1313 57.4214 77.9096C56.3955 75.6878 53.4174 74.875 50.7696 76.094C48.1218 77.313 46.807 80.1023 47.8329 82.324C48.8588 84.5458 51.8369 85.3586 54.4847 84.1396Z" fill="#FF7D94"/>
<path d="M41.5701 73.3892C39.7955 72.2374 39.5736 69.4465 41.0821 67.2316C42.5461 64.9723 45.208 64.0863 46.9826 65.2381C48.7572 66.3899 48.979 69.1807 47.4706 71.3957C45.9622 73.655 43.3447 74.541 41.5701 73.3892Z" fill="#FF7D94"/>
<path d="M27.4177 79.9455C27.4177 75.6484 29.8578 73.8765 32.2979 73.8765C35.3591 73.8765 36.202 78.9266 42.3688 81.1859C45.7405 82.3819 45.4299 87.8751 42.9899 89.1154C41.0378 90.09 39.0414 91.862 36.9118 94.9187C34.7823 97.9753 29.2811 98.2854 28.3938 93.7226C27.5065 89.1597 30.2127 85.793 30.2127 85.793C30.2127 85.793 27.4177 83.2679 27.4177 79.9455Z" fill="#FF7D94"/>
<path d="M4.39221 90.1344C6.21118 93.5011 6.07808 100.766 6.07808 100.766C5.94499 100.766 5.81189 100.766 5.63443 100.766C5.41261 100.766 5.19078 100.766 5.01332 100.766C4.7915 100.766 4.56967 100.766 4.39221 100.766C4.21475 100.766 3.99292 100.766 3.81546 100.766C3.7711 100.766 3.7711 100.766 3.72673 100.766C3.638 100.766 3.54927 100.766 3.46054 100.766H3.41618C3.32745 100.766 3.28308 100.766 3.19435 100.766C3.14999 100.766 3.10562 100.766 3.06126 100.766C3.01689 100.766 2.97253 100.766 2.92816 100.766C2.8838 100.766 2.79507 100.766 2.7507 100.766C2.70634 100.766 2.70634 100.766 2.66197 100.766C2.61761 100.766 2.52888 100.766 2.48451 100.766H2.44015C2.39578 100.766 2.35142 100.766 2.30705 100.766C2.26269 100.766 2.21832 100.766 2.17396 100.766H2.12959C2.08523 100.766 2.04086 100.766 2.04086 100.766C1.95213 100.766 1.8634 100.766 1.81904 100.766C1.77467 100.766 1.73031 100.766 1.68594 100.766C0.843005 100.766 0.354989 100.589 0.0444336 100.367V81.496C1.46412 82.6478 2.70634 87.0334 4.39221 90.1344Z" fill="#927763"/>
<path d="M14.7736 81.0087C12.6441 83.7553 13.842 86.8119 10.8252 86.1917C7.80833 85.5715 6.56611 83.1351 8.07452 79.1924C9.4942 75.4713 10.1153 72.5918 9.18365 70.1996H9.53857L17.1694 70.4654C16.9919 72.9462 16.4595 78.838 14.7736 81.0087Z" fill="#927763"/>
<path d="M0.887301 496.89C0.887301 496.89 0.354921 496.89 0 497.155V508.496C1.46405 509.603 2.70627 514.033 4.39214 517.134C6.21111 520.501 6.07801 527.766 6.07801 527.766C5.94492 527.766 5.81182 527.766 5.63436 527.766C12.8659 527.678 26.9296 527.5 26.9296 527.5C26.9296 527.5 28.1275 527.5 28.7486 529.007C29.3697 530.513 31.8098 535.696 36.6899 537.246C41.5701 538.752 46.4502 537.246 47.6481 534.19C48.8459 531.133 47.3375 529.627 48.8459 528.696C50.3544 527.766 54.6578 529.317 57.364 526.26C60.0703 523.203 60.7358 519.571 58.2957 516.204C57.364 515.274 56.7873 513.768 57.9851 513.147C59.183 512.527 62.2442 510.401 61.9336 506.148C61.6231 501.895 58.5619 498.839 54.3028 498.529C50.0438 498.219 50.9311 497.022 50.9311 496.092C50.9311 495.162 51.5522 491.839 49.1121 489.713C46.6721 487.587 41.4813 487.277 37.5329 489.713C33.5844 492.15 32.6083 495.693 30.1682 497.2C28.3493 498.13 25.2881 497.82 25.2881 497.82L9.53849 497.244L17.1693 497.51C16.9918 499.946 16.4594 505.838 14.7736 508.009C12.644 510.755 13.8419 513.812 10.8251 513.192C7.80825 512.572 6.56603 510.135 8.07444 506.192C9.49413 502.471 10.1152 499.592 9.18357 497.2L0.887301 496.89ZM54.4803 511.11C51.8184 512.35 48.8459 511.508 47.8256 509.338C46.8052 507.167 48.1361 504.332 50.798 503.136C53.4599 501.895 56.4324 502.737 57.4528 504.908C58.4732 507.078 57.1422 509.914 54.4803 511.11ZM46.7608 518.33C47.515 516.204 49.9994 515.185 52.3508 515.983C54.7021 516.824 55.9887 519.172 55.2345 521.298C54.4803 523.425 51.9959 524.444 49.6445 523.646C47.2932 522.849 46.0066 520.457 46.7608 518.33ZM41.5701 500.389C39.7955 499.237 39.5736 496.447 41.0821 494.232C42.5461 491.972 45.208 491.086 46.9826 492.238C48.7572 493.39 48.979 496.181 47.4706 498.396C45.9622 500.655 43.3447 501.541 41.5701 500.389ZM38.3314 523.513C40.6384 522.982 43.0785 524.975 43.7883 528.032C44.4982 531.089 43.2116 533.968 40.949 534.5C38.6863 535.031 36.2019 533.038 35.4921 529.981C34.7379 526.969 36.0244 524.089 38.3314 523.513ZM30.1682 512.704C30.1682 512.704 27.4176 510.268 27.4176 506.901C27.4176 502.604 29.8577 500.832 32.2978 500.832C35.359 500.832 36.2019 505.882 42.3686 508.142C45.7404 509.338 45.4298 514.831 42.9898 516.071C41.0377 517.046 39.0413 518.818 36.9117 521.874C34.7822 524.931 29.2809 525.241 28.3936 520.678C27.5063 516.115 30.1682 512.704 30.1682 512.704Z" fill="#C4C4C4"/>
<path d="M38.3315 523.514C40.6384 522.982 43.0785 524.975 43.7884 528.032C44.4982 531.089 43.2116 533.968 40.949 534.5C38.6864 535.031 36.2019 533.038 35.4921 529.981C34.7379 526.969 36.0245 524.089 38.3315 523.514Z" fill="#E891B4"/>
<path d="M52.3508 515.983C54.7022 516.824 55.9888 519.172 55.2345 521.299C54.4803 523.425 51.9959 524.444 49.6445 523.646C47.2932 522.849 46.0066 520.457 46.7608 518.33C47.515 516.204 49.9995 515.141 52.3508 515.983Z" fill="#E891B4"/>
<path d="M54.4884 511.137C57.1362 509.917 58.451 507.128 57.4251 504.906C56.3992 502.685 53.4211 501.872 50.7733 503.091C48.1255 504.31 46.8107 507.099 47.8366 509.321C48.8625 511.543 51.8406 512.356 54.4884 511.137Z" fill="#E891B4"/>
<path d="M41.5701 500.389C39.7955 499.238 39.5736 496.447 41.0821 494.232C42.5461 491.972 45.208 491.087 46.9826 492.238C48.7572 493.39 48.979 496.181 47.4706 498.396C45.9622 500.655 43.3447 501.541 41.5701 500.389Z" fill="#E891B4"/>
<path d="M27.4177 506.945C27.4177 502.648 29.8578 500.876 32.2979 500.876C35.3591 500.876 36.202 505.927 42.3688 508.186C45.7405 509.382 45.4299 514.875 42.9899 516.115C41.0378 517.09 39.0414 518.862 36.9118 521.919C34.7823 524.975 29.2811 525.285 28.3938 520.723C27.5065 516.16 30.2127 512.793 30.2127 512.793C30.2127 512.793 27.4177 510.268 27.4177 506.945Z" fill="#E891B4"/>
<path d="M4.39221 517.134C6.21118 520.501 6.07808 527.766 6.07808 527.766C5.94499 527.766 5.81189 527.766 5.63443 527.766C5.41261 527.766 5.19078 527.766 5.01332 527.766C4.7915 527.766 4.56967 527.766 4.39221 527.766C4.21475 527.766 3.99292 527.766 3.81546 527.766C3.7711 527.766 3.7711 527.766 3.72673 527.766C3.638 527.766 3.54927 527.766 3.46054 527.766H3.41618C3.32745 527.766 3.28308 527.766 3.19435 527.766C3.14999 527.766 3.10562 527.766 3.06126 527.766C3.01689 527.766 2.97253 527.766 2.92816 527.766C2.8838 527.766 2.79507 527.766 2.7507 527.766C2.70634 527.766 2.70634 527.766 2.66197 527.766C2.61761 527.766 2.52888 527.766 2.48451 527.766H2.44015C2.39578 527.766 2.35142 527.766 2.30705 527.766C2.26269 527.766 2.21832 527.766 2.17396 527.766H2.12959C2.08523 527.766 2.04086 527.766 2.04086 527.766C1.95213 527.766 1.8634 527.766 1.81904 527.766C1.77467 527.766 1.73031 527.766 1.68594 527.766C0.843005 527.766 0.354989 527.589 0.0444336 527.368V508.496C1.46412 509.648 2.70634 514.034 4.39221 517.134Z" fill="#8E8E8E"/>
<path d="M14.7736 508.009C12.6441 510.755 13.842 513.812 10.8252 513.192C7.80833 512.572 6.56611 510.135 8.07452 506.192C9.4942 502.471 10.1153 499.592 9.18365 497.2H9.53857L17.1694 497.465C16.9919 499.946 16.4595 505.838 14.7736 508.009Z" fill="#8E8E8E"/>
<path d="M0.887301 557.889C0.887301 557.889 0.354921 557.889 0 558.155V569.496C1.46405 570.603 2.70627 575.033 4.39214 578.134C6.21111 581.501 6.07801 588.766 6.07801 588.766C5.01325 588.766 4.08159 588.766 3.32738 588.81C9.22793 588.766 26.974 588.5 26.974 588.5C26.974 588.5 28.1718 588.5 28.7929 590.006C29.414 591.513 31.8541 596.696 36.7343 598.246C41.6144 599.752 46.4946 598.246 47.6925 595.19C48.8903 592.133 47.3819 590.627 48.8903 589.696C50.3987 588.766 54.7021 590.317 57.4084 587.26C60.159 584.203 60.7801 580.571 58.3401 577.204C57.4084 576.274 56.8317 574.768 58.0295 574.147C59.2274 573.527 62.2886 571.401 61.978 567.148C61.6674 562.895 58.6063 559.839 54.3472 559.529C50.0882 559.218 50.9755 558.022 50.9755 557.092C50.9755 556.162 51.5966 552.839 49.1565 550.713C46.7164 548.587 41.5257 548.277 37.5772 550.713C33.6287 553.149 32.564 556.649 30.1239 558.155C28.3049 559.086 25.2437 558.775 25.2437 558.775L17.1249 558.51H17.1693C16.9918 560.946 16.4594 566.838 14.7736 569.009C12.644 571.755 13.8419 574.812 10.8251 574.192C7.76389 573.571 6.56603 571.135 8.07444 567.192C9.49413 563.471 10.1152 560.592 9.18357 558.2L0.887301 557.889ZM54.4803 572.11C51.8184 573.35 48.8459 572.508 47.8256 570.338C46.8052 568.123 48.1361 565.332 50.798 564.136C53.4599 562.895 56.4324 563.737 57.4528 565.908C58.4732 568.123 57.1422 570.913 54.4803 572.11ZM46.7608 579.33C47.515 577.204 49.9994 576.185 52.3508 576.982C54.7021 577.824 55.9887 580.172 55.2345 582.298C54.4803 584.425 51.9959 585.444 49.6445 584.646C47.2932 583.849 46.0066 581.457 46.7608 579.33ZM41.5701 561.389C39.7955 560.237 39.5736 557.446 41.0821 555.231C42.5905 553.017 45.208 552.086 46.9826 553.238C48.7572 554.39 48.979 557.181 47.4706 559.396C45.9622 561.655 43.3447 562.541 41.5701 561.389ZM38.3314 584.558C40.6384 584.026 43.0785 586.02 43.7883 589.076C44.4982 592.133 43.2116 595.012 40.949 595.544C38.6863 596.076 36.2019 594.082 35.4921 591.025C34.7379 587.969 36.0244 585.089 38.3314 584.558ZM30.1682 573.749C30.1682 573.749 27.4176 571.312 27.4176 567.945C27.4176 563.648 29.8577 561.876 32.2978 561.876C35.359 561.876 36.2019 566.927 42.3686 569.186C45.7404 570.382 45.4298 575.875 42.9898 577.115C41.0377 578.09 39.0413 579.862 36.9117 582.919C34.7822 585.975 29.2809 586.285 28.3936 581.723C27.4176 577.071 30.1682 573.749 30.1682 573.749Z" fill="white"/>
<path d="M38.3315 584.558C40.6384 584.026 43.0785 586.019 43.7884 589.076C44.4982 592.133 43.2116 595.012 40.949 595.544C38.6864 596.075 36.2019 594.082 35.4921 591.025C34.7379 587.969 36.0245 585.089 38.3315 584.558Z" fill="#FEC7DC"/>
<path d="M52.3508 576.982C54.7022 577.824 55.9888 580.172 55.2345 582.298C54.4803 584.425 51.9959 585.444 49.6445 584.646C47.2932 583.805 46.0066 581.457 46.7608 579.33C47.515 577.204 49.9995 576.185 52.3508 576.982Z" fill="#FEC7DC"/>
<path d="M47.8255 570.338C46.8051 568.123 48.1361 565.332 50.798 564.136C53.4599 562.895 56.4323 563.737 57.4527 565.908C58.4731 568.123 57.1422 570.913 54.4803 572.11C51.8184 573.35 48.8459 572.553 47.8255 570.338Z" fill="#FEC7DC"/>
<path d="M41.5701 561.389C39.7955 560.237 39.5736 557.447 41.0821 555.232C42.5905 553.017 45.208 552.086 46.9826 553.238C48.7572 554.39 48.979 557.181 47.4706 559.396C45.9622 561.655 43.3447 562.541 41.5701 561.389Z" fill="#FEC7DC"/>
<path d="M27.4177 567.945C27.4177 563.648 29.8578 561.876 32.2979 561.876C35.3591 561.876 36.202 566.927 42.3688 569.186C45.7405 570.382 45.4299 575.875 42.9899 577.115C41.0378 578.09 39.0414 579.862 36.9118 582.919C34.7823 585.975 29.2811 586.285 28.3938 581.723C27.4621 577.16 30.2127 573.793 30.2127 573.793C30.2127 573.793 27.4177 571.312 27.4177 567.945Z" fill="#FEC7DC"/>
<path d="M4.39221 578.134C6.21118 581.501 6.07808 588.766 6.07808 588.766C5.01332 588.766 4.08166 588.766 3.32745 588.81C3.28308 588.81 3.23872 588.81 3.19435 588.81C3.14999 588.81 3.10562 588.81 3.06126 588.81C3.01689 588.81 2.97253 588.81 2.92816 588.81C2.8838 588.81 2.79507 588.81 2.7507 588.81C2.70634 588.81 2.70634 588.81 2.66197 588.81C2.61761 588.81 2.52888 588.81 2.48451 588.81H2.44015C2.39578 588.81 2.35142 588.81 2.30705 588.81C2.26269 588.81 2.21832 588.81 2.17396 588.81H2.12959C2.08523 588.81 2.04086 588.81 2.04086 588.81C1.95213 588.81 1.8634 588.81 1.81904 588.81C1.77467 588.81 1.73031 588.81 1.68594 588.81C0.843005 588.81 0.354989 588.633 0.0444336 588.412V569.54C1.46412 570.648 2.70634 575.078 4.39221 578.134Z" fill="#DDDDDD"/>
<path d="M14.7736 569.008C12.644 571.755 13.8419 574.812 10.8251 574.191C7.76387 573.571 6.56602 571.135 8.07443 567.192C9.49411 563.471 10.1152 560.592 9.18356 558.199L17.1249 558.51H17.1693C16.9918 560.946 16.4594 566.838 14.7736 569.008Z" fill="#DDDDDD"/>
<path d="M0.887301 435.89C0.887301 435.89 0.354921 435.89 0 436.155V447.496C1.46405 448.603 2.70627 453.033 4.39214 456.134C6.21111 459.501 6.07801 466.766 6.07801 466.766C5.94492 466.766 5.81182 466.766 5.63436 466.766C12.8659 466.678 26.9296 466.5 26.9296 466.5C26.9296 466.5 28.1275 466.5 28.7486 468.007C29.3697 469.513 31.8098 474.696 36.6899 476.246C41.5701 477.752 46.4502 476.246 47.6481 473.19C48.8459 470.133 47.3375 468.627 48.8459 467.696C50.3544 466.766 54.6578 468.317 57.364 465.26C60.1147 462.203 60.7358 458.571 58.2957 455.204C57.364 454.274 56.7873 452.768 57.9851 452.147C59.183 451.527 62.2442 449.401 61.9336 445.148C61.6231 440.895 58.5619 437.839 54.3028 437.529C50.0438 437.219 50.9311 436.022 50.9311 435.092C50.9311 434.162 51.5522 430.839 49.1121 428.713C46.6721 426.587 41.4813 426.277 37.5329 428.713C33.5844 431.15 32.6083 434.693 30.1682 436.2C28.3493 437.13 25.2881 436.82 25.2881 436.82L9.53849 436.244L17.1693 436.51C16.9918 438.946 16.4594 444.838 14.7736 447.009C12.644 449.755 13.8419 452.812 10.8251 452.192C7.80825 451.572 6.56603 449.135 8.07444 445.192C9.49413 441.471 10.1152 438.592 9.18357 436.2L0.887301 435.89ZM54.4803 450.11C51.8184 451.35 48.8459 450.508 47.8256 448.338C46.8052 446.167 48.1361 443.332 50.798 442.136C53.4599 440.895 56.4324 441.737 57.4528 443.908C58.4732 446.078 57.1422 448.914 54.4803 450.11ZM46.7608 457.33C47.515 455.204 49.9994 454.185 52.3508 454.983C54.7021 455.824 55.9887 458.172 55.2345 460.299C54.4803 462.425 51.9959 463.444 49.6445 462.646C47.2932 461.849 46.0066 459.457 46.7608 457.33ZM41.5701 439.389C39.7955 438.237 39.5736 435.447 41.0821 433.232C42.5461 430.972 45.208 430.086 46.9826 431.238C48.7572 432.39 48.979 435.181 47.4706 437.396C45.9622 439.655 43.3447 440.541 41.5701 439.389ZM38.3314 462.513C40.6384 461.982 43.0785 463.975 43.7883 467.032C44.4982 470.089 43.2116 472.968 40.949 473.5C38.6863 474.031 36.2019 472.038 35.4921 468.981C34.7379 465.969 36.0244 463.089 38.3314 462.513ZM30.1682 451.704C30.1682 451.704 27.4176 449.268 27.4176 445.901C27.4176 441.604 29.8577 439.832 32.2978 439.832C35.359 439.832 36.2019 444.882 42.3686 447.142C45.7404 448.338 45.4298 453.831 42.9898 455.071C41.0377 456.046 39.0413 457.818 36.9117 460.874C34.7822 463.931 29.2809 464.241 28.3936 459.678C27.5063 455.115 30.1682 451.704 30.1682 451.704Z" fill="#B7957E"/>
<path d="M38.3315 462.513C40.6384 461.982 43.0785 463.975 43.7884 467.032C44.4982 470.089 43.2116 472.968 40.949 473.5C38.6864 474.031 36.2019 472.038 35.4921 468.981C34.7379 465.969 36.0245 463.089 38.3315 462.513Z" fill="#FF7D94"/>
<path d="M52.3508 454.982C54.7022 455.824 55.9888 458.172 55.2345 460.298C54.4803 462.425 51.9959 463.444 49.6445 462.646C47.2932 461.849 46.0066 459.457 46.7608 457.33C47.515 455.204 49.9995 454.185 52.3508 454.982Z" fill="#FF7D94"/>
<path d="M54.4847 450.14C57.1325 448.921 58.4473 446.131 57.4214 443.91C56.3955 441.688 53.4174 440.875 50.7696 442.094C48.1218 443.313 46.807 446.102 47.8329 448.324C48.8588 450.546 51.8369 451.359 54.4847 450.14Z" fill="#FF7D94"/>
<path d="M41.5701 439.389C39.7955 438.237 39.5736 435.446 41.0821 433.232C42.5461 430.972 45.208 430.086 46.9826 431.238C48.7572 432.39 48.979 435.181 47.4706 437.396C45.9622 439.655 43.3447 440.541 41.5701 439.389Z" fill="#FF7D94"/>
<path d="M27.4177 445.945C27.4177 441.648 29.8578 439.876 32.2979 439.876C35.3591 439.876 36.202 444.927 42.3688 447.186C45.7405 448.382 45.4299 453.875 42.9899 455.115C41.0378 456.09 39.0414 457.862 36.9118 460.919C34.7823 463.975 29.2811 464.285 28.3938 459.723C27.5065 455.16 30.2127 451.793 30.2127 451.793C30.2127 451.793 27.4177 449.268 27.4177 445.945Z" fill="#FF7D94"/>
<path d="M4.39221 456.134C6.21118 459.501 6.07808 466.766 6.07808 466.766C5.94499 466.766 5.81189 466.766 5.63443 466.766C5.41261 466.766 5.19078 466.766 5.01332 466.766C4.7915 466.766 4.56967 466.766 4.39221 466.766C4.21475 466.766 3.99292 466.766 3.81546 466.766C3.7711 466.766 3.7711 466.766 3.72673 466.766C3.638 466.766 3.54927 466.766 3.46054 466.766H3.41618C3.32745 466.766 3.28308 466.766 3.19435 466.766C3.14999 466.766 3.10562 466.766 3.06126 466.766C3.01689 466.766 2.97253 466.766 2.92816 466.766C2.8838 466.766 2.79507 466.766 2.7507 466.766C2.70634 466.766 2.70634 466.766 2.66197 466.766C2.61761 466.766 2.52888 466.766 2.48451 466.766H2.44015C2.39578 466.766 2.35142 466.766 2.30705 466.766C2.26269 466.766 2.21832 466.766 2.17396 466.766H2.12959C2.08523 466.766 2.04086 466.766 2.04086 466.766C1.95213 466.766 1.8634 466.766 1.81904 466.766C1.77467 466.766 1.73031 466.766 1.68594 466.766C0.843005 466.766 0.354989 466.589 0.0444336 466.367V447.496C1.46412 448.648 2.70634 453.033 4.39221 456.134Z" fill="#927763"/>
<path d="M14.7736 447.009C12.6441 449.755 13.842 452.812 10.8252 452.192C7.80833 451.572 6.56611 449.135 8.07452 445.192C9.4942 441.471 10.1153 438.592 9.18365 436.2H9.53857L17.1694 436.465C16.9919 438.946 16.4595 444.838 14.7736 447.009Z" fill="#927763"/>
<path d="M0.887301 679.89C0.887301 679.89 0.354921 679.89 0 680.155V691.496C1.46405 692.603 2.70627 697.033 4.39214 700.134C6.21111 703.501 6.07801 710.766 6.07801 710.766C5.94492 710.766 5.81182 710.766 5.63436 710.766C12.8659 710.678 26.9296 710.5 26.9296 710.5C26.9296 710.5 28.1275 710.5 28.7486 712.007C29.3697 713.513 31.8098 718.696 36.6899 720.246C41.5701 721.752 46.4502 720.246 47.6481 717.19C48.8459 714.133 47.3375 712.627 48.8459 711.696C50.3544 710.766 54.6578 712.317 57.364 709.26C60.0703 706.203 60.7358 702.571 58.2957 699.204C57.364 698.274 56.7873 696.768 57.9851 696.147C59.183 695.527 62.2442 693.401 61.9336 689.148C61.6231 684.895 58.5619 681.839 54.3028 681.529C50.0438 681.219 50.9311 680.022 50.9311 679.092C50.9311 678.162 51.5522 674.839 49.1121 672.713C46.6721 670.587 41.4813 670.277 37.5329 672.713C33.5844 675.15 32.6083 678.693 30.1682 680.2C28.3493 681.13 25.2881 680.82 25.2881 680.82L9.53849 680.244L17.1693 680.51C16.9918 682.946 16.4594 688.838 14.7736 691.009C12.644 693.755 13.8419 696.812 10.8251 696.192C7.80825 695.572 6.56603 693.135 8.07444 689.192C9.49413 685.471 10.1152 682.592 9.18357 680.2L0.887301 679.89ZM54.4803 694.11C51.8184 695.35 48.8459 694.508 47.8256 692.338C46.8052 690.167 48.1361 687.332 50.798 686.136C53.4599 684.895 56.4324 685.737 57.4528 687.908C58.4732 690.078 57.1422 692.914 54.4803 694.11ZM46.7608 701.33C47.515 699.204 49.9994 698.185 52.3508 698.983C54.7021 699.824 55.9887 702.172 55.2345 704.298C54.4803 706.425 51.9959 707.444 49.6445 706.646C47.2932 705.849 46.0066 703.457 46.7608 701.33ZM41.5701 683.389C39.7955 682.237 39.5736 679.447 41.0821 677.232C42.5461 674.972 45.208 674.086 46.9826 675.238C48.7572 676.39 48.979 679.181 47.4706 681.396C45.9622 683.655 43.3447 684.541 41.5701 683.389ZM38.3314 706.513C40.6384 705.982 43.0785 707.975 43.7883 711.032C44.4982 714.089 43.2116 716.968 40.949 717.5C38.6863 718.031 36.2019 716.038 35.4921 712.981C34.7379 709.969 36.0244 707.089 38.3314 706.513ZM30.1682 695.704C30.1682 695.704 27.4176 693.268 27.4176 689.901C27.4176 685.604 29.8577 683.832 32.2978 683.832C35.359 683.832 36.2019 688.882 42.3686 691.142C45.7404 692.338 45.4298 697.831 42.9898 699.071C41.0377 700.046 39.0413 701.818 36.9117 704.874C34.7822 707.931 29.2809 708.241 28.3936 703.678C27.5063 699.115 30.1682 695.704 30.1682 695.704Z" fill="#C4C4C4"/>
<path d="M38.3315 706.513C40.6384 705.982 43.0785 707.975 43.7884 711.032C44.4982 714.089 43.2116 716.968 40.949 717.5C38.6864 718.031 36.2019 716.038 35.4921 712.981C34.7379 709.969 36.0245 707.089 38.3315 706.513Z" fill="#E891B4"/>
<path d="M52.3508 698.983C54.7022 699.824 55.9888 702.172 55.2345 704.299C54.4803 706.425 51.9959 707.444 49.6445 706.646C47.2932 705.849 46.0066 703.457 46.7608 701.33C47.515 699.204 49.9995 698.141 52.3508 698.983Z" fill="#E891B4"/>
<path d="M54.4884 694.137C57.1362 692.917 58.451 690.128 57.4251 687.906C56.3992 685.685 53.4211 684.872 50.7733 686.091C48.1255 687.31 46.8107 690.099 47.8366 692.321C48.8625 694.543 51.8406 695.356 54.4884 694.137Z" fill="#E891B4"/>
<path d="M41.5701 683.389C39.7955 682.238 39.5736 679.447 41.0821 677.232C42.5461 674.972 45.208 674.087 46.9826 675.238C48.7572 676.39 48.979 679.181 47.4706 681.396C45.9622 683.655 43.3447 684.541 41.5701 683.389Z" fill="#E891B4"/>
<path d="M27.4177 689.945C27.4177 685.648 29.8578 683.876 32.2979 683.876C35.3591 683.876 36.202 688.927 42.3688 691.186C45.7405 692.382 45.4299 697.875 42.9899 699.115C41.0378 700.09 39.0414 701.862 36.9118 704.919C34.7823 707.975 29.2811 708.285 28.3938 703.723C27.5065 699.16 30.2127 695.793 30.2127 695.793C30.2127 695.793 27.4177 693.268 27.4177 689.945Z" fill="#E891B4"/>
<path d="M4.39221 700.134C6.21118 703.501 6.07808 710.766 6.07808 710.766C5.94499 710.766 5.81189 710.766 5.63443 710.766C5.41261 710.766 5.19078 710.766 5.01332 710.766C4.7915 710.766 4.56967 710.766 4.39221 710.766C4.21475 710.766 3.99292 710.766 3.81546 710.766C3.7711 710.766 3.7711 710.766 3.72673 710.766C3.638 710.766 3.54927 710.766 3.46054 710.766H3.41618C3.32745 710.766 3.28308 710.766 3.19435 710.766C3.14999 710.766 3.10562 710.766 3.06126 710.766C3.01689 710.766 2.97253 710.766 2.92816 710.766C2.8838 710.766 2.79507 710.766 2.7507 710.766C2.70634 710.766 2.70634 710.766 2.66197 710.766C2.61761 710.766 2.52888 710.766 2.48451 710.766H2.44015C2.39578 710.766 2.35142 710.766 2.30705 710.766C2.26269 710.766 2.21832 710.766 2.17396 710.766H2.12959C2.08523 710.766 2.04086 710.766 2.04086 710.766C1.95213 710.766 1.8634 710.766 1.81904 710.766C1.77467 710.766 1.73031 710.766 1.68594 710.766C0.843005 710.766 0.354989 710.589 0.0444336 710.368V691.496C1.46412 692.648 2.70634 697.034 4.39221 700.134Z" fill="#8E8E8E"/>
<path d="M14.7736 691.009C12.6441 693.755 13.842 696.812 10.8252 696.192C7.80833 695.572 6.56611 693.135 8.07452 689.192C9.4942 685.471 10.1153 682.592 9.18365 680.2H9.53857L17.1694 680.465C16.9919 682.946 16.4595 688.838 14.7736 691.009Z" fill="#8E8E8E"/>
<path d="M0.887301 740.89C0.887301 740.89 0.354921 740.89 0 741.155V752.496C1.46405 753.603 2.70627 758.033 4.39214 761.134C6.21111 764.501 6.07801 771.766 6.07801 771.766C5.01325 771.766 4.08159 771.766 3.32738 771.81C9.22793 771.766 26.974 771.5 26.974 771.5C26.974 771.5 28.1718 771.5 28.7929 773.007C29.414 774.513 31.8541 779.696 36.7343 781.246C41.6144 782.752 46.4946 781.246 47.6925 778.19C48.8903 775.133 47.3819 773.627 48.8903 772.696C50.3987 771.766 54.7021 773.317 57.4084 770.26C60.159 767.203 60.7801 763.571 58.3401 760.204C57.4084 759.274 56.8317 757.768 58.0295 757.147C59.2274 756.527 62.2886 754.401 61.978 750.148C61.6674 745.895 58.6063 742.839 54.3472 742.529C50.0882 742.218 50.9755 741.022 50.9755 740.092C50.9755 739.162 51.5966 735.839 49.1565 733.713C46.7164 731.587 41.5257 731.277 37.5772 733.713C33.6287 736.149 32.564 739.649 30.1239 741.155C28.3049 742.086 25.2437 741.775 25.2437 741.775L17.1249 741.51H17.1693C16.9918 743.946 16.4594 749.838 14.7736 752.009C12.644 754.755 13.8419 757.812 10.8251 757.192C7.76389 756.572 6.56603 754.135 8.07444 750.192C9.49413 746.471 10.1152 743.592 9.18357 741.2L0.887301 740.89ZM54.4803 755.11C51.8184 756.35 48.8459 755.508 47.8256 753.338C46.8052 751.123 48.1361 748.332 50.798 747.136C53.4599 745.895 56.4324 746.737 57.4528 748.908C58.4732 751.123 57.1422 753.914 54.4803 755.11ZM46.7608 762.33C47.515 760.204 49.9994 759.185 52.3508 759.983C54.7021 760.824 55.9887 763.172 55.2345 765.298C54.4803 767.425 51.9959 768.444 49.6445 767.646C47.2932 766.849 46.0066 764.457 46.7608 762.33ZM41.5701 744.389C39.7955 743.237 39.5736 740.447 41.0821 738.232C42.5905 736.017 45.208 735.086 46.9826 736.238C48.7572 737.39 48.979 740.181 47.4706 742.396C45.9622 744.655 43.3447 745.541 41.5701 744.389ZM38.3314 767.558C40.6384 767.026 43.0785 769.02 43.7883 772.076C44.4982 775.133 43.2116 778.012 40.949 778.544C38.6863 779.076 36.2019 777.082 35.4921 774.025C34.7379 770.969 36.0244 768.089 38.3314 767.558ZM30.1682 756.749C30.1682 756.749 27.4176 754.312 27.4176 750.945C27.4176 746.648 29.8577 744.876 32.2978 744.876C35.359 744.876 36.2019 749.927 42.3686 752.186C45.7404 753.382 45.4298 758.875 42.9898 760.115C41.0377 761.09 39.0413 762.862 36.9117 765.919C34.7822 768.975 29.2809 769.285 28.3936 764.723C27.4176 760.071 30.1682 756.749 30.1682 756.749Z" fill="white"/>
<path d="M38.3315 767.558C40.6384 767.026 43.0785 769.02 43.7884 772.076C44.4982 775.133 43.2116 778.013 40.949 778.544C38.6864 779.076 36.2019 777.082 35.4921 774.026C34.7379 770.969 36.0245 768.089 38.3315 767.558Z" fill="#FEC7DC"/>
<path d="M52.3508 759.982C54.7022 760.824 55.9888 763.172 55.2345 765.298C54.4803 767.425 51.9959 768.444 49.6445 767.646C47.2932 766.805 46.0066 764.457 46.7608 762.33C47.515 760.204 49.9995 759.185 52.3508 759.982Z" fill="#FEC7DC"/>
<path d="M47.8255 753.338C46.8051 751.123 48.1361 748.332 50.798 747.136C53.4599 745.895 56.4323 746.737 57.4527 748.908C58.4731 751.123 57.1422 753.914 54.4803 755.11C51.8184 756.35 48.8459 755.553 47.8255 753.338Z" fill="#FEC7DC"/>
<path d="M41.5701 744.389C39.7955 743.237 39.5736 740.447 41.0821 738.232C42.5905 736.017 45.208 735.086 46.9826 736.238C48.7572 737.39 48.979 740.181 47.4706 742.396C45.9622 744.655 43.3447 745.541 41.5701 744.389Z" fill="#FEC7DC"/>
<path d="M27.4177 750.945C27.4177 746.648 29.8578 744.876 32.2979 744.876C35.3591 744.876 36.202 749.927 42.3688 752.186C45.7405 753.382 45.4299 758.875 42.9899 760.115C41.0378 761.09 39.0414 762.862 36.9118 765.919C34.7823 768.975 29.2811 769.285 28.3938 764.723C27.4621 760.16 30.2127 756.793 30.2127 756.793C30.2127 756.793 27.4177 754.312 27.4177 750.945Z" fill="#FEC7DC"/>
<path d="M4.39221 761.134C6.21118 764.501 6.07808 771.766 6.07808 771.766C5.01332 771.766 4.08166 771.766 3.32745 771.811C3.28308 771.811 3.23872 771.811 3.19435 771.811C3.14999 771.811 3.10562 771.811 3.06126 771.811C3.01689 771.811 2.97253 771.811 2.92816 771.811C2.8838 771.811 2.79507 771.811 2.7507 771.811C2.70634 771.811 2.70634 771.811 2.66197 771.811C2.61761 771.811 2.52888 771.811 2.48451 771.811H2.44015C2.39578 771.811 2.35142 771.811 2.30705 771.811C2.26269 771.811 2.21832 771.811 2.17396 771.811H2.12959C2.08523 771.811 2.04086 771.811 2.04086 771.811C1.95213 771.811 1.8634 771.811 1.81904 771.811C1.77467 771.811 1.73031 771.811 1.68594 771.811C0.843005 771.811 0.354989 771.633 0.0444336 771.412V752.54C1.46412 753.648 2.70634 758.078 4.39221 761.134Z" fill="#DDDDDD"/>
<path d="M14.7736 752.009C12.644 754.755 13.8419 757.812 10.8251 757.192C7.76387 756.571 6.56602 754.135 8.07443 750.192C9.49411 746.471 10.1152 743.592 9.18356 741.199L17.1249 741.51H17.1693C16.9918 743.946 16.4594 749.838 14.7736 752.009Z" fill="#DDDDDD"/>
<path d="M0.887301 618.89C0.887301 618.89 0.354921 618.89 0 619.155V630.496C1.46405 631.603 2.70627 636.033 4.39214 639.134C6.21111 642.501 6.07801 649.766 6.07801 649.766C5.94492 649.766 5.81182 649.766 5.63436 649.766C12.8659 649.678 26.9296 649.5 26.9296 649.5C26.9296 649.5 28.1275 649.5 28.7486 651.007C29.3697 652.513 31.8098 657.696 36.6899 659.246C41.5701 660.752 46.4502 659.246 47.6481 656.19C48.8459 653.133 47.3375 651.627 48.8459 650.696C50.3544 649.766 54.6578 651.317 57.364 648.26C60.1147 645.203 60.7358 641.571 58.2957 638.204C57.364 637.274 56.7873 635.768 57.9851 635.147C59.183 634.527 62.2442 632.401 61.9336 628.148C61.6231 623.895 58.5619 620.839 54.3028 620.529C50.0438 620.219 50.9311 619.022 50.9311 618.092C50.9311 617.162 51.5522 613.839 49.1121 611.713C46.6721 609.587 41.4813 609.277 37.5329 611.713C33.5844 614.15 32.6083 617.693 30.1682 619.2C28.3493 620.13 25.2881 619.82 25.2881 619.82L9.53849 619.244L17.1693 619.51C16.9918 621.946 16.4594 627.838 14.7736 630.009C12.644 632.755 13.8419 635.812 10.8251 635.192C7.80825 634.572 6.56603 632.135 8.07444 628.192C9.49413 624.471 10.1152 621.592 9.18357 619.2L0.887301 618.89ZM54.4803 633.11C51.8184 634.35 48.8459 633.508 47.8256 631.338C46.8052 629.167 48.1361 626.332 50.798 625.136C53.4599 623.895 56.4324 624.737 57.4528 626.908C58.4732 629.078 57.1422 631.914 54.4803 633.11ZM46.7608 640.33C47.515 638.204 49.9994 637.185 52.3508 637.983C54.7021 638.824 55.9887 641.172 55.2345 643.299C54.4803 645.425 51.9959 646.444 49.6445 645.646C47.2932 644.849 46.0066 642.457 46.7608 640.33ZM41.5701 622.389C39.7955 621.237 39.5736 618.447 41.0821 616.232C42.5461 613.972 45.208 613.086 46.9826 614.238C48.7572 615.39 48.979 618.181 47.4706 620.396C45.9622 622.655 43.3447 623.541 41.5701 622.389ZM38.3314 645.513C40.6384 644.982 43.0785 646.975 43.7883 650.032C44.4982 653.089 43.2116 655.968 40.949 656.5C38.6863 657.031 36.2019 655.038 35.4921 651.981C34.7379 648.969 36.0244 646.089 38.3314 645.513ZM30.1682 634.704C30.1682 634.704 27.4176 632.268 27.4176 628.901C27.4176 624.604 29.8577 622.832 32.2978 622.832C35.359 622.832 36.2019 627.882 42.3686 630.142C45.7404 631.338 45.4298 636.831 42.9898 638.071C41.0377 639.046 39.0413 640.818 36.9117 643.874C34.7822 646.931 29.2809 647.241 28.3936 642.678C27.5063 638.115 30.1682 634.704 30.1682 634.704Z" fill="#B7957E"/>
<path d="M38.3315 645.513C40.6384 644.982 43.0785 646.975 43.7884 650.032C44.4982 653.089 43.2116 655.968 40.949 656.5C38.6864 657.031 36.2019 655.038 35.4921 651.981C34.7379 648.969 36.0245 646.089 38.3315 645.513Z" fill="#FF7D94"/>
<path d="M52.3508 637.982C54.7022 638.824 55.9888 641.172 55.2345 643.298C54.4803 645.425 51.9959 646.444 49.6445 645.646C47.2932 644.849 46.0066 642.457 46.7608 640.33C47.515 638.204 49.9995 637.185 52.3508 637.982Z" fill="#FF7D94"/>
<path d="M54.4847 633.14C57.1325 631.921 58.4473 629.131 57.4214 626.91C56.3955 624.688 53.4174 623.875 50.7696 625.094C48.1218 626.313 46.807 629.102 47.8329 631.324C48.8588 633.546 51.8369 634.359 54.4847 633.14Z" fill="#FF7D94"/>
<path d="M41.5701 622.389C39.7955 621.237 39.5736 618.446 41.0821 616.232C42.5461 613.972 45.208 613.086 46.9826 614.238C48.7572 615.39 48.979 618.181 47.4706 620.396C45.9622 622.655 43.3447 623.541 41.5701 622.389Z" fill="#FF7D94"/>
<path d="M27.4177 628.945C27.4177 624.648 29.8578 622.876 32.2979 622.876C35.3591 622.876 36.202 627.927 42.3688 630.186C45.7405 631.382 45.4299 636.875 42.9899 638.115C41.0378 639.09 39.0414 640.862 36.9118 643.919C34.7823 646.975 29.2811 647.285 28.3938 642.723C27.5065 638.16 30.2127 634.793 30.2127 634.793C30.2127 634.793 27.4177 632.268 27.4177 628.945Z" fill="#FF7D94"/>
<path d="M4.39221 639.134C6.21118 642.501 6.07808 649.766 6.07808 649.766C5.94499 649.766 5.81189 649.766 5.63443 649.766C5.41261 649.766 5.19078 649.766 5.01332 649.766C4.7915 649.766 4.56967 649.766 4.39221 649.766C4.21475 649.766 3.99292 649.766 3.81546 649.766C3.7711 649.766 3.7711 649.766 3.72673 649.766C3.638 649.766 3.54927 649.766 3.46054 649.766H3.41618C3.32745 649.766 3.28308 649.766 3.19435 649.766C3.14999 649.766 3.10562 649.766 3.06126 649.766C3.01689 649.766 2.97253 649.766 2.92816 649.766C2.8838 649.766 2.79507 649.766 2.7507 649.766C2.70634 649.766 2.70634 649.766 2.66197 649.766C2.61761 649.766 2.52888 649.766 2.48451 649.766H2.44015C2.39578 649.766 2.35142 649.766 2.30705 649.766C2.26269 649.766 2.21832 649.766 2.17396 649.766H2.12959C2.08523 649.766 2.04086 649.766 2.04086 649.766C1.95213 649.766 1.8634 649.766 1.81904 649.766C1.77467 649.766 1.73031 649.766 1.68594 649.766C0.843005 649.766 0.354989 649.589 0.0444336 649.367V630.496C1.46412 631.648 2.70634 636.033 4.39221 639.134Z" fill="#927763"/>
<path d="M14.7736 630.009C12.6441 632.755 13.842 635.812 10.8252 635.192C7.80833 634.572 6.56611 632.135 8.07452 628.192C9.4942 624.471 10.1153 621.592 9.18365 619.2H9.53857L17.1694 619.465C16.9919 621.946 16.4595 627.838 14.7736 630.009Z" fill="#927763"/>
<path d="M0.887301 862.89C0.887301 862.89 0.354921 862.89 0 863.155V874.496C1.46405 875.603 2.70627 880.033 4.39214 883.134C6.21111 886.501 6.07801 893.766 6.07801 893.766C5.94492 893.766 5.81182 893.766 5.63436 893.766C12.8659 893.678 26.9296 893.5 26.9296 893.5C26.9296 893.5 28.1275 893.5 28.7486 895.007C29.3697 896.513 31.8098 901.696 36.6899 903.246C41.5701 904.752 46.4502 903.246 47.6481 900.19C48.8459 897.133 47.3375 895.627 48.8459 894.696C50.3544 893.766 54.6578 895.317 57.364 892.26C60.0703 889.203 60.7358 885.571 58.2957 882.204C57.364 881.274 56.7873 879.768 57.9851 879.147C59.183 878.527 62.2442 876.401 61.9336 872.148C61.6231 867.895 58.5619 864.839 54.3028 864.529C50.0438 864.219 50.9311 863.022 50.9311 862.092C50.9311 861.162 51.5522 857.839 49.1121 855.713C46.6721 853.587 41.4813 853.277 37.5329 855.713C33.5844 858.149 32.6083 861.693 30.1682 863.2C28.3493 864.13 25.2881 863.82 25.2881 863.82L9.53849 863.244L17.1693 863.51C16.9918 865.946 16.4594 871.838 14.7736 874.009C12.644 876.755 13.8419 879.812 10.8251 879.192C7.80825 878.572 6.56603 876.135 8.07444 872.192C9.49413 868.471 10.1152 865.592 9.18357 863.2L0.887301 862.89ZM54.4803 877.11C51.8184 878.35 48.8459 877.508 47.8256 875.338C46.8052 873.167 48.1361 870.332 50.798 869.136C53.4599 867.895 56.4324 868.737 57.4528 870.908C58.4732 873.078 57.1422 875.914 54.4803 877.11ZM46.7608 884.33C47.515 882.204 49.9994 881.185 52.3508 881.983C54.7021 882.824 55.9887 885.172 55.2345 887.298C54.4803 889.425 51.9959 890.444 49.6445 889.646C47.2932 888.849 46.0066 886.457 46.7608 884.33ZM41.5701 866.389C39.7955 865.237 39.5736 862.447 41.0821 860.232C42.5461 857.972 45.208 857.086 46.9826 858.238C48.7572 859.39 48.979 862.181 47.4706 864.396C45.9622 866.655 43.3447 867.541 41.5701 866.389ZM38.3314 889.513C40.6384 888.982 43.0785 890.975 43.7883 894.032C44.4982 897.089 43.2116 899.968 40.949 900.5C38.6863 901.031 36.2019 899.038 35.4921 895.981C34.7379 892.969 36.0244 890.089 38.3314 889.513ZM30.1682 878.704C30.1682 878.704 27.4176 876.268 27.4176 872.901C27.4176 868.604 29.8577 866.832 32.2978 866.832C35.359 866.832 36.2019 871.882 42.3686 874.142C45.7404 875.338 45.4298 880.831 42.9898 882.071C41.0377 883.046 39.0413 884.818 36.9117 887.874C34.7822 890.931 29.2809 891.241 28.3936 886.678C27.5063 882.115 30.1682 878.704 30.1682 878.704Z" fill="#C4C4C4"/>
<path d="M38.3315 889.513C40.6384 888.982 43.0785 890.975 43.7884 894.032C44.4982 897.089 43.2116 899.968 40.949 900.5C38.6864 901.031 36.2019 899.038 35.4921 895.981C34.7379 892.969 36.0245 890.089 38.3315 889.513Z" fill="#E891B4"/>
<path d="M52.3508 881.983C54.7022 882.824 55.9888 885.172 55.2345 887.299C54.4803 889.425 51.9959 890.444 49.6445 889.646C47.2932 888.849 46.0066 886.457 46.7608 884.33C47.515 882.204 49.9995 881.141 52.3508 881.983Z" fill="#E891B4"/>
<path d="M54.4813 877.144C57.1291 875.925 58.4439 873.136 57.418 870.914C56.3921 868.692 53.414 867.88 50.7662 869.099C48.1184 870.318 46.8036 873.107 47.8295 875.329C48.8554 877.55 51.8335 878.363 54.4813 877.144Z" fill="#E891B4"/>
<path d="M41.5701 866.389C39.7955 865.237 39.5736 862.447 41.0821 860.232C42.5461 857.972 45.208 857.086 46.9826 858.238C48.7572 859.39 48.979 862.181 47.4706 864.396C45.9622 866.655 43.3447 867.541 41.5701 866.389Z" fill="#E891B4"/>
<path d="M27.4177 872.945C27.4177 868.648 29.8578 866.876 32.2979 866.876C35.3591 866.876 36.202 871.927 42.3688 874.186C45.7405 875.382 45.4299 880.875 42.9899 882.115C41.0378 883.09 39.0414 884.862 36.9118 887.919C34.7823 890.975 29.2811 891.285 28.3938 886.723C27.5065 882.16 30.2127 878.793 30.2127 878.793C30.2127 878.793 27.4177 876.268 27.4177 872.945Z" fill="#E891B4"/>
<path d="M4.39221 883.134C6.21118 886.501 6.07808 893.766 6.07808 893.766C5.94499 893.766 5.81189 893.766 5.63443 893.766C5.41261 893.766 5.19078 893.766 5.01332 893.766C4.7915 893.766 4.56967 893.766 4.39221 893.766C4.21475 893.766 3.99292 893.766 3.81546 893.766C3.7711 893.766 3.7711 893.766 3.72673 893.766C3.638 893.766 3.54927 893.766 3.46054 893.766H3.41618C3.32745 893.766 3.28308 893.766 3.19435 893.766C3.14999 893.766 3.10562 893.766 3.06126 893.766C3.01689 893.766 2.97253 893.766 2.92816 893.766C2.8838 893.766 2.79507 893.766 2.7507 893.766C2.70634 893.766 2.70634 893.766 2.66197 893.766C2.61761 893.766 2.52888 893.766 2.48451 893.766H2.44015C2.39578 893.766 2.35142 893.766 2.30705 893.766C2.26269 893.766 2.21832 893.766 2.17396 893.766H2.12959C2.08523 893.766 2.04086 893.766 2.04086 893.766C1.95213 893.766 1.8634 893.766 1.81904 893.766C1.77467 893.766 1.73031 893.766 1.68594 893.766C0.843005 893.766 0.354989 893.589 0.0444336 893.368V874.496C1.46412 875.648 2.70634 880.033 4.39221 883.134Z" fill="#8E8E8E"/>
<path d="M14.7736 874.009C12.6441 876.755 13.842 879.812 10.8252 879.192C7.80833 878.571 6.56611 876.135 8.07452 872.192C9.4942 868.471 10.1153 865.592 9.18365 863.2H9.53857L17.1694 863.465C16.9919 865.946 16.4595 871.838 14.7736 874.009Z" fill="#8E8E8E"/>
<path d="M0.887301 923.89C0.887301 923.89 0.354921 923.89 0 924.155V935.496C1.46405 936.603 2.70627 941.033 4.39214 944.134C6.21111 947.501 6.07801 954.766 6.07801 954.766C5.01325 954.766 4.08159 954.766 3.32738 954.81C9.22793 954.766 26.974 954.5 26.974 954.5C26.974 954.5 28.1718 954.5 28.7929 956.007C29.414 957.513 31.8541 962.696 36.7343 964.246C41.6144 965.752 46.4946 964.246 47.6925 961.19C48.8903 958.133 47.3819 956.627 48.8903 955.696C50.3987 954.766 54.7021 956.317 57.4084 953.26C60.159 950.203 60.7801 946.571 58.3401 943.204C57.4084 942.274 56.8317 940.768 58.0295 940.147C59.2274 939.527 62.2886 937.401 61.978 933.148C61.6674 928.895 58.6063 925.839 54.3472 925.529C50.0882 925.219 50.9755 924.022 50.9755 923.092C50.9755 922.162 51.5966 918.839 49.1565 916.713C46.7164 914.587 41.5257 914.277 37.5772 916.713C33.6287 919.149 32.564 922.649 30.1239 924.155C28.3049 925.086 25.2437 924.776 25.2437 924.776L17.1249 924.51H17.1693C16.9918 926.946 16.4594 932.838 14.7736 935.009C12.644 937.755 13.8419 940.812 10.8251 940.192C7.76389 939.572 6.56603 937.135 8.07444 933.192C9.49413 929.471 10.1152 926.592 9.18357 924.2L0.887301 923.89ZM54.4803 938.11C51.8184 939.35 48.8459 938.508 47.8256 936.338C46.8052 934.123 48.1361 931.332 50.798 930.136C53.4599 928.895 56.4324 929.737 57.4528 931.908C58.4732 934.123 57.1422 936.914 54.4803 938.11ZM46.7608 945.33C47.515 943.204 49.9994 942.185 52.3508 942.983C54.7021 943.824 55.9887 946.172 55.2345 948.298C54.4803 950.425 51.9959 951.444 49.6445 950.646C47.2932 949.849 46.0066 947.457 46.7608 945.33ZM41.5701 927.389C39.7955 926.237 39.5736 923.447 41.0821 921.232C42.5905 919.017 45.208 918.086 46.9826 919.238C48.7572 920.39 48.979 923.181 47.4706 925.396C45.9622 927.655 43.3447 928.541 41.5701 927.389ZM38.3314 950.558C40.6384 950.026 43.0785 952.02 43.7883 955.076C44.4982 958.133 43.2116 961.012 40.949 961.544C38.6863 962.076 36.2019 960.082 35.4921 957.025C34.7379 953.969 36.0244 951.089 38.3314 950.558ZM30.1682 939.749C30.1682 939.749 27.4176 937.312 27.4176 933.945C27.4176 929.648 29.8577 927.876 32.2978 927.876C35.359 927.876 36.2019 932.927 42.3686 935.186C45.7404 936.382 45.4298 941.875 42.9898 943.115C41.0377 944.09 39.0413 945.862 36.9117 948.919C34.7822 951.975 29.2809 952.285 28.3936 947.723C27.4176 943.071 30.1682 939.749 30.1682 939.749Z" fill="white"/>
<path d="M38.3315 950.558C40.6384 950.026 43.0785 952.02 43.7884 955.076C44.4982 958.133 43.2116 961.012 40.949 961.544C38.6864 962.076 36.2019 960.082 35.4921 957.025C34.7379 953.969 36.0245 951.089 38.3315 950.558Z" fill="#FEC7DC"/>
<path d="M52.3508 942.983C54.7022 943.824 55.9888 946.172 55.2345 948.299C54.4803 950.425 51.9959 951.444 49.6445 950.646C47.2932 949.805 46.0066 947.457 46.7608 945.33C47.515 943.204 49.9995 942.185 52.3508 942.983Z" fill="#FEC7DC"/>
<path d="M47.8255 936.338C46.8051 934.123 48.1361 931.332 50.798 930.136C53.4599 928.895 56.4323 929.737 57.4527 931.908C58.4731 934.123 57.1422 936.914 54.4803 938.11C51.8184 939.35 48.8459 938.553 47.8255 936.338Z" fill="#FEC7DC"/>
<path d="M41.5701 927.389C39.7955 926.237 39.5736 923.447 41.0821 921.232C42.5905 919.017 45.208 918.086 46.9826 919.238C48.7572 920.39 48.979 923.181 47.4706 925.396C45.9622 927.655 43.3447 928.541 41.5701 927.389Z" fill="#FEC7DC"/>
<path d="M27.4177 933.945C27.4177 929.648 29.8578 927.876 32.2979 927.876C35.3591 927.876 36.202 932.927 42.3688 935.186C45.7405 936.382 45.4299 941.875 42.9899 943.115C41.0378 944.09 39.0414 945.862 36.9118 948.919C34.7823 951.975 29.2811 952.285 28.3938 947.723C27.4621 943.16 30.2127 939.793 30.2127 939.793C30.2127 939.793 27.4177 937.312 27.4177 933.945Z" fill="#FEC7DC"/>
<path d="M4.39221 944.134C6.21118 947.501 6.07808 954.766 6.07808 954.766C5.01332 954.766 4.08166 954.766 3.32745 954.811C3.28308 954.811 3.23872 954.811 3.19435 954.811C3.14999 954.811 3.10562 954.811 3.06126 954.811C3.01689 954.811 2.97253 954.811 2.92816 954.811C2.8838 954.811 2.79507 954.811 2.7507 954.811C2.70634 954.811 2.70634 954.811 2.66197 954.811C2.61761 954.811 2.52888 954.811 2.48451 954.811H2.44015C2.39578 954.811 2.35142 954.811 2.30705 954.811C2.26269 954.811 2.21832 954.811 2.17396 954.811H2.12959C2.08523 954.811 2.04086 954.811 2.04086 954.811C1.95213 954.811 1.8634 954.811 1.81904 954.811C1.77467 954.811 1.73031 954.811 1.68594 954.811C0.843005 954.811 0.354989 954.633 0.0444336 954.412V935.54C1.46412 936.648 2.70634 941.078 4.39221 944.134Z" fill="#DDDDDD"/>
<path d="M14.7736 935.009C12.644 937.755 13.8419 940.812 10.8251 940.192C7.76387 939.571 6.56602 937.135 8.07443 933.192C9.49411 929.471 10.1152 926.592 9.18356 924.2L17.1249 924.51H17.1693C16.9918 926.946 16.4594 932.838 14.7736 935.009Z" fill="#DDDDDD"/>
<path d="M0.887301 801.89C0.887301 801.89 0.354921 801.89 0 802.155V813.496C1.46405 814.603 2.70627 819.033 4.39214 822.134C6.21111 825.501 6.07801 832.766 6.07801 832.766C5.94492 832.766 5.81182 832.766 5.63436 832.766C12.8659 832.678 26.9296 832.5 26.9296 832.5C26.9296 832.5 28.1275 832.5 28.7486 834.007C29.3697 835.513 31.8098 840.696 36.6899 842.246C41.5701 843.752 46.4502 842.246 47.6481 839.19C48.8459 836.133 47.3375 834.627 48.8459 833.696C50.3544 832.766 54.6578 834.317 57.364 831.26C60.1147 828.203 60.7358 824.571 58.2957 821.204C57.364 820.274 56.7873 818.768 57.9851 818.147C59.183 817.527 62.2442 815.401 61.9336 811.148C61.6231 806.895 58.5619 803.839 54.3028 803.529C50.0438 803.219 50.9311 802.022 50.9311 801.092C50.9311 800.162 51.5522 796.839 49.1121 794.713C46.6721 792.587 41.4813 792.277 37.5329 794.713C33.5844 797.149 32.6083 800.693 30.1682 802.2C28.3493 803.13 25.2881 802.82 25.2881 802.82L9.53849 802.244L17.1693 802.51C16.9918 804.946 16.4594 810.838 14.7736 813.009C12.644 815.755 13.8419 818.812 10.8251 818.192C7.80825 817.572 6.56603 815.135 8.07444 811.192C9.49413 807.471 10.1152 804.592 9.18357 802.2L0.887301 801.89ZM54.4803 816.11C51.8184 817.35 48.8459 816.508 47.8256 814.338C46.8052 812.167 48.1361 809.332 50.798 808.136C53.4599 806.895 56.4324 807.737 57.4528 809.908C58.4732 812.078 57.1422 814.914 54.4803 816.11ZM46.7608 823.33C47.515 821.204 49.9994 820.185 52.3508 820.983C54.7021 821.824 55.9887 824.172 55.2345 826.298C54.4803 828.425 51.9959 829.444 49.6445 828.646C47.2932 827.849 46.0066 825.457 46.7608 823.33ZM41.5701 805.389C39.7955 804.237 39.5736 801.447 41.0821 799.232C42.5461 796.972 45.208 796.086 46.9826 797.238C48.7572 798.39 48.979 801.181 47.4706 803.396C45.9622 805.655 43.3447 806.541 41.5701 805.389ZM38.3314 828.513C40.6384 827.982 43.0785 829.975 43.7883 833.032C44.4982 836.089 43.2116 838.968 40.949 839.5C38.6863 840.031 36.2019 838.038 35.4921 834.981C34.7379 831.969 36.0244 829.089 38.3314 828.513ZM30.1682 817.704C30.1682 817.704 27.4176 815.268 27.4176 811.901C27.4176 807.604 29.8577 805.832 32.2978 805.832C35.359 805.832 36.2019 810.882 42.3686 813.142C45.7404 814.338 45.4298 819.831 42.9898 821.071C41.0377 822.046 39.0413 823.818 36.9117 826.874C34.7822 829.931 29.2809 830.241 28.3936 825.678C27.5063 821.115 30.1682 817.704 30.1682 817.704Z" fill="#B7957E"/>
<path d="M38.3315 828.513C40.6384 827.982 43.0785 829.975 43.7884 833.032C44.4982 836.089 43.2116 838.968 40.949 839.5C38.6864 840.031 36.2019 838.038 35.4921 834.981C34.7379 831.969 36.0245 829.089 38.3315 828.513Z" fill="#FF7D94"/>
<path d="M52.3508 820.983C54.7022 821.824 55.9888 824.172 55.2345 826.298C54.4803 828.425 51.9959 829.444 49.6445 828.646C47.2932 827.849 46.0066 825.457 46.7608 823.33C47.515 821.204 49.9995 820.185 52.3508 820.983Z" fill="#FF7D94"/>
<path d="M54.4781 816.147C57.1259 814.928 58.4407 812.139 57.4148 809.917C56.3889 807.695 53.4108 806.882 50.763 808.101C48.1152 809.321 46.8004 812.11 47.8263 814.332C48.8522 816.553 51.8303 817.366 54.4781 816.147Z" fill="#FF7D94"/>
<path d="M41.5701 805.389C39.7955 804.237 39.5736 801.447 41.0821 799.232C42.5461 796.972 45.208 796.086 46.9826 797.238C48.7572 798.39 48.979 801.181 47.4706 803.396C45.9622 805.655 43.3447 806.541 41.5701 805.389Z" fill="#FF7D94"/>
<path d="M27.4177 811.945C27.4177 807.648 29.8578 805.876 32.2979 805.876C35.3591 805.876 36.202 810.927 42.3688 813.186C45.7405 814.382 45.4299 819.875 42.9899 821.115C41.0378 822.09 39.0414 823.862 36.9118 826.919C34.7823 829.975 29.2811 830.285 28.3938 825.723C27.5065 821.16 30.1684 817.704 30.1684 817.704C30.1684 817.704 27.4177 815.268 27.4177 811.945Z" fill="#FF7D94"/>
<path d="M4.39221 822.134C6.21118 825.501 6.07808 832.766 6.07808 832.766C5.94499 832.766 5.81189 832.766 5.63443 832.766C5.41261 832.766 5.19078 832.766 5.01332 832.766C4.7915 832.766 4.56967 832.766 4.39221 832.766C4.21475 832.766 3.99292 832.766 3.81546 832.766C3.7711 832.766 3.7711 832.766 3.72673 832.766C3.638 832.766 3.54927 832.766 3.46054 832.766H3.41618C3.32745 832.766 3.28308 832.766 3.19435 832.766C3.14999 832.766 3.10562 832.766 3.06126 832.766C3.01689 832.766 2.97253 832.766 2.92816 832.766C2.8838 832.766 2.79507 832.766 2.7507 832.766C2.70634 832.766 2.70634 832.766 2.66197 832.766C2.61761 832.766 2.52888 832.766 2.48451 832.766H2.44015C2.39578 832.766 2.35142 832.766 2.30705 832.766C2.26269 832.766 2.21832 832.766 2.17396 832.766H2.12959C2.08523 832.766 2.04086 832.766 2.04086 832.766C1.95213 832.766 1.8634 832.766 1.81904 832.766C1.77467 832.766 1.73031 832.766 1.68594 832.766C0.843005 832.766 0.354989 832.589 0.0444336 832.368V813.496C1.46412 814.648 2.70634 819.033 4.39221 822.134Z" fill="#927763"/>
<path d="M14.7736 813.009C12.6441 815.755 13.842 818.812 10.8252 818.192C7.80833 817.572 6.56611 815.135 8.07452 811.192C9.4942 807.471 10.1153 804.592 9.18365 802.2H9.53857L17.1694 802.465C16.9919 804.946 16.4595 810.838 14.7736 813.009Z" fill="#927763"/>
<path d="M0.887301 984.89C0.887301 984.89 0.354921 984.89 0 985.155V996.496C1.46405 997.603 2.70627 1002.03 4.39214 1005.13C6.21111 1008.5 6.07801 1015.77 6.07801 1015.77C5.94492 1015.77 5.81182 1015.77 5.63436 1015.77C12.8659 1015.68 26.9296 1015.5 26.9296 1015.5C26.9296 1015.5 28.1275 1015.5 28.7486 1017.01C29.3697 1018.51 31.8098 1023.7 36.6899 1025.25C41.5701 1026.75 46.4502 1025.25 47.6481 1022.19C48.8459 1019.13 47.3375 1017.63 48.8459 1016.7C50.3544 1015.77 54.6578 1017.32 57.364 1014.26C60.1147 1011.2 60.7358 1007.57 58.2957 1004.2C57.364 1003.27 56.7873 1001.77 57.9851 1001.15C59.183 1000.53 62.2442 998.401 61.9336 994.148C61.6231 989.895 58.5619 986.839 54.3028 986.529C50.0438 986.219 50.9311 985.022 50.9311 984.092C50.9311 983.162 51.5522 979.839 49.1121 977.713C46.6721 975.587 41.4813 975.277 37.5329 977.713C33.5844 980.15 32.6083 983.693 30.1682 985.2C28.3493 986.13 25.2881 985.82 25.2881 985.82L9.53849 985.244L17.1693 985.51C16.9918 987.946 16.4594 993.838 14.7736 996.009C12.644 998.755 13.8419 1001.81 10.8251 1001.19C7.80825 1000.57 6.56603 998.135 8.07444 994.192C9.49413 990.471 10.1152 987.592 9.18357 985.2L0.887301 984.89ZM54.4803 999.11C51.8184 1000.35 48.8459 999.508 47.8256 997.338C46.8052 995.167 48.1361 992.332 50.798 991.136C53.4599 989.895 56.4324 990.737 57.4528 992.908C58.4732 995.078 57.1422 997.914 54.4803 999.11ZM46.7608 1006.33C47.515 1004.2 49.9994 1003.19 52.3508 1003.98C54.7021 1004.82 55.9887 1007.17 55.2345 1009.3C54.4803 1011.42 51.9959 1012.44 49.6445 1011.65C47.2932 1010.85 46.0066 1008.46 46.7608 1006.33ZM41.5701 988.389C39.7955 987.237 39.5736 984.447 41.0821 982.232C42.5461 979.972 45.208 979.086 46.9826 980.238C48.7572 981.39 48.979 984.181 47.4706 986.396C45.9622 988.655 43.3447 989.541 41.5701 988.389ZM38.3314 1011.51C40.6384 1010.98 43.0785 1012.98 43.7883 1016.03C44.4982 1019.09 43.2116 1021.97 40.949 1022.5C38.6863 1023.03 36.2019 1021.04 35.4921 1017.98C34.7379 1014.97 36.0244 1012.09 38.3314 1011.51ZM30.1682 1000.7C30.1682 1000.7 27.4176 998.268 27.4176 994.901C27.4176 990.604 29.8577 988.832 32.2978 988.832C35.359 988.832 36.2019 993.882 42.3686 996.142C45.7404 997.338 45.4298 1002.83 42.9898 1004.07C41.0377 1005.05 39.0413 1006.82 36.9117 1009.87C34.7822 1012.93 29.2809 1013.24 28.3936 1008.68C27.5063 1004.12 30.1682 1000.7 30.1682 1000.7Z" fill="#B7957E"/>
<path d="M38.3315 1011.51C40.6384 1010.98 43.0785 1012.98 43.7884 1016.03C44.4982 1019.09 43.2116 1021.97 40.949 1022.5C38.6864 1023.03 36.2019 1021.04 35.4921 1017.98C34.7379 1014.97 36.0245 1012.09 38.3315 1011.51Z" fill="#FF7D94"/>
<path d="M52.3508 1003.98C54.7022 1004.82 55.9888 1007.17 55.2345 1009.3C54.4803 1011.42 51.9959 1012.44 49.6445 1011.65C47.2932 1010.85 46.0066 1008.46 46.7608 1006.33C47.515 1004.2 49.9995 1003.19 52.3508 1003.98Z" fill="#FF7D94"/>
<path d="M54.4847 999.14C57.1325 997.921 58.4473 995.131 57.4214 992.91C56.3955 990.688 53.4174 989.875 50.7696 991.094C48.1218 992.313 46.807 995.102 47.8329 997.324C48.8588 999.546 51.8369 1000.36 54.4847 999.14Z" fill="#FF7D94"/>
<path d="M41.5701 988.389C39.7955 987.237 39.5736 984.447 41.0821 982.232C42.5461 979.972 45.208 979.086 46.9826 980.238C48.7572 981.39 48.979 984.181 47.4706 986.396C45.9622 988.655 43.3447 989.541 41.5701 988.389Z" fill="#FF7D94"/>
<path d="M27.4177 994.945C27.4177 990.648 29.8578 988.876 32.2979 988.876C35.3591 988.876 36.202 993.927 42.3688 996.186C45.7405 997.382 45.4299 1002.88 42.9899 1004.12C41.0378 1005.09 39.0414 1006.86 36.9118 1009.92C34.7823 1012.98 29.2811 1013.29 28.3938 1008.72C27.5065 1004.16 30.2127 1000.79 30.2127 1000.79C30.2127 1000.79 27.4177 998.268 27.4177 994.945Z" fill="#FF7D94"/>
<path d="M4.39221 1005.13C6.21118 1008.5 6.07808 1015.77 6.07808 1015.77C5.94499 1015.77 5.81189 1015.77 5.63443 1015.77C5.41261 1015.77 5.19078 1015.77 5.01332 1015.77C4.7915 1015.77 4.56967 1015.77 4.39221 1015.77C4.21475 1015.77 3.99292 1015.77 3.81546 1015.77C3.7711 1015.77 3.7711 1015.77 3.72673 1015.77C3.638 1015.77 3.54927 1015.77 3.46054 1015.77H3.41618C3.32745 1015.77 3.28308 1015.77 3.19435 1015.77C3.14999 1015.77 3.10562 1015.77 3.06126 1015.77C3.01689 1015.77 2.97253 1015.77 2.92816 1015.77C2.8838 1015.77 2.79507 1015.77 2.7507 1015.77C2.70634 1015.77 2.70634 1015.77 2.66197 1015.77C2.61761 1015.77 2.52888 1015.77 2.48451 1015.77H2.44015C2.39578 1015.77 2.35142 1015.77 2.30705 1015.77C2.26269 1015.77 2.21832 1015.77 2.17396 1015.77H2.12959C2.08523 1015.77 2.04086 1015.77 2.04086 1015.77C1.95213 1015.77 1.8634 1015.77 1.81904 1015.77C1.77467 1015.77 1.73031 1015.77 1.68594 1015.77C0.843005 1015.77 0.354989 1015.59 0.0444336 1015.37V996.496C1.46412 997.648 2.70634 1002.03 4.39221 1005.13Z" fill="#927763"/>
<path d="M14.7736 996.009C12.6441 998.755 13.842 1001.81 10.8252 1001.19C7.80833 1000.57 6.56611 998.135 8.07452 994.192C9.4942 990.471 10.1153 987.592 9.18365 985.2H9.53857L17.1694 985.465C16.9919 987.946 16.4595 993.838 14.7736 996.009Z" fill="#927763"/>
<path d="M0.887301 1045.89C0.887301 1045.89 0.354921 1045.89 0 1046.16V1057.5C1.46405 1058.6 2.70627 1063.03 4.39214 1066.13C6.21111 1069.5 6.07801 1076.77 6.07801 1076.77C5.94492 1076.77 5.81182 1076.77 5.63436 1076.77C12.8659 1076.68 26.9296 1076.5 26.9296 1076.5C26.9296 1076.5 28.1275 1076.5 28.7486 1078.01C29.3697 1079.51 31.8098 1084.7 36.6899 1086.25C41.5701 1087.75 46.4502 1086.25 47.6481 1083.19C48.8459 1080.13 47.3375 1078.63 48.8459 1077.7C50.3544 1076.77 54.6578 1078.32 57.364 1075.26C60.0703 1072.2 60.7358 1068.57 58.2957 1065.2C57.364 1064.27 56.7873 1062.77 57.9851 1062.15C59.183 1061.53 62.2442 1059.4 61.9336 1055.15C61.6231 1050.9 58.5619 1047.84 54.3028 1047.53C50.0438 1047.22 50.9311 1046.02 50.9311 1045.09C50.9311 1044.16 51.5522 1040.84 49.1121 1038.71C46.6721 1036.59 41.4813 1036.28 37.5329 1038.71C33.5844 1041.15 32.6083 1044.69 30.1682 1046.2C28.3493 1047.13 25.2881 1046.82 25.2881 1046.82L9.53849 1046.24L17.1693 1046.51C16.9918 1048.95 16.4594 1054.84 14.7736 1057.01C12.644 1059.76 13.8419 1062.81 10.8251 1062.19C7.80825 1061.57 6.56603 1059.14 8.07444 1055.19C9.49413 1051.47 10.1152 1048.59 9.18357 1046.2L0.887301 1045.89ZM54.4803 1060.11C51.8184 1061.35 48.8459 1060.51 47.8256 1058.34C46.8052 1056.17 48.1361 1053.33 50.798 1052.14C53.4599 1050.9 56.4324 1051.74 57.4528 1053.91C58.4732 1056.08 57.1422 1058.91 54.4803 1060.11ZM46.7608 1067.33C47.515 1065.2 49.9994 1064.19 52.3508 1064.98C54.7021 1065.82 55.9887 1068.17 55.2345 1070.3C54.4803 1072.42 51.9959 1073.44 49.6445 1072.65C47.2932 1071.85 46.0066 1069.46 46.7608 1067.33ZM41.5701 1049.39C39.7955 1048.24 39.5736 1045.45 41.0821 1043.23C42.5461 1040.97 45.208 1040.09 46.9826 1041.24C48.7572 1042.39 48.979 1045.18 47.4706 1047.4C45.9622 1049.65 43.3447 1050.54 41.5701 1049.39ZM38.3314 1072.51C40.6384 1071.98 43.0785 1073.98 43.7883 1077.03C44.4982 1080.09 43.2116 1082.97 40.949 1083.5C38.6863 1084.03 36.2019 1082.04 35.4921 1078.98C34.7379 1075.97 36.0244 1073.09 38.3314 1072.51ZM30.1682 1061.7C30.1682 1061.7 27.4176 1059.27 27.4176 1055.9C27.4176 1051.6 29.8577 1049.83 32.2978 1049.83C35.359 1049.83 36.2019 1054.88 42.3686 1057.14C45.7404 1058.34 45.4298 1063.83 42.9898 1065.07C41.0377 1066.05 39.0413 1067.82 36.9117 1070.87C34.7822 1073.93 29.2809 1074.24 28.3936 1069.68C27.5063 1065.12 30.1682 1061.7 30.1682 1061.7Z" fill="#C4C4C4"/>
<path d="M38.3315 1072.51C40.6384 1071.98 43.0785 1073.98 43.7884 1077.03C44.4982 1080.09 43.2116 1082.97 40.949 1083.5C38.6864 1084.03 36.2019 1082.04 35.4921 1078.98C34.7379 1075.97 36.0245 1073.09 38.3315 1072.51Z" fill="#E891B4"/>
<path d="M52.3508 1064.98C54.7022 1065.82 55.9888 1068.17 55.2345 1070.3C54.4803 1072.42 51.9959 1073.44 49.6445 1072.65C47.2932 1071.85 46.0066 1069.46 46.7608 1067.33C47.515 1065.2 49.9995 1064.14 52.3508 1064.98Z" fill="#E891B4"/>
<path d="M54.4884 1060.14C57.1362 1058.92 58.451 1056.13 57.4251 1053.91C56.3992 1051.68 53.4211 1050.87 50.7733 1052.09C48.1255 1053.31 46.8107 1056.1 47.8366 1058.32C48.8625 1060.54 51.8406 1061.36 54.4884 1060.14Z" fill="#E891B4"/>
<path d="M41.5701 1049.39C39.7955 1048.24 39.5736 1045.45 41.0821 1043.23C42.5461 1040.97 45.208 1040.09 46.9826 1041.24C48.7572 1042.39 48.979 1045.18 47.4706 1047.4C45.9622 1049.66 43.3447 1050.54 41.5701 1049.39Z" fill="#E891B4"/>
<path d="M27.4177 1055.95C27.4177 1051.65 29.8578 1049.88 32.2979 1049.88C35.3591 1049.88 36.202 1054.93 42.3688 1057.19C45.7405 1058.38 45.4299 1063.88 42.9899 1065.12C41.0378 1066.09 39.0414 1067.86 36.9118 1070.92C34.7823 1073.98 29.2811 1074.29 28.3938 1069.72C27.5065 1065.16 30.2127 1061.79 30.2127 1061.79C30.2127 1061.79 27.4177 1059.27 27.4177 1055.95Z" fill="#E891B4"/>
<path d="M4.39221 1066.13C6.21118 1069.5 6.07808 1076.77 6.07808 1076.77C5.94499 1076.77 5.81189 1076.77 5.63443 1076.77C5.41261 1076.77 5.19078 1076.77 5.01332 1076.77C4.7915 1076.77 4.56967 1076.77 4.39221 1076.77C4.21475 1076.77 3.99292 1076.77 3.81546 1076.77C3.7711 1076.77 3.7711 1076.77 3.72673 1076.77C3.638 1076.77 3.54927 1076.77 3.46054 1076.77H3.41618C3.32745 1076.77 3.28308 1076.77 3.19435 1076.77C3.14999 1076.77 3.10562 1076.77 3.06126 1076.77C3.01689 1076.77 2.97253 1076.77 2.92816 1076.77C2.8838 1076.77 2.79507 1076.77 2.7507 1076.77C2.70634 1076.77 2.70634 1076.77 2.66197 1076.77C2.61761 1076.77 2.52888 1076.77 2.48451 1076.77H2.44015C2.39578 1076.77 2.35142 1076.77 2.30705 1076.77C2.26269 1076.77 2.21832 1076.77 2.17396 1076.77H2.12959C2.08523 1076.77 2.04086 1076.77 2.04086 1076.77C1.95213 1076.77 1.8634 1076.77 1.81904 1076.77C1.77467 1076.77 1.73031 1076.77 1.68594 1076.77C0.843005 1076.77 0.354989 1076.59 0.0444336 1076.37V1057.5C1.46412 1058.65 2.70634 1063.03 4.39221 1066.13Z" fill="#8E8E8E"/>
<path d="M14.7736 1057.01C12.6441 1059.76 13.842 1062.81 10.8252 1062.19C7.80833 1061.57 6.56611 1059.14 8.07452 1055.19C9.4942 1051.47 10.1153 1048.59 9.18365 1046.2H9.53857L17.1694 1046.47C16.9919 1048.95 16.4595 1054.84 14.7736 1057.01Z" fill="#8E8E8E"/>
<path d="M38.3315 950.558C40.6384 950.026 43.0785 952.02 43.7884 955.076C44.4982 958.133 43.2116 961.012 40.949 961.544C38.6864 962.076 36.2019 960.082 35.4921 957.025C34.7379 953.969 36.0245 951.089 38.3315 950.558Z" fill="#FEC7DC"/>
<path d="M52.3508 942.983C54.7022 943.824 55.9888 946.172 55.2345 948.298C54.4803 950.425 51.9959 951.444 49.6445 950.646C47.2932 949.805 46.0066 947.457 46.7608 945.33C47.515 943.204 49.9995 942.185 52.3508 942.983Z" fill="#FEC7DC"/>
<path d="M47.8255 936.338C46.8051 934.123 48.1361 931.332 50.798 930.136C53.4599 928.895 56.4323 929.737 57.4527 931.908C58.4731 934.123 57.1422 936.914 54.4803 938.11C51.8184 939.35 48.8459 938.553 47.8255 936.338Z" fill="#FEC7DC"/>
<path d="M41.5701 927.389C39.7955 926.237 39.5736 923.447 41.0821 921.232C42.5905 919.017 45.208 918.086 46.9826 919.238C48.7572 920.39 48.979 923.181 47.4706 925.396C45.9622 927.655 43.3447 928.541 41.5701 927.389Z" fill="#FEC7DC"/>
<path d="M27.4177 933.945C27.4177 929.648 29.8578 927.876 32.2979 927.876C35.3591 927.876 36.202 932.927 42.3688 935.186C45.7405 936.382 45.4299 941.875 42.9899 943.115C41.0378 944.09 39.0414 945.862 36.9118 948.919C34.7823 951.975 29.2811 952.285 28.3938 947.723C27.4621 943.16 30.2127 939.793 30.2127 939.793C30.2127 939.793 27.4177 937.312 27.4177 933.945Z" fill="#FEC7DC"/>
<path d="M4.39221 944.134C6.21118 947.501 6.07808 954.766 6.07808 954.766C5.01332 954.766 4.08166 954.766 3.32745 954.811C3.28308 954.811 3.23872 954.811 3.19435 954.811C3.14999 954.811 3.10562 954.811 3.06126 954.811C3.01689 954.811 2.97253 954.811 2.92816 954.811C2.8838 954.811 2.79507 954.811 2.7507 954.811C2.70634 954.811 2.70634 954.811 2.66197 954.811C2.61761 954.811 2.52888 954.811 2.48451 954.811H2.44015C2.39578 954.811 2.35142 954.811 2.30705 954.811C2.26269 954.811 2.21832 954.811 2.17396 954.811H2.12959C2.08523 954.811 2.04086 954.811 2.04086 954.811C1.95213 954.811 1.8634 954.811 1.81904 954.811C1.77467 954.811 1.73031 954.811 1.68594 954.811C0.843005 954.811 0.354989 954.633 0.0444336 954.412V935.54C1.46412 936.648 2.70634 941.078 4.39221 944.134Z" fill="#DDDDDD"/>
<path d="M14.7736 935.009C12.644 937.755 13.8419 940.812 10.8251 940.192C7.76387 939.571 6.56602 937.135 8.07443 933.192C9.49411 929.471 10.1152 926.592 9.18356 924.2L17.1249 924.51H17.1693C16.9918 926.946 16.4594 932.838 14.7736 935.009Z" fill="#DDDDDD"/>
</g>
<defs>
<clipPath id="clip0_142_1100">
<rect width="62" height="1087" fill="white"/>
</clipPath>
</defs>
</svg>
