<svg width="556" height="168" viewBox="0 0 556 168" fill="none" xmlns="http://www.w3.org/2000/svg">
<path d="M531.657 67.432C530.718 69.5653 529.14 71.0587 526.921 71.912C524.702 72.68 522.526 72.5947 520.393 71.656C518.345 70.7173 516.894 69.1387 516.041 66.92C515.273 64.7013 515.358 62.568 516.297 60.52L525.385 41.576C526.409 39.528 528.03 38.1627 530.249 37.48C532.468 36.712 534.601 36.84 536.649 37.864C538.782 38.888 540.19 40.5093 540.873 42.728C541.641 44.9467 541.513 47.1227 540.489 49.256C537.332 55.4 534.388 61.4587 531.657 67.432ZM509.001 67.176C508.062 69.3093 506.484 70.8027 504.265 71.656C502.046 72.424 499.87 72.3387 497.737 71.4C495.689 70.4613 494.238 68.8827 493.385 66.664C492.617 64.4453 492.702 62.312 493.641 60.264L502.729 41.32C503.753 39.272 505.374 37.9067 507.593 37.224C509.812 36.456 511.945 36.584 513.993 37.608C516.126 38.632 517.534 40.2533 518.217 42.472C518.985 44.6907 518.857 46.8667 517.833 49C514.676 55.144 511.732 61.2027 509.001 67.176Z" fill="white"/>
<path d="M46.1259 67.56C43.3952 61.5867 40.4512 55.528 37.2938 49.384C36.2698 47.2507 36.0992 45.0747 36.7818 42.856C37.5498 40.6373 38.9578 39.016 41.0058 37.992C43.1392 36.968 45.3152 36.84 47.5338 37.608C49.7525 38.2907 51.3739 39.656 52.3979 41.704L61.4859 60.648C62.4245 62.696 62.4672 64.8293 61.6138 67.048C60.8458 69.2667 59.3952 70.8453 57.2618 71.784C55.2138 72.7227 53.0805 72.808 50.8619 72.04C48.6432 71.1867 47.0645 69.6933 46.1259 67.56ZM23.7258 67.816C20.9952 61.8427 18.0512 55.784 14.8938 49.64C13.8698 47.5067 13.6992 45.3307 14.3818 43.112C15.1498 40.8933 16.5578 39.272 18.6058 38.248C20.7392 37.224 22.9152 37.096 25.1338 37.864C27.3525 38.5467 28.9738 39.912 29.9978 41.96L39.0858 60.904C40.0245 62.952 40.0672 65.0853 39.2138 67.304C38.4458 69.5227 36.9952 71.1013 34.8618 72.04C32.8138 72.9787 30.6805 73.064 28.4618 72.296C26.2432 71.4427 24.6645 69.9493 23.7258 67.816Z" fill="white"/>
</svg>
