<svg width="796" height="154" viewBox="0 0 796 154" fill="none" xmlns="http://www.w3.org/2000/svg">
<path d="M39.4805 53.56C36.7498 47.5867 33.8058 41.528 30.6485 35.384C29.6245 33.2507 29.4538 31.0747 30.1365 28.856C30.9045 26.6373 32.3125 25.016 34.3605 23.992C36.4938 22.968 38.6698 22.84 40.8885 23.608C43.1072 24.2907 44.7285 25.656 45.7525 27.704L54.8405 46.648C55.7792 48.696 55.8218 50.8293 54.9685 53.048C54.2005 55.2667 52.7498 56.8453 50.6165 57.784C48.5685 58.7227 46.4352 58.808 44.2165 58.04C41.9978 57.1867 40.4192 55.6933 39.4805 53.56ZM17.0805 53.816C14.3498 47.8427 11.4058 41.784 8.2485 35.64C7.2245 33.5067 7.05383 31.3307 7.7365 29.112C8.5045 26.8933 9.9125 25.272 11.9605 24.248C14.0938 23.224 16.2698 23.096 18.4885 23.864C20.7072 24.5467 22.3285 25.912 23.3525 27.96L32.4405 46.904C33.3792 48.952 33.4218 51.0853 32.5685 53.304C31.8005 55.5227 30.3498 57.1013 28.2165 58.04C26.1685 58.9787 24.0352 59.064 21.8165 58.296C19.5978 57.4427 18.0192 55.9493 17.0805 53.816Z" fill="white"/>
<path d="M779.012 53.432C778.073 55.5653 776.494 57.0587 774.276 57.912C772.057 58.68 769.881 58.5947 767.748 57.656C765.7 56.7173 764.249 55.1387 763.396 52.92C762.628 50.7013 762.713 48.568 763.652 46.52L772.74 27.576C773.764 25.528 775.385 24.1627 777.604 23.48C779.822 22.712 781.956 22.84 784.004 23.864C786.137 24.888 787.545 26.5093 788.228 28.728C788.996 30.9467 788.868 33.1227 787.844 35.256C784.686 41.4 781.742 47.4587 779.012 53.432ZM756.356 53.176C755.417 55.3093 753.838 56.8027 751.62 57.656C749.401 58.424 747.225 58.3387 745.092 57.4C743.044 56.4613 741.593 54.8827 740.74 52.664C739.972 50.4453 740.057 48.312 740.996 46.264L750.083 27.32C751.108 25.272 752.729 23.9067 754.948 23.224C757.166 22.456 759.3 22.584 761.348 23.608C763.481 24.632 764.889 26.2533 765.572 28.472C766.34 30.6907 766.212 32.8667 765.188 35C762.03 41.144 759.086 47.2027 756.356 53.176Z" fill="white"/>
</svg>
